CooperHewittInterpol2-Semibold.ufo
<glyph name="quotedbl" format="1">
  <advance width="413"/>
  <unicode hex="0022"/>
  <outline>
    <contour>
      <point x="229" y="780" type="line" smooth="yes"/>
      <point x="238" y="474" type="line" smooth="yes"/>
      <point x="337" y="474" type="line" smooth="yes"/>
      <point x="359" y="780" type="line" smooth="yes"/>
    </contour>
    <contour>
      <point x="54" y="780" type="line" smooth="yes"/>
      <point x="75" y="474" type="line" smooth="yes"/>
      <point x="175" y="474" type="line" smooth="yes"/>
      <point x="184" y="780" type="line" smooth="yes"/>
    </contour>
  </outline>
</glyph>
<glyph name="dollar" format="1">
  <advance width="600"/>
  <unicode hex="0024"/>
  <outline>
    <contour>
      <point x="188" y="535" type="line" smooth="yes"/>
      <point x="188" y="540" type="line" smooth="yes"/>
      <point x="203" y="584" type="line" smooth="yes"/>
      <point x="241" y="611" type="line" smooth="yes"/>
      <point x="296" y="621" type="line" smooth="yes"/>
      <point x="305" y="621" type="line" smooth="yes"/>
      <point x="265" y="454" type="line" smooth="yes"/>
      <point x="219" y="472" type="line" smooth="yes"/>
      <point x="195" y="499" type="line" smooth="yes"/>
    </contour>
    <contour>
      <point x="306" y="160" type="line" smooth="yes"/>
      <point x="297" y="160" type="line" smooth="yes"/>
      <point x="338" y="334" type="line" smooth="yes"/>
      <point x="383" y="316" type="line" smooth="yes"/>
      <point x="409" y="288" type="line" smooth="yes"/>
      <point x="417" y="251" type="line" smooth="yes"/>
      <point x="417" y="246" type="line" smooth="yes"/>
      <point x="403" y="200" type="line" smooth="yes"/>
      <point x="364" y="170" type="line" smooth="yes"/>
    </contour>
    <contour>
      <point x="459" y="840" type="line" smooth="yes"/>
      <point x="357" y="840" type="line" smooth="yes"/>
      <point x="330" y="729" type="line" smooth="yes"/>
      <point x="320" y="729" type="line" smooth="yes"/>
      <point x="310" y="730" type="line" smooth="yes"/>
      <point x="300" y="730" type="line" smooth="yes"/>
      <point x="171" y="707" type="line" smooth="yes"/>
      <point x="87" y="640" type="line" smooth="yes"/>
      <point x="56" y="534" type="line" smooth="yes"/>
      <point x="56" y="525" type="line" smooth="yes"/>
      <point x="75" y="440" type="line" smooth="yes"/>
      <point x="135" y="383" type="line" smooth="yes"/>
      <point x="240" y="350" type="line" smooth="yes"/>
      <point x="204" y="199" type="line" smooth="yes"/>
      <point x="191" y="221" type="line" smooth="yes"/>
      <point x="184" y="248" type="line" smooth="yes"/>
      <point x="181" y="279" type="line" smooth="yes"/>
      <point x="49" y="279" type="line" smooth="yes"/>
      <point x="49" y="273" type="line" smooth="yes"/>
      <point x="63" y="185" type="line" smooth="yes"/>
      <point x="105" y="118" type="line" smooth="yes"/>
      <point x="174" y="73" type="line" smooth="yes"/>
      <point x="142" y="-60" type="line" smooth="yes"/>
      <point x="244" y="-60" type="line" smooth="yes"/>
      <point x="271" y="52" type="line" smooth="yes"/>
      <point x="281" y="51" type="line" smooth="yes"/>
      <point x="292" y="51" type="line" smooth="yes"/>
      <point x="304" y="51" type="line" smooth="yes"/>
      <point x="439" y="75" type="line" smooth="yes"/>
      <point x="523" y="144" type="line" smooth="yes"/>
      <point x="551" y="252" type="line" smooth="yes"/>
      <point x="551" y="261" type="line" smooth="yes"/>
      <point x="529" y="351" type="line" smooth="yes"/>
      <point x="466" y="407" type="line" smooth="yes"/>
      <point x="363" y="438" type="line" smooth="yes"/>
      <point x="396" y="576" type="line" smooth="yes"/>
      <point x="406" y="553" type="line" smooth="yes"/>
      <point x="412" y="525" type="line" smooth="yes"/>
      <point x="414" y="493" type="line" smooth="yes"/>
      <point x="545" y="493" type="line" smooth="yes"/>
      <point x="545" y="507" type="line" smooth="yes"/>
      <point x="532" y="597" type="line" smooth="yes"/>
      <point x="494" y="664" type="line" smooth="yes"/>
      <point x="427" y="709" type="line" smooth="yes"/>
    </contour>
  </outline>
</glyph>
<glyph name="percent" format="1">
  <advance width="963"/>
  <unicode hex="0025"/>
  <outline>
    <contour>
      <point x="297" y="611" type="line" smooth="yes"/>
      <point x="297" y="597" type="line" smooth="yes"/>
      <point x="286" y="553" type="line" smooth="yes"/>
      <point x="258" y="524" type="line" smooth="yes"/>
      <point x="216" y="514" type="line" smooth="yes"/>
      <point x="210" y="514" type="line" smooth="yes"/>
      <point x="168" y="524" type="line" smooth="yes"/>
      <point x="140" y="553" type="line" smooth="yes"/>
      <point x="130" y="597" type="line" smooth="yes"/>
      <point x="130" y="611" type="line" smooth="yes"/>
      <point x="140" y="655" type="line" smooth="yes"/>
      <point x="168" y="683" type="line" smooth="yes"/>
      <point x="210" y="693" type="line" smooth="yes"/>
      <point x="216" y="693" type="line" smooth="yes"/>
      <point x="258" y="683" type="line" smooth="yes"/>
      <point x="286" y="655" type="line" smooth="yes"/>
    </contour>
    <contour>
      <point x="666" y="169" type="line" smooth="yes"/>
      <point x="666" y="183" type="line" smooth="yes"/>
      <point x="676" y="227" type="line" smooth="yes"/>
      <point x="704" y="256" type="line" smooth="yes"/>
      <point x="746" y="266" type="line" smooth="yes"/>
      <point x="752" y="266" type="line" smooth="yes"/>
      <point x="794" y="256" type="line" smooth="yes"/>
      <point x="822" y="227" type="line" smooth="yes"/>
      <point x="833" y="183" type="line" smooth="yes"/>
      <point x="833" y="169" type="line" smooth="yes"/>
      <point x="822" y="125" type="line" smooth="yes"/>
      <point x="794" y="97" type="line" smooth="yes"/>
      <point x="752" y="87" type="line" smooth="yes"/>
      <point x="746" y="87" type="line" smooth="yes"/>
      <point x="704" y="97" type="line" smooth="yes"/>
      <point x="676" y="125" type="line" smooth="yes"/>
    </contour>
    <contour>
      <point x="567" y="182" type="line" smooth="yes"/>
      <point x="567" y="171" type="line" smooth="yes"/>
      <point x="591" y="70" type="line" smooth="yes"/>
      <point x="656" y="8" type="line" smooth="yes"/>
      <point x="749" y="-13" type="line" smooth="yes"/>
      <point x="843" y="8" type="line" smooth="yes"/>
      <point x="908" y="70" type="line" smooth="yes"/>
      <point x="932" y="171" type="line" smooth="yes"/>
      <point x="932" y="182" type="line" smooth="yes"/>
      <point x="908" y="282" type="line" smooth="yes"/>
      <point x="843" y="344" type="line" smooth="yes"/>
      <point x="749" y="365" type="line" smooth="yes"/>
      <point x="656" y="344" type="line" smooth="yes"/>
      <point x="591" y="282" type="line" smooth="yes"/>
    </contour>
    <contour>
      <point x="377" y="0" type="line" smooth="yes"/>
      <point x="675" y="716" type="line" smooth="yes"/>
      <point x="675" y="783" type="line" smooth="yes"/>
      <point x="627" y="769" type="line" smooth="yes"/>
      <point x="554" y="757" type="line" smooth="yes"/>
      <point x="471" y="751" type="line" smooth="yes"/>
      <point x="406" y="753" type="line" smooth="yes"/>
      <point x="351" y="761" type="line" smooth="yes"/>
      <point x="299" y="776" type="line" smooth="yes"/>
      <point x="272" y="785" type="line" smooth="yes"/>
      <point x="243" y="791" type="line" smooth="yes"/>
      <point x="213" y="793" type="line" smooth="yes"/>
      <point x="120" y="772" type="line" smooth="yes"/>
      <point x="55" y="710" type="line" smooth="yes"/>
      <point x="31" y="609" type="line" smooth="yes"/>
      <point x="31" y="598" type="line" smooth="yes"/>
      <point x="55" y="498" type="line" smooth="yes"/>
      <point x="120" y="436" type="line" smooth="yes"/>
      <point x="213" y="415" type="line" smooth="yes"/>
      <point x="307" y="436" type="line" smooth="yes"/>
      <point x="372" y="498" type="line" smooth="yes"/>
      <point x="396" y="598" type="line" smooth="yes"/>
      <point x="396" y="609" type="line" smooth="yes"/>
      <point x="396" y="623" type="line" smooth="yes"/>
      <point x="395" y="636" type="line" smooth="yes"/>
      <point x="393" y="649" type="line" smooth="yes"/>
      <point x="411" y="647" type="line" smooth="yes"/>
      <point x="429" y="645" type="line" smooth="yes"/>
      <point x="449" y="645" type="line" smooth="yes"/>
      <point x="487" y="647" type="line" smooth="yes"/>
      <point x="516" y="652" type="line" smooth="yes"/>
      <point x="533" y="655" type="line" smooth="yes"/>
      <point x="261" y="0" type="line" smooth="yes"/>
    </contour>
  </outline>
</glyph>
<glyph name="ampersand" format="1">
  <advance width="681"/>
  <unicode hex="0026"/>
  <outline>
    <contour>
      <point x="198" y="614" type="line" smooth="yes"/>
      <point x="206" y="649" type="line" smooth="yes"/>
      <point x="230" y="674" type="line" smooth="yes"/>
      <point x="269" y="683" type="line" smooth="yes"/>
      <point x="276" y="683" type="line" smooth="yes"/>
      <point x="315" y="674" type="line" smooth="yes"/>
      <point x="339" y="649" type="line" smooth="yes"/>
      <point x="347" y="614" type="line" smooth="yes"/>
      <point x="347" y="607" type="line" smooth="yes"/>
      <point x="333" y="561" type="line" smooth="yes"/>
      <point x="296" y="523" type="line" smooth="yes"/>
      <point x="245" y="489" type="line" smooth="yes"/>
      <point x="221" y="526" type="line" smooth="yes"/>
      <point x="204" y="565" type="line" smooth="yes"/>
      <point x="198" y="607" type="line" smooth="yes"/>
    </contour>
    <contour>
      <point x="274" y="101" type="line" smooth="yes"/>
      <point x="210" y="116" type="line" smooth="yes"/>
      <point x="172" y="156" type="line" smooth="yes"/>
      <point x="160" y="219" type="line" smooth="yes"/>
      <point x="160" y="226" type="line" smooth="yes"/>
      <point x="167" y="270" type="line" smooth="yes"/>
      <point x="187" y="306" type="line" smooth="yes"/>
      <point x="218" y="337" type="line" smooth="yes"/>
      <point x="393" y="135" type="line" smooth="yes"/>
      <point x="359" y="116" type="line" smooth="yes"/>
      <point x="321" y="105" type="line" smooth="yes"/>
      <point x="279" y="101" type="line" smooth="yes"/>
    </contour>
    <contour>
      <point x="255" y="-13" type="line" smooth="yes"/>
      <point x="335" y="-6" type="line" smooth="yes"/>
      <point x="407" y="15" type="line" smooth="yes"/>
      <point x="469" y="47" type="line" smooth="yes"/>
      <point x="511" y="0" type="line" smooth="yes"/>
      <point x="670" y="0" type="line" smooth="yes"/>
      <point x="557" y="130" type="line" smooth="yes"/>
      <point x="603" y="208" type="line" smooth="yes"/>
      <point x="631" y="297" type="line" smooth="yes"/>
      <point x="641" y="392" type="line" smooth="yes"/>
      <point x="641" y="395" type="line" smooth="yes"/>
      <point x="504" y="395" type="line" smooth="yes"/>
      <point x="504" y="392" type="line" smooth="yes"/>
      <point x="500" y="332" type="line" smooth="yes"/>
      <point x="489" y="278" type="line" smooth="yes"/>
      <point x="471" y="230" type="line" smooth="yes"/>
      <point x="320" y="403" type="line" smooth="yes"/>
      <point x="397" y="453" type="line" smooth="yes"/>
      <point x="456" y="518" type="line" smooth="yes"/>
      <point x="479" y="608" type="line" smooth="yes"/>
      <point x="479" y="619" type="line" smooth="yes"/>
      <point x="457" y="706" type="line" smooth="yes"/>
      <point x="390" y="769" type="line" smooth="yes"/>
      <point x="273" y="793" type="line" smooth="yes"/>
      <point x="155" y="769" type="line" smooth="yes"/>
      <point x="88" y="706" type="line" smooth="yes"/>
      <point x="66" y="619" type="line" smooth="yes"/>
      <point x="66" y="608" type="line" smooth="yes"/>
      <point x="75" y="539" type="line" smooth="yes"/>
      <point x="100" y="482" type="line" smooth="yes"/>
      <point x="141" y="426" type="line" smooth="yes"/>
      <point x="83" y="375" type="line" smooth="yes"/>
      <point x="42" y="308" type="line" smooth="yes"/>
      <point x="26" y="219" type="line" smooth="yes"/>
      <point x="26" y="208" type="line" smooth="yes"/>
      <point x="53" y="91" type="line" smooth="yes"/>
      <point x="132" y="15" type="line" smooth="yes"/>
    </contour>
  </outline>
</glyph>
<glyph name="parenleft" format="1">
  <advance width="350"/>
  <unicode hex="0028"/>
  <outline>
    <contour>
      <point x="42" y="350" type="line" smooth="yes"/>
      <point x="62" y="151" type="line" smooth="yes"/>
      <point x="115" y="3" type="line" smooth="yes"/>
      <point x="190" y="-120" type="line" smooth="yes"/>
      <point x="326" y="-120" type="line" smooth="yes"/>
      <point x="249" y="12" type="line" smooth="yes"/>
      <point x="194" y="164" type="line" smooth="yes"/>
      <point x="173" y="350" type="line" smooth="yes"/>
      <point x="173" y="370" type="line" smooth="yes"/>
      <point x="194" y="556" type="line" smooth="yes"/>
      <point x="249" y="708" type="line" smooth="yes"/>
      <point x="326" y="840" type="line" smooth="yes"/>
      <point x="190" y="840" type="line" smooth="yes"/>
      <point x="115" y="717" type="line" smooth="yes"/>
      <point x="62" y="569" type="line" smooth="yes"/>
      <point x="42" y="370" type="line" smooth="yes"/>
    </contour>
  </outline>
</glyph>
<glyph name="parenright" format="1">
  <advance width="350"/>
  <unicode hex="0029"/>
  <outline>
    <contour>
      <point x="308" y="370" type="line" smooth="yes"/>
      <point x="288" y="569" type="line" smooth="yes"/>
      <point x="235" y="717" type="line" smooth="yes"/>
      <point x="160" y="840" type="line" smooth="yes"/>
      <point x="24" y="840" type="line" smooth="yes"/>
      <point x="102" y="708" type="line" smooth="yes"/>
      <point x="156" y="556" type="line" smooth="yes"/>
      <point x="177" y="370" type="line" smooth="yes"/>
      <point x="177" y="350" type="line" smooth="yes"/>
      <point x="156" y="164" type="line" smooth="yes"/>
      <point x="102" y="12" type="line" smooth="yes"/>
      <point x="24" y="-120" type="line" smooth="yes"/>
      <point x="160" y="-120" type="line" smooth="yes"/>
      <point x="235" y="3" type="line" smooth="yes"/>
      <point x="288" y="151" type="line" smooth="yes"/>
      <point x="308" y="350" type="line" smooth="yes"/>
    </contour>
  </outline>
</glyph>
<glyph name="comma" format="1">
  <advance width="250"/>
  <unicode hex="002C"/>
  <outline>
    <contour>
      <point x="196" y="141" type="line" smooth="yes"/>
      <point x="54" y="141" type="line" smooth="yes"/>
      <point x="54" y="0" type="line" smooth="yes"/>
      <point x="126" y="0" type="line" smooth="yes"/>
      <point x="111" y="-38" type="line" smooth="yes"/>
      <point x="84" y="-60" type="line" smooth="yes"/>
      <point x="43" y="-67" type="line" smooth="yes"/>
      <point x="43" y="-135" type="line" smooth="yes"/>
      <point x="128" y="-116" type="line" smooth="yes"/>
      <point x="179" y="-61" type="line" smooth="yes"/>
      <point x="196" y="30" type="line" smooth="yes"/>
    </contour>
  </outline>
</glyph>
<glyph name="zero" format="1">
  <advance width="600"/>
  <unicode hex="0030"/>
  <outline>
    <contour>
      <point x="417" y="554" type="line" smooth="yes"/>
      <point x="417" y="226" type="line" smooth="yes"/>
      <point x="406" y="162" type="line" smooth="yes"/>
      <point x="369" y="119" type="line" smooth="yes"/>
      <point x="302" y="104" type="line" smooth="yes"/>
      <point x="298" y="104" type="line" smooth="yes"/>
      <point x="231" y="119" type="line" smooth="yes"/>
      <point x="194" y="162" type="line" smooth="yes"/>
      <point x="183" y="226" type="line" smooth="yes"/>
      <point x="183" y="554" type="line" smooth="yes"/>
      <point x="194" y="618" type="line" smooth="yes"/>
      <point x="231" y="661" type="line" smooth="yes"/>
      <point x="298" y="676" type="line" smooth="yes"/>
      <point x="302" y="676" type="line" smooth="yes"/>
      <point x="369" y="661" type="line" smooth="yes"/>
      <point x="406" y="618" type="line" smooth="yes"/>
    </contour>
    <contour>
      <point x="550" y="222" type="line" smooth="yes"/>
      <point x="550" y="558" type="line" smooth="yes"/>
      <point x="523" y="679" type="line" smooth="yes"/>
      <point x="440" y="762" type="line" smooth="yes"/>
      <point x="300" y="793" type="line" smooth="yes"/>
      <point x="160" y="762" type="line" smooth="yes"/>
      <point x="77" y="679" type="line" smooth="yes"/>
      <point x="50" y="558" type="line" smooth="yes"/>
      <point x="50" y="222" type="line" smooth="yes"/>
      <point x="77" y="101" type="line" smooth="yes"/>
      <point x="160" y="18" type="line" smooth="yes"/>
      <point x="300" y="-13" type="line" smooth="yes"/>
      <point x="440" y="18" type="line" smooth="yes"/>
      <point x="523" y="101" type="line" smooth="yes"/>
    </contour>
  </outline>
</glyph>
<glyph name="two" format="1">
  <advance width="600"/>
  <unicode hex="0032"/>
  <outline>
    <contour>
      <point x="309" y="117" type="line" smooth="yes"/>
      <point x="239" y="116" type="line" smooth="yes"/>
      <point x="464" y="361" type="line" smooth="yes"/>
      <point x="515" y="423" type="line" smooth="yes"/>
      <point x="544" y="486" type="line" smooth="yes"/>
      <point x="553" y="562" type="line" smooth="yes"/>
      <point x="553" y="579" type="line" smooth="yes"/>
      <point x="527" y="682" type="line" smooth="yes"/>
      <point x="446" y="762" type="line" smooth="yes"/>
      <point x="300" y="793" type="line" smooth="yes"/>
      <point x="158" y="764" type="line" smooth="yes"/>
      <point x="74" y="680" type="line" smooth="yes"/>
      <point x="47" y="541" type="line" smooth="yes"/>
      <point x="47" y="520" type="line" smooth="yes"/>
      <point x="179" y="520" type="line" smooth="yes"/>
      <point x="193" y="611" type="line" smooth="yes"/>
      <point x="233" y="661" type="line" smooth="yes"/>
      <point x="296" y="676" type="line" smooth="yes"/>
      <point x="304" y="676" type="line" smooth="yes"/>
      <point x="364" y="662" type="line" smooth="yes"/>
      <point x="405" y="621" type="line" smooth="yes"/>
      <point x="420" y="555" type="line" smooth="yes"/>
      <point x="420" y="545" type="line" smooth="yes"/>
      <point x="414" y="502" type="line" smooth="yes"/>
      <point x="394" y="464" type="line" smooth="yes"/>
      <point x="360" y="423" type="line" smooth="yes"/>
      <point x="47" y="83" type="line" smooth="yes"/>
      <point x="47" y="0" type="line" smooth="yes"/>
      <point x="553" y="0" type="line" smooth="yes"/>
      <point x="553" y="117" type="line" smooth="yes"/>
    </contour>
  </outline>
</glyph>
<glyph name="three" format="1">
  <advance width="600"/>
  <unicode hex="0033"/>
  <outline>
    <contour>
      <point x="174" y="250" type="line" smooth="yes"/>
      <point x="42" y="250" type="line" smooth="yes"/>
      <point x="42" y="237" type="line" smooth="yes"/>
      <point x="70" y="102" type="line" smooth="yes"/>
      <point x="156" y="17" type="line" smooth="yes"/>
      <point x="300" y="-13" type="line" smooth="yes"/>
      <point x="445" y="20" type="line" smooth="yes"/>
      <point x="530" y="102" type="line" smooth="yes"/>
      <point x="558" y="206" type="line" smooth="yes"/>
      <point x="558" y="224" type="line" smooth="yes"/>
      <point x="544" y="302" type="line" smooth="yes"/>
      <point x="507" y="360" type="line" smooth="yes"/>
      <point x="454" y="398" type="line" smooth="yes"/>
      <point x="505" y="436" type="line" smooth="yes"/>
      <point x="540" y="491" type="line" smooth="yes"/>
      <point x="553" y="567" type="line" smooth="yes"/>
      <point x="553" y="585" type="line" smooth="yes"/>
      <point x="527" y="684" type="line" smooth="yes"/>
      <point x="446" y="762" type="line" smooth="yes"/>
      <point x="300" y="793" type="line" smooth="yes"/>
      <point x="158" y="764" type="line" smooth="yes"/>
      <point x="74" y="680" type="line" smooth="yes"/>
      <point x="47" y="541" type="line" smooth="yes"/>
      <point x="47" y="520" type="line" smooth="yes"/>
      <point x="179" y="520" type="line" smooth="yes"/>
      <point x="193" y="611" type="line" smooth="yes"/>
      <point x="232" y="661" type="line" smooth="yes"/>
      <point x="295" y="676" type="line" smooth="yes"/>
      <point x="305" y="676" type="line" smooth="yes"/>
      <point x="365" y="663" type="line" smooth="yes"/>
      <point x="405" y="626" type="line" smooth="yes"/>
      <point x="420" y="569" type="line" smooth="yes"/>
      <point x="420" y="560" type="line" smooth="yes"/>
      <point x="406" y="501" type="line" smooth="yes"/>
      <point x="366" y="467" type="line" smooth="yes"/>
      <point x="306" y="456" type="line" smooth="yes"/>
      <point x="200" y="456" type="line" smooth="yes"/>
      <point x="200" y="340" type="line" smooth="yes"/>
      <point x="309" y="340" type="line" smooth="yes"/>
      <point x="370" y="328" type="line" smooth="yes"/>
      <point x="410" y="292" type="line" smooth="yes"/>
      <point x="425" y="231" type="line" smooth="yes"/>
      <point x="425" y="219" type="line" smooth="yes"/>
      <point x="408" y="154" type="line" smooth="yes"/>
      <point x="364" y="116" type="line" smooth="yes"/>
      <point x="305" y="104" type="line" smooth="yes"/>
      <point x="295" y="104" type="line" smooth="yes"/>
      <point x="232" y="118" type="line" smooth="yes"/>
      <point x="190" y="165" type="line" smooth="yes"/>
    </contour>
  </outline>
</glyph>
<glyph name="five" format="1">
  <advance width="600"/>
  <unicode hex="0035"/>
  <outline>
    <contour>
      <point x="42" y="250" type="line" smooth="yes"/>
      <point x="42" y="237" type="line" smooth="yes"/>
      <point x="70" y="102" type="line" smooth="yes"/>
      <point x="156" y="17" type="line" smooth="yes"/>
      <point x="300" y="-13" type="line" smooth="yes"/>
      <point x="439" y="17" type="line" smooth="yes"/>
      <point x="527" y="103" type="line" smooth="yes"/>
      <point x="558" y="237" type="line" smooth="yes"/>
      <point x="558" y="253" type="line" smooth="yes"/>
      <point x="527" y="387" type="line" smooth="yes"/>
      <point x="441" y="473" type="line" smooth="yes"/>
      <point x="306" y="503" type="line" smooth="yes"/>
      <point x="257" y="499" type="line" smooth="yes"/>
      <point x="211" y="487" type="line" smooth="yes"/>
      <point x="170" y="469" type="line" smooth="yes"/>
      <point x="179" y="663" type="line" smooth="yes"/>
      <point x="548" y="663" type="line" smooth="yes"/>
      <point x="548" y="780" type="line" smooth="yes"/>
      <point x="67" y="780" type="line" smooth="yes"/>
      <point x="48" y="349" type="line" smooth="yes"/>
      <point x="161" y="311" type="line" smooth="yes"/>
      <point x="194" y="353" type="line" smooth="yes"/>
      <point x="241" y="378" type="line" smooth="yes"/>
      <point x="292" y="386" type="line" smooth="yes"/>
      <point x="299" y="386" type="line" smooth="yes"/>
      <point x="362" y="373" type="line" smooth="yes"/>
      <point x="408" y="329" type="line" smooth="yes"/>
      <point x="425" y="252" type="line" smooth="yes"/>
      <point x="425" y="238" type="line" smooth="yes"/>
      <point x="408" y="161" type="line" smooth="yes"/>
      <point x="364" y="117" type="line" smooth="yes"/>
      <point x="305" y="104" type="line" smooth="yes"/>
      <point x="295" y="104" type="line" smooth="yes"/>
      <point x="232" y="118" type="line" smooth="yes"/>
      <point x="190" y="165" type="line" smooth="yes"/>
      <point x="174" y="250" type="line" smooth="yes"/>
    </contour>
  </outline>
</glyph>
<glyph name="six" format="1">
  <advance width="600"/>
  <unicode hex="0036"/>
  <outline>
    <contour>
      <point x="304" y="375" type="line" smooth="yes"/>
      <point x="309" y="375" type="line" smooth="yes"/>
      <point x="370" y="361" type="line" smooth="yes"/>
      <point x="412" y="320" type="line" smooth="yes"/>
      <point x="427" y="250" type="line" smooth="yes"/>
      <point x="427" y="231" type="line" smooth="yes"/>
      <point x="411" y="162" type="line" smooth="yes"/>
      <point x="368" y="119" type="line" smooth="yes"/>
      <point x="305" y="104" type="line" smooth="yes"/>
      <point x="299" y="104" type="line" smooth="yes"/>
      <point x="237" y="122" type="line" smooth="yes"/>
      <point x="193" y="175" type="line" smooth="yes"/>
      <point x="176" y="260" type="line" smooth="yes"/>
      <point x="176" y="299" type="line" smooth="yes"/>
      <point x="210" y="340" type="line" smooth="yes"/>
      <point x="254" y="366" type="line" smooth="yes"/>
    </contour>
    <contour>
      <point x="521" y="793" type="line" smooth="yes"/>
      <point x="380" y="779" type="line" smooth="yes"/>
      <point x="255" y="732" type="line" smooth="yes"/>
      <point x="154" y="641" type="line" smooth="yes"/>
      <point x="89" y="526" type="line" smooth="yes"/>
      <point x="54" y="406" type="line" smooth="yes"/>
      <point x="44" y="283" type="line" smooth="yes"/>
      <point x="44" y="270" type="line" smooth="yes"/>
      <point x="75" y="120" type="line" smooth="yes"/>
      <point x="164" y="22" type="line" smooth="yes"/>
      <point x="302" y="-13" type="line" smooth="yes"/>
      <point x="442" y="16" type="line" smooth="yes"/>
      <point x="529" y="101" type="line" smooth="yes"/>
      <point x="559" y="236" type="line" smooth="yes"/>
      <point x="559" y="246" type="line" smooth="yes"/>
      <point x="531" y="379" type="line" smooth="yes"/>
      <point x="452" y="462" type="line" smooth="yes"/>
      <point x="336" y="491" type="line" smooth="yes"/>
      <point x="282" y="485" type="line" smooth="yes"/>
      <point x="235" y="469" type="line" smooth="yes"/>
      <point x="196" y="444" type="line" smooth="yes"/>
      <point x="211" y="488" type="line" smooth="yes"/>
      <point x="232" y="529" type="line" smooth="yes"/>
      <point x="257" y="567" type="line" smooth="yes"/>
      <point x="328" y="629" type="line" smooth="yes"/>
      <point x="416" y="663" type="line" smooth="yes"/>
      <point x="521" y="674" type="line" smooth="yes"/>
    </contour>
  </outline>
</glyph>
<glyph name="seven" format="1">
  <advance width="600"/>
  <unicode hex="0037"/>
  <outline>
    <contour>
      <point x="43" y="500" type="line" smooth="yes"/>
      <point x="160" y="500" type="line" smooth="yes"/>
      <point x="160" y="663" type="line" smooth="yes"/>
      <point x="312" y="663" type="line" smooth="yes"/>
      <point x="412" y="665" type="line" smooth="yes"/>
      <point x="136" y="0" type="line" smooth="yes"/>
      <point x="277" y="0" type="line" smooth="yes"/>
      <point x="561" y="698" type="line" smooth="yes"/>
      <point x="561" y="780" type="line" smooth="yes"/>
      <point x="43" y="780" type="line" smooth="yes"/>
    </contour>
  </outline>
</glyph>
<glyph name="eight" format="1">
  <advance width="600"/>
  <unicode hex="0038"/>
  <outline>
    <contour>
      <point x="305" y="676" type="line" smooth="yes"/>
      <point x="365" y="663" type="line" smooth="yes"/>
      <point x="405" y="626" type="line" smooth="yes"/>
      <point x="420" y="570" type="line" smooth="yes"/>
      <point x="420" y="562" type="line" smooth="yes"/>
      <point x="406" y="503" type="line" smooth="yes"/>
      <point x="366" y="467" type="line" smooth="yes"/>
      <point x="306" y="456" type="line" smooth="yes"/>
      <point x="294" y="456" type="line" smooth="yes"/>
      <point x="234" y="467" type="line" smooth="yes"/>
      <point x="194" y="503" type="line" smooth="yes"/>
      <point x="180" y="562" type="line" smooth="yes"/>
      <point x="180" y="570" type="line" smooth="yes"/>
      <point x="195" y="626" type="line" smooth="yes"/>
      <point x="235" y="663" type="line" smooth="yes"/>
      <point x="295" y="676" type="line" smooth="yes"/>
    </contour>
    <contour>
      <point x="291" y="340" type="line" smooth="yes"/>
      <point x="309" y="340" type="line" smooth="yes"/>
      <point x="370" y="328" type="line" smooth="yes"/>
      <point x="410" y="291" type="line" smooth="yes"/>
      <point x="425" y="230" type="line" smooth="yes"/>
      <point x="425" y="218" type="line" smooth="yes"/>
      <point x="408" y="153" type="line" smooth="yes"/>
      <point x="364" y="116" type="line" smooth="yes"/>
      <point x="305" y="104" type="line" smooth="yes"/>
      <point x="295" y="104" type="line" smooth="yes"/>
      <point x="236" y="116" type="line" smooth="yes"/>
      <point x="192" y="153" type="line" smooth="yes"/>
      <point x="175" y="218" type="line" smooth="yes"/>
      <point x="175" y="230" type="line" smooth="yes"/>
      <point x="190" y="291" type="line" smooth="yes"/>
      <point x="230" y="328" type="line" smooth="yes"/>
    </contour>
    <contour>
      <point x="300" y="-13" type="line" smooth="yes"/>
      <point x="445" y="20" type="line" smooth="yes"/>
      <point x="530" y="101" type="line" smooth="yes"/>
      <point x="558" y="205" type="line" smooth="yes"/>
      <point x="558" y="223" type="line" smooth="yes"/>
      <point x="544" y="301" type="line" smooth="yes"/>
      <point x="507" y="359" type="line" smooth="yes"/>
      <point x="454" y="398" type="line" smooth="yes"/>
      <point x="505" y="436" type="line" smooth="yes"/>
      <point x="540" y="492" type="line" smooth="yes"/>
      <point x="553" y="568" type="line" smooth="yes"/>
      <point x="553" y="586" type="line" smooth="yes"/>
      <point x="527" y="685" type="line" smooth="yes"/>
      <point x="446" y="762" type="line" smooth="yes"/>
      <point x="300" y="793" type="line" smooth="yes"/>
      <point x="154" y="762" type="line" smooth="yes"/>
      <point x="73" y="685" type="line" smooth="yes"/>
      <point x="47" y="586" type="line" smooth="yes"/>
      <point x="47" y="568" type="line" smooth="yes"/>
      <point x="60" y="492" type="line" smooth="yes"/>
      <point x="95" y="436" type="line" smooth="yes"/>
      <point x="146" y="398" type="line" smooth="yes"/>
      <point x="93" y="359" type="line" smooth="yes"/>
      <point x="56" y="301" type="line" smooth="yes"/>
      <point x="42" y="223" type="line" smooth="yes"/>
      <point x="42" y="205" type="line" smooth="yes"/>
      <point x="70" y="101" type="line" smooth="yes"/>
      <point x="155" y="20" type="line" smooth="yes"/>
    </contour>
  </outline>
</glyph>
<glyph name="nine" format="1">
  <advance width="600"/>
  <unicode hex="0039"/>
  <outline>
    <contour>
      <point x="296" y="405" type="line" smooth="yes"/>
      <point x="291" y="405" type="line" smooth="yes"/>
      <point x="230" y="419" type="line" smooth="yes"/>
      <point x="188" y="460" type="line" smooth="yes"/>
      <point x="173" y="530" type="line" smooth="yes"/>
      <point x="173" y="549" type="line" smooth="yes"/>
      <point x="189" y="618" type="line" smooth="yes"/>
      <point x="232" y="661" type="line" smooth="yes"/>
      <point x="295" y="676" type="line" smooth="yes"/>
      <point x="301" y="676" type="line" smooth="yes"/>
      <point x="363" y="658" type="line" smooth="yes"/>
      <point x="407" y="605" type="line" smooth="yes"/>
      <point x="424" y="520" type="line" smooth="yes"/>
      <point x="424" y="510" type="line" smooth="yes"/>
      <point x="424" y="500" type="line" smooth="yes"/>
      <point x="424" y="490" type="line" smooth="yes"/>
      <point x="423" y="480" type="line" smooth="yes"/>
      <point x="390" y="439" type="line" smooth="yes"/>
      <point x="346" y="414" type="line" smooth="yes"/>
    </contour>
    <contour>
      <point x="79" y="-13" type="line" smooth="yes"/>
      <point x="220" y="1" type="line" smooth="yes"/>
      <point x="345" y="48" type="line" smooth="yes"/>
      <point x="446" y="139" type="line" smooth="yes"/>
      <point x="511" y="254" type="line" smooth="yes"/>
      <point x="546" y="374" type="line" smooth="yes"/>
      <point x="556" y="497" type="line" smooth="yes"/>
      <point x="556" y="510" type="line" smooth="yes"/>
      <point x="525" y="660" type="line" smooth="yes"/>
      <point x="436" y="758" type="line" smooth="yes"/>
      <point x="298" y="793" type="line" smooth="yes"/>
      <point x="158" y="764" type="line" smooth="yes"/>
      <point x="71" y="679" type="line" smooth="yes"/>
      <point x="41" y="544" type="line" smooth="yes"/>
      <point x="41" y="534" type="line" smooth="yes"/>
      <point x="69" y="401" type="line" smooth="yes"/>
      <point x="148" y="318" type="line" smooth="yes"/>
      <point x="264" y="289" type="line" smooth="yes"/>
      <point x="318" y="295" type="line" smooth="yes"/>
      <point x="364" y="311" type="line" smooth="yes"/>
      <point x="403" y="336" type="line" smooth="yes"/>
      <point x="388" y="291" type="line" smooth="yes"/>
      <point x="368" y="250" type="line" smooth="yes"/>
      <point x="343" y="213" type="line" smooth="yes"/>
      <point x="272" y="151" type="line" smooth="yes"/>
      <point x="184" y="117" type="line" smooth="yes"/>
      <point x="79" y="106" type="line" smooth="yes"/>
    </contour>
  </outline>
</glyph>
<glyph name="colon" format="1">
  <advance width="250"/>
  <unicode hex="003A"/>
  <outline>
    <contour>
      <point x="196" y="141" type="line" smooth="yes"/>
      <point x="54" y="141" type="line" smooth="yes"/>
      <point x="54" y="0" type="line" smooth="yes"/>
      <point x="196" y="0" type="line" smooth="yes"/>
    </contour>
    <contour>
      <point x="196" y="461" type="line" smooth="yes"/>
      <point x="54" y="461" type="line" smooth="yes"/>
      <point x="54" y="319" type="line" smooth="yes"/>
      <point x="196" y="319" type="line" smooth="yes"/>
    </contour>
  </outline>
</glyph>
<glyph name="question" format="1">
  <advance width="484"/>
  <unicode hex="003F"/>
  <outline>
    <contour>
      <point x="310" y="141" type="line" smooth="yes"/>
      <point x="168" y="141" type="line" smooth="yes"/>
      <point x="168" y="0" type="line" smooth="yes"/>
      <point x="310" y="0" type="line" smooth="yes"/>
    </contour>
    <contour>
      <point x="246" y="677" type="line" smooth="yes"/>
      <point x="297" y="665" type="line" smooth="yes"/>
      <point x="323" y="631" type="line" smooth="yes"/>
      <point x="330" y="578" type="line" smooth="yes"/>
      <point x="292" y="480" type="line" smooth="yes"/>
      <point x="223" y="372" type="line" smooth="yes"/>
      <point x="194" y="216" type="line" smooth="yes"/>
      <point x="284" y="216" type="line" smooth="yes"/>
      <point x="336" y="354" type="line" smooth="yes"/>
      <point x="419" y="446" type="line" smooth="yes"/>
      <point x="463" y="589" type="line" smooth="yes"/>
      <point x="443" y="690" type="line" smooth="yes"/>
      <point x="376" y="764" type="line" smooth="yes"/>
      <point x="246" y="793" type="line" smooth="yes"/>
      <point x="113" y="761" type="line" smooth="yes"/>
      <point x="43" y="670" type="line" smooth="yes"/>
      <point x="23" y="528" type="line" smooth="yes"/>
      <point x="23" y="513" type="line" smooth="yes"/>
      <point x="154" y="513" type="line" smooth="yes"/>
      <point x="162" y="604" type="line" smooth="yes"/>
      <point x="191" y="659" type="line" smooth="yes"/>
    </contour>
  </outline>
</glyph>
<glyph name="at" format="1">
  <advance width="981"/>
  <unicode hex="0040"/>
  <outline>
    <contour>
      <point x="574" y="208" type="line" smooth="yes"/>
      <point x="553" y="182" type="line" smooth="yes"/>
      <point x="519" y="160" type="line" smooth="yes"/>
      <point x="474" y="150" type="line" smooth="yes"/>
      <point x="417" y="166" type="line" smooth="yes"/>
      <point x="384" y="212" type="line" smooth="yes"/>
      <point x="373" y="280" type="line" smooth="yes"/>
      <point x="373" y="310" type="line" smooth="yes"/>
      <point x="384" y="378" type="line" smooth="yes"/>
      <point x="417" y="424" type="line" smooth="yes"/>
      <point x="474" y="440" type="line" smooth="yes"/>
      <point x="519" y="430" type="line" smooth="yes"/>
      <point x="553" y="408" type="line" smooth="yes"/>
      <point x="574" y="382" type="line" smooth="yes"/>
    </contour>
    <contour>
      <point x="510" y="-124" type="line" smooth="yes"/>
      <point x="306" y="-80" type="line" smooth="yes"/>
      <point x="169" y="51" type="line" smooth="yes"/>
      <point x="119" y="270" type="line" smooth="yes"/>
      <point x="119" y="310" type="line" smooth="yes"/>
      <point x="169" y="527" type="line" smooth="yes"/>
      <point x="304" y="659" type="line" smooth="yes"/>
      <point x="505" y="704" type="line" smooth="yes"/>
      <point x="511" y="704" type="line" smooth="yes"/>
      <point x="679" y="677" type="line" smooth="yes"/>
      <point x="808" y="581" type="line" smooth="yes"/>
      <point x="860" y="395" type="line" smooth="yes"/>
      <point x="860" y="365" type="line" smooth="yes"/>
      <point x="842" y="234" type="line" smooth="yes"/>
      <point x="786" y="168" type="line" smooth="yes"/>
      <point x="689" y="147" type="line" smooth="yes"/>
      <point x="689" y="390" type="line" smooth="yes"/>
      <point x="697" y="530" type="line" smooth="yes"/>
      <point x="595" y="530" type="line" smooth="yes"/>
      <point x="584" y="466" type="line" smooth="yes"/>
      <point x="550" y="506" type="line" smooth="yes"/>
      <point x="503" y="533" type="line" smooth="yes"/>
      <point x="441" y="543" type="line" smooth="yes"/>
      <point x="335" y="512" type="line" smooth="yes"/>
      <point x="272" y="429" type="line" smooth="yes"/>
      <point x="252" y="310" type="line" smooth="yes"/>
      <point x="252" y="280" type="line" smooth="yes"/>
      <point x="272" y="161" type="line" smooth="yes"/>
      <point x="335" y="78" type="line" smooth="yes"/>
      <point x="441" y="47" type="line" smooth="yes"/>
      <point x="503" y="57" type="line" smooth="yes"/>
      <point x="550" y="84" type="line" smooth="yes"/>
      <point x="584" y="123" type="line" smooth="yes"/>
      <point x="595" y="60" type="line" smooth="yes"/>
      <point x="681" y="60" type="line" smooth="yes"/>
      <point x="820" y="86" type="line" smooth="yes"/>
      <point x="917" y="179" type="line" smooth="yes"/>
      <point x="953" y="365" type="line" smooth="yes"/>
      <point x="953" y="395" type="line" smooth="yes"/>
      <point x="891" y="622" type="line" smooth="yes"/>
      <point x="730" y="752" type="line" smooth="yes"/>
      <point x="508" y="793" type="line" smooth="yes"/>
      <point x="260" y="736" type="line" smooth="yes"/>
      <point x="91" y="573" type="line" smooth="yes"/>
      <point x="29" y="310" type="line" smooth="yes"/>
      <point x="29" y="270" type="line" smooth="yes"/>
      <point x="92" y="7" type="line" smooth="yes"/>
      <point x="262" y="-156" type="line" smooth="yes"/>
      <point x="513" y="-213" type="line" smooth="yes"/>
      <point x="635" y="-203" type="line" smooth="yes"/>
      <point x="764" y="-165" type="line" smooth="yes"/>
      <point x="896" y="-86" type="line" smooth="yes"/>
      <point x="845" y="-17" type="line" smooth="yes"/>
      <point x="743" y="-77" type="line" smooth="yes"/>
      <point x="633" y="-112" type="line" smooth="yes"/>
      <point x="516" y="-124" type="line" smooth="yes"/>
    </contour>
  </outline>
</glyph>
<glyph name="C" format="1">
  <advance width="640"/>
  <unicode hex="0043"/>
  <outline>
    <contour>
      <point x="181" y="370" type="line" smooth="yes"/>
      <point x="181" y="410" type="line" smooth="yes"/>
      <point x="194" y="557" type="line" smooth="yes"/>
      <point x="241" y="646" type="line" smooth="yes"/>
      <point x="328" y="676" type="line" smooth="yes"/>
      <point x="337" y="676" type="line" smooth="yes"/>
      <point x="412" y="655" type="line" smooth="yes"/>
      <point x="451" y="591" type="line" smooth="yes"/>
      <point x="463" y="487" type="line" smooth="yes"/>
      <point x="598" y="487" type="line" smooth="yes"/>
      <point x="598" y="521" type="line" smooth="yes"/>
      <point x="568" y="676" type="line" smooth="yes"/>
      <point x="478" y="765" type="line" smooth="yes"/>
      <point x="329" y="793" type="line" smooth="yes"/>
      <point x="168" y="754" type="line" smooth="yes"/>
      <point x="75" y="629" type="line" smooth="yes"/>
      <point x="44" y="410" type="line" smooth="yes"/>
      <point x="44" y="370" type="line" smooth="yes"/>
      <point x="75" y="151" type="line" smooth="yes"/>
      <point x="168" y="26" type="line" smooth="yes"/>
      <point x="329" y="-13" type="line" smooth="yes"/>
      <point x="478" y="15" type="line" smooth="yes"/>
      <point x="568" y="102" type="line" smooth="yes"/>
      <point x="598" y="253" type="line" smooth="yes"/>
      <point x="598" y="263" type="line" smooth="yes"/>
      <point x="463" y="263" type="line" smooth="yes"/>
      <point x="451" y="178" type="line" smooth="yes"/>
      <point x="410" y="123" type="line" smooth="yes"/>
      <point x="337" y="104" type="line" smooth="yes"/>
      <point x="328" y="104" type="line" smooth="yes"/>
      <point x="240" y="134" type="line" smooth="yes"/>
      <point x="194" y="223" type="line" smooth="yes"/>
    </contour>
  </outline>
</glyph>
<glyph name="I" format="1">
  <advance width="266"/>
  <unicode hex="0049"/>
  <outline>
    <contour>
      <point x="200" y="780" type="line" smooth="yes"/>
      <point x="66" y="780" type="line" smooth="yes"/>
      <point x="66" y="0" type="line" smooth="yes"/>
      <point x="200" y="0" type="line" smooth="yes"/>
    </contour>
  </outline>
</glyph>
<glyph name="J" format="1">
  <advance width="524"/>
  <unicode hex="004A"/>
  <outline>
    <contour>
      <point x="334" y="780" type="line" smooth="yes"/>
      <point x="334" y="256" type="line" smooth="yes"/>
      <point x="326" y="172" type="line" smooth="yes"/>
      <point x="297" y="121" type="line" smooth="yes"/>
      <point x="243" y="104" type="line" smooth="yes"/>
      <point x="189" y="121" type="line" smooth="yes"/>
      <point x="160" y="174" type="line" smooth="yes"/>
      <point x="152" y="263" type="line" smooth="yes"/>
      <point x="25" y="263" type="line" smooth="yes"/>
      <point x="25" y="240" type="line" smooth="yes"/>
      <point x="46" y="103" type="line" smooth="yes"/>
      <point x="115" y="17" type="line" smooth="yes"/>
      <point x="246" y="-13" type="line" smooth="yes"/>
      <point x="374" y="17" type="line" smooth="yes"/>
      <point x="446" y="103" type="line" smooth="yes"/>
      <point x="468" y="239" type="line" smooth="yes"/>
      <point x="468" y="780" type="line" smooth="yes"/>
    </contour>
  </outline>
</glyph>
<glyph name="L" format="1">
  <advance width="511"/>
  <unicode hex="004C"/>
  <outline>
    <contour>
      <point x="496" y="0" type="line" smooth="yes"/>
      <point x="496" y="117" type="line" smooth="yes"/>
      <point x="195" y="117" type="line" smooth="yes"/>
      <point x="195" y="780" type="line" smooth="yes"/>
      <point x="61" y="780" type="line" smooth="yes"/>
      <point x="61" y="0" type="line" smooth="yes"/>
    </contour>
  </outline>
</glyph>
<glyph name="O" format="1">
  <advance width="665"/>
  <unicode hex="004F"/>
  <outline>
    <contour>
      <point x="328" y="104" type="line" smooth="yes"/>
      <point x="241" y="134" type="line" smooth="yes"/>
      <point x="195" y="223" type="line" smooth="yes"/>
      <point x="181" y="370" type="line" smooth="yes"/>
      <point x="181" y="410" type="line" smooth="yes"/>
      <point x="195" y="557" type="line" smooth="yes"/>
      <point x="241" y="646" type="line" smooth="yes"/>
      <point x="328" y="676" type="line" smooth="yes"/>
      <point x="337" y="676" type="line" smooth="yes"/>
      <point x="424" y="646" type="line" smooth="yes"/>
      <point x="470" y="557" type="line" smooth="yes"/>
      <point x="484" y="410" type="line" smooth="yes"/>
      <point x="484" y="370" type="line" smooth="yes"/>
      <point x="470" y="223" type="line" smooth="yes"/>
      <point x="424" y="134" type="line" smooth="yes"/>
      <point x="337" y="104" type="line" smooth="yes"/>
    </contour>
    <contour>
      <point x="333" y="-13" type="line" smooth="yes"/>
      <point x="494" y="26" type="line" smooth="yes"/>
      <point x="590" y="151" type="line" smooth="yes"/>
      <point x="621" y="370" type="line" smooth="yes"/>
      <point x="621" y="410" type="line" smooth="yes"/>
      <point x="590" y="629" type="line" smooth="yes"/>
      <point x="494" y="754" type="line" smooth="yes"/>
      <point x="333" y="793" type="line" smooth="yes"/>
      <point x="171" y="754" type="line" smooth="yes"/>
      <point x="75" y="629" type="line" smooth="yes"/>
      <point x="44" y="410" type="line" smooth="yes"/>
      <point x="44" y="370" type="line" smooth="yes"/>
      <point x="75" y="151" type="line" smooth="yes"/>
      <point x="171" y="26" type="line" smooth="yes"/>
    </contour>
  </outline>
</glyph>
<glyph name="P" format="1">
  <advance width="598"/>
  <unicode hex="0050"/>
  <outline>
    <contour>
      <point x="195" y="408" type="line" smooth="yes"/>
      <point x="195" y="663" type="line" smooth="yes"/>
      <point x="310" y="663" type="line" smooth="yes"/>
      <point x="364" y="654" type="line" smooth="yes"/>
      <point x="410" y="618" type="line" smooth="yes"/>
      <point x="430" y="541" type="line" smooth="yes"/>
      <point x="430" y="530" type="line" smooth="yes"/>
      <point x="410" y="453" type="line" smooth="yes"/>
      <point x="364" y="417" type="line" smooth="yes"/>
      <point x="310" y="408" type="line" smooth="yes"/>
    </contour>
    <contour>
      <point x="195" y="291" type="line" smooth="yes"/>
      <point x="305" y="291" type="line" smooth="yes"/>
      <point x="427" y="308" type="line" smooth="yes"/>
      <point x="525" y="377" type="line" smooth="yes"/>
      <point x="566" y="526" type="line" smooth="yes"/>
      <point x="566" y="546" type="line" smooth="yes"/>
      <point x="525" y="695" type="line" smooth="yes"/>
      <point x="427" y="763" type="line" smooth="yes"/>
      <point x="305" y="780" type="line" smooth="yes"/>
      <point x="61" y="780" type="line" smooth="yes"/>
      <point x="61" y="0" type="line" smooth="yes"/>
      <point x="195" y="0" type="line" smooth="yes"/>
    </contour>
  </outline>
</glyph>
<glyph name="Q" format="1">
  <advance width="665"/>
  <unicode hex="0051"/>
  <outline>
    <contour>
      <point x="378" y="251" type="line" smooth="yes"/>
      <point x="275" y="251" type="line" smooth="yes"/>
      <point x="331" y="104" type="line" smooth="yes"/>
      <point x="328" y="104" type="line" smooth="yes"/>
      <point x="241" y="134" type="line" smooth="yes"/>
      <point x="195" y="223" type="line" smooth="yes"/>
      <point x="181" y="370" type="line" smooth="yes"/>
      <point x="181" y="410" type="line" smooth="yes"/>
      <point x="195" y="557" type="line" smooth="yes"/>
      <point x="241" y="646" type="line" smooth="yes"/>
      <point x="328" y="676" type="line" smooth="yes"/>
      <point x="337" y="676" type="line" smooth="yes"/>
      <point x="424" y="646" type="line" smooth="yes"/>
      <point x="470" y="557" type="line" smooth="yes"/>
      <point x="484" y="410" type="line" smooth="yes"/>
      <point x="484" y="370" type="line" smooth="yes"/>
      <point x="478" y="266" type="line" smooth="yes"/>
      <point x="459" y="187" type="line" smooth="yes"/>
      <point x="424" y="134" type="line" smooth="yes"/>
    </contour>
    <contour>
      <point x="333" y="-13" type="line" smooth="yes"/>
      <point x="347" y="-13" type="line" smooth="yes"/>
      <point x="361" y="-12" type="line" smooth="yes"/>
      <point x="375" y="-11" type="line" smooth="yes"/>
      <point x="409" y="-100" type="line" smooth="yes"/>
      <point x="516" y="-100" type="line" smooth="yes"/>
      <point x="471" y="13" type="line" smooth="yes"/>
      <point x="555" y="83" type="line" smooth="yes"/>
      <point x="605" y="201" type="line" smooth="yes"/>
      <point x="621" y="370" type="line" smooth="yes"/>
      <point x="621" y="410" type="line" smooth="yes"/>
      <point x="590" y="629" type="line" smooth="yes"/>
      <point x="494" y="754" type="line" smooth="yes"/>
      <point x="333" y="793" type="line" smooth="yes"/>
      <point x="171" y="754" type="line" smooth="yes"/>
      <point x="75" y="629" type="line" smooth="yes"/>
      <point x="44" y="410" type="line" smooth="yes"/>
      <point x="44" y="370" type="line" smooth="yes"/>
      <point x="75" y="151" type="line" smooth="yes"/>
      <point x="171" y="26" type="line" smooth="yes"/>
    </contour>
  </outline>
</glyph>
<glyph name="R" format="1">
  <advance width="611"/>
  <unicode hex="0052"/>
  <outline>
    <contour>
      <point x="195" y="408" type="line" smooth="yes"/>
      <point x="195" y="663" type="line" smooth="yes"/>
      <point x="310" y="663" type="line" smooth="yes"/>
      <point x="364" y="654" type="line" smooth="yes"/>
      <point x="410" y="618" type="line" smooth="yes"/>
      <point x="430" y="541" type="line" smooth="yes"/>
      <point x="430" y="530" type="line" smooth="yes"/>
      <point x="410" y="453" type="line" smooth="yes"/>
      <point x="364" y="417" type="line" smooth="yes"/>
      <point x="310" y="408" type="line" smooth="yes"/>
    </contour>
    <contour>
      <point x="195" y="291" type="line" smooth="yes"/>
      <point x="309" y="291" type="line" smooth="yes"/>
      <point x="421" y="0" type="line" smooth="yes"/>
      <point x="566" y="0" type="line" smooth="yes"/>
      <point x="439" y="312" type="line" smooth="yes"/>
      <point x="503" y="352" type="line" smooth="yes"/>
      <point x="549" y="421" type="line" smooth="yes"/>
      <point x="566" y="526" type="line" smooth="yes"/>
      <point x="566" y="546" type="line" smooth="yes"/>
      <point x="525" y="695" type="line" smooth="yes"/>
      <point x="427" y="763" type="line" smooth="yes"/>
      <point x="305" y="780" type="line" smooth="yes"/>
      <point x="61" y="780" type="line" smooth="yes"/>
      <point x="61" y="0" type="line" smooth="yes"/>
      <point x="195" y="0" type="line" smooth="yes"/>
    </contour>
  </outline>
</glyph>
<glyph name="U" format="1">
  <advance width="655"/>
  <unicode hex="0055"/>
  <outline>
    <contour>
      <point x="328" y="-13" type="line" smooth="yes"/>
      <point x="486" y="15" type="line" smooth="yes"/>
      <point x="573" y="100" type="line" smooth="yes"/>
      <point x="599" y="245" type="line" smooth="yes"/>
      <point x="599" y="780" type="line" smooth="yes"/>
      <point x="465" y="780" type="line" smooth="yes"/>
      <point x="465" y="250" type="line" smooth="yes"/>
      <point x="452" y="166" type="line" smooth="yes"/>
      <point x="408" y="119" type="line" smooth="yes"/>
      <point x="328" y="104" type="line" smooth="yes"/>
      <point x="247" y="119" type="line" smooth="yes"/>
      <point x="203" y="166" type="line" smooth="yes"/>
      <point x="190" y="250" type="line" smooth="yes"/>
      <point x="190" y="780" type="line" smooth="yes"/>
      <point x="56" y="780" type="line" smooth="yes"/>
      <point x="56" y="245" type="line" smooth="yes"/>
      <point x="83" y="100" type="line" smooth="yes"/>
      <point x="169" y="15" type="line" smooth="yes"/>
    </contour>
  </outline>
</glyph>
<glyph name="bracketleft" format="1">
  <advance width="350"/>
  <unicode hex="005B"/>
  <outline>
    <contour>
      <point x="61" y="840" type="line" smooth="yes"/>
      <point x="61" y="-120" type="line" smooth="yes"/>
      <point x="315" y="-120" type="line" smooth="yes"/>
      <point x="315" y="-5" type="line" smooth="yes"/>
      <point x="191" y="-5" type="line" smooth="yes"/>
      <point x="191" y="725" type="line" smooth="yes"/>
      <point x="315" y="725" type="line" smooth="yes"/>
      <point x="315" y="840" type="line" smooth="yes"/>
    </contour>
  </outline>
</glyph>
<glyph name="bracketright" format="1">
  <advance width="350"/>
  <unicode hex="005D"/>
  <outline>
    <contour>
      <point x="290" y="-120" type="line" smooth="yes"/>
      <point x="290" y="840" type="line" smooth="yes"/>
      <point x="36" y="840" type="line" smooth="yes"/>
      <point x="36" y="725" type="line" smooth="yes"/>
      <point x="159" y="725" type="line" smooth="yes"/>
      <point x="159" y="-5" type="line" smooth="yes"/>
      <point x="36" y="-5" type="line" smooth="yes"/>
      <point x="36" y="-120" type="line" smooth="yes"/>
    </contour>
  </outline>
</glyph>
<glyph name="b" format="1">
  <advance width="563"/>
  <unicode hex="0062"/>
  <outline>
    <contour>
      <point x="187" y="369" type="line" smooth="yes"/>
      <point x="209" y="396" type="line" smooth="yes"/>
      <point x="243" y="420" type="line" smooth="yes"/>
      <point x="291" y="430" type="line" smooth="yes"/>
      <point x="351" y="412" type="line" smooth="yes"/>
      <point x="385" y="361" type="line" smooth="yes"/>
      <point x="396" y="281" type="line" smooth="yes"/>
      <point x="396" y="249" type="line" smooth="yes"/>
      <point x="385" y="169" type="line" smooth="yes"/>
      <point x="351" y="119" type="line" smooth="yes"/>
      <point x="291" y="101" type="line" smooth="yes"/>
      <point x="243" y="111" type="line" smooth="yes"/>
      <point x="209" y="134" type="line" smooth="yes"/>
      <point x="187" y="161" type="line" smooth="yes"/>
    </contour>
    <contour>
      <point x="187" y="800" type="line" smooth="yes"/>
      <point x="57" y="800" type="line" smooth="yes"/>
      <point x="57" y="150" type="line" smooth="yes"/>
      <point x="49" y="0" type="line" smooth="yes"/>
      <point x="164" y="0" type="line" smooth="yes"/>
      <point x="175" y="66" type="line" smooth="yes"/>
      <point x="211" y="26" type="line" smooth="yes"/>
      <point x="261" y="-3" type="line" smooth="yes"/>
      <point x="328" y="-13" type="line" smooth="yes"/>
      <point x="444" y="21" type="line" smooth="yes"/>
      <point x="507" y="114" type="line" smooth="yes"/>
      <point x="526" y="249" type="line" smooth="yes"/>
      <point x="526" y="281" type="line" smooth="yes"/>
      <point x="507" y="416" type="line" smooth="yes"/>
      <point x="444" y="509" type="line" smooth="yes"/>
      <point x="328" y="543" type="line" smooth="yes"/>
      <point x="269" y="535" type="line" smooth="yes"/>
      <point x="222" y="513" type="line" smooth="yes"/>
      <point x="187" y="481" type="line" smooth="yes"/>
    </contour>
  </outline>
</glyph>
<glyph name="e" format="1">
  <advance width="553"/>
  <unicode hex="0065"/>
  <outline>
    <contour>
      <point x="276" y="442" type="line" smooth="yes"/>
      <point x="335" y="427" type="line" smooth="yes"/>
      <point x="371" y="384" type="line" smooth="yes"/>
      <point x="385" y="313" type="line" smooth="yes"/>
      <point x="166" y="313" type="line" smooth="yes"/>
      <point x="181" y="384" type="line" smooth="yes"/>
      <point x="217" y="427" type="line" smooth="yes"/>
    </contour>
    <contour>
      <point x="516" y="217" type="line" smooth="yes"/>
      <point x="516" y="278" type="line" smooth="yes"/>
      <point x="491" y="414" type="line" smooth="yes"/>
      <point x="413" y="508" type="line" smooth="yes"/>
      <point x="279" y="543" type="line" smooth="yes"/>
      <point x="143" y="508" type="line" smooth="yes"/>
      <point x="63" y="414" type="line" smooth="yes"/>
      <point x="36" y="278" type="line" smooth="yes"/>
      <point x="36" y="252" type="line" smooth="yes"/>
      <point x="62" y="116" type="line" smooth="yes"/>
      <point x="144" y="22" type="line" smooth="yes"/>
      <point x="284" y="-13" type="line" smooth="yes"/>
      <point x="412" y="12" type="line" smooth="yes"/>
      <point x="490" y="77" type="line" smooth="yes"/>
      <point x="516" y="166" type="line" smooth="yes"/>
      <point x="516" y="170" type="line" smooth="yes"/>
      <point x="393" y="170" type="line" smooth="yes"/>
      <point x="381" y="131" type="line" smooth="yes"/>
      <point x="345" y="100" type="line" smooth="yes"/>
      <point x="285" y="88" type="line" smooth="yes"/>
      <point x="222" y="102" type="line" smooth="yes"/>
      <point x="183" y="145" type="line" smooth="yes"/>
      <point x="166" y="217" type="line" smooth="yes"/>
    </contour>
  </outline>
</glyph>
<glyph name="n" format="1">
  <advance width="563"/>
  <unicode hex="006E"/>
  <outline>
    <contour>
      <point x="511" y="0" type="line" smooth="yes"/>
      <point x="511" y="363" type="line" smooth="yes"/>
      <point x="495" y="452" type="line" smooth="yes"/>
      <point x="442" y="518" type="line" smooth="yes"/>
      <point x="348" y="543" type="line" smooth="yes"/>
      <point x="273" y="532" type="line" smooth="yes"/>
      <point x="217" y="503" type="line" smooth="yes"/>
      <point x="176" y="460" type="line" smooth="yes"/>
      <point x="164" y="530" type="line" smooth="yes"/>
      <point x="49" y="530" type="line" smooth="yes"/>
      <point x="58" y="380" type="line" smooth="yes"/>
      <point x="58" y="0" type="line" smooth="yes"/>
      <point x="188" y="0" type="line" smooth="yes"/>
      <point x="188" y="369" type="line" smooth="yes"/>
      <point x="210" y="396" type="line" smooth="yes"/>
      <point x="246" y="420" type="line" smooth="yes"/>
      <point x="298" y="430" type="line" smooth="yes"/>
      <point x="346" y="419" type="line" smooth="yes"/>
      <point x="373" y="387" type="line" smooth="yes"/>
      <point x="382" y="342" type="line" smooth="yes"/>
      <point x="382" y="0" type="line" smooth="yes"/>
    </contour>
  </outline>
</glyph>
<glyph name="q" format="1">
  <advance width="568"/>
  <unicode hex="0071"/>
  <outline>
    <contour>
      <point x="378" y="161" type="line" smooth="yes"/>
      <point x="356" y="134" type="line" smooth="yes"/>
      <point x="322" y="111" type="line" smooth="yes"/>
      <point x="273" y="101" type="line" smooth="yes"/>
      <point x="213" y="119" type="line" smooth="yes"/>
      <point x="179" y="169" type="line" smooth="yes"/>
      <point x="168" y="249" type="line" smooth="yes"/>
      <point x="168" y="281" type="line" smooth="yes"/>
      <point x="179" y="361" type="line" smooth="yes"/>
      <point x="213" y="412" type="line" smooth="yes"/>
      <point x="273" y="430" type="line" smooth="yes"/>
      <point x="322" y="420" type="line" smooth="yes"/>
      <point x="356" y="396" type="line" smooth="yes"/>
      <point x="378" y="369" type="line" smooth="yes"/>
    </contour>
    <contour>
      <point x="378" y="-200" type="line" smooth="yes"/>
      <point x="508" y="-200" type="line" smooth="yes"/>
      <point x="508" y="380" type="line" smooth="yes"/>
      <point x="516" y="530" type="line" smooth="yes"/>
      <point x="401" y="530" type="line" smooth="yes"/>
      <point x="390" y="463" type="line" smooth="yes"/>
      <point x="354" y="504" type="line" smooth="yes"/>
      <point x="304" y="532" type="line" smooth="yes"/>
      <point x="237" y="543" type="line" smooth="yes"/>
      <point x="121" y="509" type="line" smooth="yes"/>
      <point x="57" y="416" type="line" smooth="yes"/>
      <point x="38" y="281" type="line" smooth="yes"/>
      <point x="38" y="249" type="line" smooth="yes"/>
      <point x="57" y="114" type="line" smooth="yes"/>
      <point x="121" y="21" type="line" smooth="yes"/>
      <point x="237" y="-13" type="line" smooth="yes"/>
      <point x="296" y="-5" type="line" smooth="yes"/>
      <point x="343" y="17" type="line" smooth="yes"/>
      <point x="378" y="50" type="line" smooth="yes"/>
    </contour>
  </outline>
</glyph>
<glyph name="r" format="1">
  <advance width="368"/>
  <unicode hex="0072"/>
  <outline>
    <contour>
      <point x="318" y="543" type="line" smooth="yes"/>
      <point x="259" y="533" type="line" smooth="yes"/>
      <point x="211" y="506" type="line" smooth="yes"/>
      <point x="175" y="466" type="line" smooth="yes"/>
      <point x="164" y="530" type="line" smooth="yes"/>
      <point x="49" y="530" type="line" smooth="yes"/>
      <point x="58" y="380" type="line" smooth="yes"/>
      <point x="58" y="0" type="line" smooth="yes"/>
      <point x="188" y="0" type="line" smooth="yes"/>
      <point x="188" y="360" type="line" smooth="yes"/>
      <point x="211" y="385" type="line" smooth="yes"/>
      <point x="252" y="407" type="line" smooth="yes"/>
      <point x="311" y="416" type="line" smooth="yes"/>
      <point x="333" y="416" type="line" smooth="yes"/>
      <point x="333" y="542" type="line" smooth="yes"/>
      <point x="329" y="542" type="line" smooth="yes"/>
      <point x="324" y="543" type="line" smooth="yes"/>
    </contour>
  </outline>
</glyph>
<glyph name="s" format="1">
  <advance width="526"/>
  <unicode hex="0073"/>
  <outline>
    <contour>
      <point x="263" y="88" type="line" smooth="yes"/>
      <point x="208" y="99" type="line" smooth="yes"/>
      <point x="179" y="127" type="line" smooth="yes"/>
      <point x="171" y="166" type="line" smooth="yes"/>
      <point x="42" y="166" type="line" smooth="yes"/>
      <point x="42" y="162" type="line" smooth="yes"/>
      <point x="65" y="74" type="line" smooth="yes"/>
      <point x="138" y="11" type="line" smooth="yes"/>
      <point x="263" y="-13" type="line" smooth="yes"/>
      <point x="385" y="8" type="line" smooth="yes"/>
      <point x="459" y="68" type="line" smooth="yes"/>
      <point x="484" y="159" type="line" smooth="yes"/>
      <point x="484" y="166" type="line" smooth="yes"/>
      <point x="459" y="250" type="line" smooth="yes"/>
      <point x="388" y="295" type="line" smooth="yes"/>
      <point x="274" y="315" type="line" smooth="yes"/>
      <point x="214" y="326" type="line" smooth="yes"/>
      <point x="185" y="346" type="line" smooth="yes"/>
      <point x="177" y="379" type="line" smooth="yes"/>
      <point x="187" y="413" type="line" smooth="yes"/>
      <point x="216" y="434" type="line" smooth="yes"/>
      <point x="263" y="442" type="line" smooth="yes"/>
      <point x="314" y="432" type="line" smooth="yes"/>
      <point x="342" y="403" type="line" smooth="yes"/>
      <point x="351" y="357" type="line" smooth="yes"/>
      <point x="478" y="357" type="line" smooth="yes"/>
      <point x="478" y="362" type="line" smooth="yes"/>
      <point x="456" y="458" type="line" smooth="yes"/>
      <point x="386" y="521" type="line" smooth="yes"/>
      <point x="263" y="543" type="line" smooth="yes"/>
      <point x="152" y="525" type="line" smooth="yes"/>
      <point x="77" y="470" type="line" smooth="yes"/>
      <point x="49" y="376" type="line" smooth="yes"/>
      <point x="49" y="368" type="line" smooth="yes"/>
      <point x="69" y="291" type="line" smooth="yes"/>
      <point x="135" y="245" type="line" smooth="yes"/>
      <point x="253" y="222" type="line" smooth="yes"/>
      <point x="313" y="212" type="line" smooth="yes"/>
      <point x="344" y="191" type="line" smooth="yes"/>
      <point x="354" y="154" type="line" smooth="yes"/>
      <point x="344" y="120" type="line" smooth="yes"/>
      <point x="314" y="96" type="line" smooth="yes"/>
    </contour>
  </outline>
</glyph>
<glyph name="u" format="1">
  <advance width="563"/>
  <unicode hex="0075"/>
  <outline>
    <contour>
      <point x="52" y="530" type="line" smooth="yes"/>
      <point x="52" y="168" type="line" smooth="yes"/>
      <point x="68" y="78" type="line" smooth="yes"/>
      <point x="121" y="12" type="line" smooth="yes"/>
      <point x="215" y="-13" type="line" smooth="yes"/>
      <point x="290" y="-2" type="line" smooth="yes"/>
      <point x="346" y="27" type="line" smooth="yes"/>
      <point x="387" y="70" type="line" smooth="yes"/>
      <point x="399" y="0" type="line" smooth="yes"/>
      <point x="514" y="0" type="line" smooth="yes"/>
      <point x="506" y="150" type="line" smooth="yes"/>
      <point x="506" y="530" type="line" smooth="yes"/>
      <point x="376" y="530" type="line" smooth="yes"/>
      <point x="376" y="161" type="line" smooth="yes"/>
      <point x="354" y="134" type="line" smooth="yes"/>
      <point x="318" y="111" type="line" smooth="yes"/>
      <point x="266" y="101" type="line" smooth="yes"/>
      <point x="217" y="112" type="line" smooth="yes"/>
      <point x="190" y="143" type="line" smooth="yes"/>
      <point x="181" y="188" type="line" smooth="yes"/>
      <point x="181" y="530" type="line" smooth="yes"/>
    </contour>
  </outline>
</glyph>
<glyph name="v" format="1">
  <advance width="538"/>
  <unicode hex="0076"/>
  <outline>
    <contour>
      <point x="179" y="0" type="line" smooth="yes"/>
      <point x="359" y="0" type="line" smooth="yes"/>
      <point x="523" y="530" type="line" smooth="yes"/>
      <point x="388" y="530" type="line" smooth="yes"/>
      <point x="269" y="108" type="line" smooth="yes"/>
      <point x="150" y="530" type="line" smooth="yes"/>
      <point x="14" y="530" type="line" smooth="yes"/>
    </contour>
  </outline>
</glyph>
<glyph name="braceleft" format="1">
  <advance width="350"/>
  <unicode hex="007B"/>
  <outline>
    <contour>
      <point x="315" y="840" type="line" smooth="yes"/>
      <point x="290" y="840" type="line" smooth="yes"/>
      <point x="193" y="825" type="line" smooth="yes"/>
      <point x="127" y="773" type="line" smooth="yes"/>
      <point x="102" y="674" type="line" smooth="yes"/>
      <point x="102" y="501" type="line" smooth="yes"/>
      <point x="94" y="451" type="line" smooth="yes"/>
      <point x="68" y="426" type="line" smooth="yes"/>
      <point x="24" y="418" type="line" smooth="yes"/>
      <point x="24" y="302" type="line" smooth="yes"/>
      <point x="66" y="295" type="line" smooth="yes"/>
      <point x="92" y="271" type="line" smooth="yes"/>
      <point x="102" y="226" type="line" smooth="yes"/>
      <point x="102" y="46" type="line" smooth="yes"/>
      <point x="127" y="-53" type="line" smooth="yes"/>
      <point x="193" y="-105" type="line" smooth="yes"/>
      <point x="290" y="-120" type="line" smooth="yes"/>
      <point x="315" y="-120" type="line" smooth="yes"/>
      <point x="315" y="-5" type="line" smooth="yes"/>
      <point x="270" y="3" type="line" smooth="yes"/>
      <point x="242" y="32" type="line" smooth="yes"/>
      <point x="233" y="86" type="line" smooth="yes"/>
      <point x="233" y="248" type="line" smooth="yes"/>
      <point x="226" y="297" type="line" smooth="yes"/>
      <point x="206" y="334" type="line" smooth="yes"/>
      <point x="174" y="360" type="line" smooth="yes"/>
      <point x="206" y="385" type="line" smooth="yes"/>
      <point x="226" y="422" type="line" smooth="yes"/>
      <point x="233" y="472" type="line" smooth="yes"/>
      <point x="233" y="634" type="line" smooth="yes"/>
      <point x="242" y="688" type="line" smooth="yes"/>
      <point x="270" y="717" type="line" smooth="yes"/>
      <point x="315" y="725" type="line" smooth="yes"/>
    </contour>
  </outline>
</glyph>
<glyph name="braceright" format="1">
  <advance width="350"/>
  <unicode hex="007D"/>
  <outline>
    <contour>
      <point x="36" y="-120" type="line" smooth="yes"/>
      <point x="60" y="-120" type="line" smooth="yes"/>
      <point x="157" y="-105" type="line" smooth="yes"/>
      <point x="223" y="-53" type="line" smooth="yes"/>
      <point x="248" y="46" type="line" smooth="yes"/>
      <point x="248" y="226" type="line" smooth="yes"/>
      <point x="258" y="271" type="line" smooth="yes"/>
      <point x="284" y="295" type="line" smooth="yes"/>
      <point x="326" y="302" type="line" smooth="yes"/>
      <point x="326" y="418" type="line" smooth="yes"/>
      <point x="284" y="425" type="line" smooth="yes"/>
      <point x="258" y="449" type="line" smooth="yes"/>
      <point x="248" y="494" type="line" smooth="yes"/>
      <point x="248" y="674" type="line" smooth="yes"/>
      <point x="223" y="773" type="line" smooth="yes"/>
      <point x="157" y="825" type="line" smooth="yes"/>
      <point x="60" y="840" type="line" smooth="yes"/>
      <point x="36" y="840" type="line" smooth="yes"/>
      <point x="36" y="725" type="line" smooth="yes"/>
      <point x="81" y="717" type="line" smooth="yes"/>
      <point x="108" y="688" type="line" smooth="yes"/>
      <point x="117" y="634" type="line" smooth="yes"/>
      <point x="117" y="472" type="line" smooth="yes"/>
      <point x="124" y="422" type="line" smooth="yes"/>
      <point x="144" y="385" type="line" smooth="yes"/>
      <point x="175" y="360" type="line" smooth="yes"/>
      <point x="144" y="334" type="line" smooth="yes"/>
      <point x="124" y="297" type="line" smooth="yes"/>
      <point x="117" y="248" type="line" smooth="yes"/>
      <point x="117" y="86" type="line" smooth="yes"/>
      <point x="108" y="32" type="line" smooth="yes"/>
      <point x="81" y="3" type="line" smooth="yes"/>
      <point x="36" y="-5" type="line" smooth="yes"/>
    </contour>
  </outline>
</glyph>
<glyph name="asciitilde" format="1">
  <advance width="600"/>
  <unicode hex="007E"/>
  <outline>
    <contour>
      <point x="182" y="473" type="line" smooth="yes"/>
      <point x="118" y="460" type="line" smooth="yes"/>
      <point x="67" y="427" type="line" smooth="yes"/>
      <point x="31" y="384" type="line" smooth="yes"/>
      <point x="94" y="320" type="line" smooth="yes"/>
      <point x="116" y="342" type="line" smooth="yes"/>
      <point x="147" y="362" type="line" smooth="yes"/>
      <point x="186" y="371" type="line" smooth="yes"/>
      <point x="257" y="353" type="line" smooth="yes"/>
      <point x="329" y="321" type="line" smooth="yes"/>
      <point x="418" y="303" type="line" smooth="yes"/>
      <point x="482" y="316" type="line" smooth="yes"/>
      <point x="533" y="349" type="line" smooth="yes"/>
      <point x="569" y="392" type="line" smooth="yes"/>
      <point x="506" y="456" type="line" smooth="yes"/>
      <point x="484" y="434" type="line" smooth="yes"/>
      <point x="453" y="414" type="line" smooth="yes"/>
      <point x="414" y="405" type="line" smooth="yes"/>
      <point x="343" y="423" type="line" smooth="yes"/>
      <point x="271" y="455" type="line" smooth="yes"/>
    </contour>
  </outline>
</glyph>
<glyph name="cent" format="1">
  <advance width="600"/>
  <unicode hex="00A2"/>
  <outline>
    <contour>
      <point x="180" y="373" type="line" smooth="yes"/>
      <point x="180" y="407" type="line" smooth="yes"/>
      <point x="192" y="516" type="line" smooth="yes"/>
      <point x="230" y="585" type="line" smooth="yes"/>
      <point x="298" y="613" type="line" smooth="yes"/>
      <point x="205" y="227" type="line" smooth="yes"/>
      <point x="191" y="266" type="line" smooth="yes"/>
      <point x="182" y="315" type="line" smooth="yes"/>
    </contour>
    <contour>
      <point x="454" y="840" type="line" smooth="yes"/>
      <point x="352" y="840" type="line" smooth="yes"/>
      <point x="325" y="730" type="line" smooth="yes"/>
      <point x="309" y="730" type="line" smooth="yes"/>
      <point x="161" y="693" type="line" smooth="yes"/>
      <point x="74" y="585" type="line" smooth="yes"/>
      <point x="46" y="407" type="line" smooth="yes"/>
      <point x="46" y="373" type="line" smooth="yes"/>
      <point x="60" y="243" type="line" smooth="yes"/>
      <point x="101" y="146" type="line" smooth="yes"/>
      <point x="171" y="83" type="line" smooth="yes"/>
      <point x="137" y="-60" type="line" smooth="yes"/>
      <point x="239" y="-60" type="line" smooth="yes"/>
      <point x="266" y="54" type="line" smooth="yes"/>
      <point x="280" y="53" type="line" smooth="yes"/>
      <point x="294" y="52" type="line" smooth="yes"/>
      <point x="309" y="52" type="line" smooth="yes"/>
      <point x="446" y="78" type="line" smooth="yes"/>
      <point x="527" y="154" type="line" smooth="yes"/>
      <point x="554" y="275" type="line" smooth="yes"/>
      <point x="554" y="291" type="line" smooth="yes"/>
      <point x="424" y="291" type="line" smooth="yes"/>
      <point x="413" y="226" type="line" smooth="yes"/>
      <point x="378" y="183" type="line" smooth="yes"/>
      <point x="314" y="167" type="line" smooth="yes"/>
      <point x="293" y="167" type="line" smooth="yes"/>
      <point x="393" y="584" type="line" smooth="yes"/>
      <point x="411" y="555" type="line" smooth="yes"/>
      <point x="421" y="517" type="line" smooth="yes"/>
      <point x="424" y="470" type="line" smooth="yes"/>
      <point x="554" y="470" type="line" smooth="yes"/>
      <point x="554" y="497" type="line" smooth="yes"/>
      <point x="540" y="594" type="line" smooth="yes"/>
      <point x="496" y="666" type="line" smooth="yes"/>
      <point x="423" y="712" type="line" smooth="yes"/>
    </contour>
  </outline>
</glyph>
<glyph name="sterling" format="1">
  <advance width="600"/>
  <unicode hex="00A3"/>
  <outline>
    <contour>
      <point x="324" y="677" type="line" smooth="yes"/>
      <point x="381" y="656" type="line" smooth="yes"/>
      <point x="413" y="595" type="line" smooth="yes"/>
      <point x="423" y="500" type="line" smooth="yes"/>
      <point x="554" y="500" type="line" smooth="yes"/>
      <point x="554" y="516" type="line" smooth="yes"/>
      <point x="532" y="666" type="line" smooth="yes"/>
      <point x="459" y="760" type="line" smooth="yes"/>
      <point x="324" y="793" type="line" smooth="yes"/>
      <point x="193" y="762" type="line" smooth="yes"/>
      <point x="121" y="685" type="line" smooth="yes"/>
      <point x="100" y="581" type="line" smooth="yes"/>
      <point x="103" y="527" type="line" smooth="yes"/>
      <point x="109" y="477" type="line" smooth="yes"/>
      <point x="120" y="429" type="line" smooth="yes"/>
      <point x="47" y="429" type="line" smooth="yes"/>
      <point x="47" y="314" type="line" smooth="yes"/>
      <point x="155" y="314" type="line" smooth="yes"/>
      <point x="175" y="251" type="line" smooth="yes"/>
      <point x="192" y="186" type="line" smooth="yes"/>
      <point x="204" y="116" type="line" smooth="yes"/>
      <point x="47" y="116" type="line" smooth="yes"/>
      <point x="47" y="0" type="line" smooth="yes"/>
      <point x="553" y="0" type="line" smooth="yes"/>
      <point x="553" y="116" type="line" smooth="yes"/>
      <point x="319" y="116" type="line" smooth="yes"/>
      <point x="312" y="186" type="line" smooth="yes"/>
      <point x="300" y="252" type="line" smooth="yes"/>
      <point x="286" y="314" type="line" smooth="yes"/>
      <point x="438" y="314" type="line" smooth="yes"/>
      <point x="438" y="429" type="line" smooth="yes"/>
      <point x="255" y="429" type="line" smooth="yes"/>
      <point x="243" y="478" type="line" smooth="yes"/>
      <point x="235" y="525" type="line" smooth="yes"/>
      <point x="232" y="570" type="line" smooth="yes"/>
      <point x="241" y="627" type="line" smooth="yes"/>
      <point x="271" y="664" type="line" smooth="yes"/>
    </contour>
  </outline>
</glyph>
<glyph name="section" format="1">
  <advance width="538"/>
  <unicode hex="00A7"/>
  <outline>
    <contour>
      <point x="372" y="390" type="line" smooth="yes"/>
      <point x="361" y="350" type="line" smooth="yes"/>
      <point x="328" y="324" type="line" smooth="yes"/>
      <point x="273" y="314" type="line" smooth="yes"/>
      <point x="271" y="314" type="line" smooth="yes"/>
      <point x="210" y="324" type="line" smooth="yes"/>
      <point x="176" y="349" type="line" smooth="yes"/>
      <point x="165" y="390" type="line" smooth="yes"/>
      <point x="176" y="430" type="line" smooth="yes"/>
      <point x="209" y="456" type="line" smooth="yes"/>
      <point x="265" y="466" type="line" smooth="yes"/>
      <point x="267" y="466" type="line" smooth="yes"/>
      <point x="328" y="456" type="line" smooth="yes"/>
      <point x="361" y="431" type="line" smooth="yes"/>
    </contour>
    <contour>
      <point x="503" y="392" type="line" smooth="yes"/>
      <point x="503" y="400" type="line" smooth="yes"/>
      <point x="478" y="489" type="line" smooth="yes"/>
      <point x="407" y="538" type="line" smooth="yes"/>
      <point x="293" y="559" type="line" smooth="yes"/>
      <point x="233" y="571" type="line" smooth="yes"/>
      <point x="204" y="595" type="line" smooth="yes"/>
      <point x="196" y="629" type="line" smooth="yes"/>
      <point x="206" y="663" type="line" smooth="yes"/>
      <point x="235" y="684" type="line" smooth="yes"/>
      <point x="282" y="692" type="line" smooth="yes"/>
      <point x="333" y="682" type="line" smooth="yes"/>
      <point x="361" y="652" type="line" smooth="yes"/>
      <point x="369" y="607" type="line" smooth="yes"/>
      <point x="497" y="607" type="line" smooth="yes"/>
      <point x="497" y="611" type="line" smooth="yes"/>
      <point x="475" y="708" type="line" smooth="yes"/>
      <point x="405" y="770" type="line" smooth="yes"/>
      <point x="282" y="793" type="line" smooth="yes"/>
      <point x="171" y="775" type="line" smooth="yes"/>
      <point x="95" y="720" type="line" smooth="yes"/>
      <point x="67" y="626" type="line" smooth="yes"/>
      <point x="67" y="618" type="line" smooth="yes"/>
      <point x="71" y="577" type="line" smooth="yes"/>
      <point x="85" y="543" type="line" smooth="yes"/>
      <point x="109" y="514" type="line" smooth="yes"/>
      <point x="68" y="483" type="line" smooth="yes"/>
      <point x="43" y="441" type="line" smooth="yes"/>
      <point x="34" y="388" type="line" smooth="yes"/>
      <point x="34" y="380" type="line" smooth="yes"/>
      <point x="59" y="291" type="line" smooth="yes"/>
      <point x="131" y="242" type="line" smooth="yes"/>
      <point x="245" y="221" type="line" smooth="yes"/>
      <point x="305" y="209" type="line" smooth="yes"/>
      <point x="334" y="185" type="line" smooth="yes"/>
      <point x="342" y="151" type="line" smooth="yes"/>
      <point x="332" y="117" type="line" smooth="yes"/>
      <point x="303" y="96" type="line" smooth="yes"/>
      <point x="256" y="88" type="line" smooth="yes"/>
      <point x="205" y="98" type="line" smooth="yes"/>
      <point x="177" y="128" type="line" smooth="yes"/>
      <point x="168" y="173" type="line" smooth="yes"/>
      <point x="41" y="173" type="line" smooth="yes"/>
      <point x="41" y="169" type="line" smooth="yes"/>
      <point x="63" y="72" type="line" smooth="yes"/>
      <point x="132" y="10" type="line" smooth="yes"/>
      <point x="256" y="-13" type="line" smooth="yes"/>
      <point x="367" y="5" type="line" smooth="yes"/>
      <point x="442" y="60" type="line" smooth="yes"/>
      <point x="470" y="154" type="line" smooth="yes"/>
      <point x="470" y="162" type="line" smooth="yes"/>
      <point x="465" y="202" type="line" smooth="yes"/>
      <point x="451" y="237" type="line" smooth="yes"/>
      <point x="428" y="265" type="line" smooth="yes"/>
      <point x="469" y="296" type="line" smooth="yes"/>
      <point x="494" y="338" type="line" smooth="yes"/>
    </contour>
  </outline>
</glyph>
<glyph name="dieresis" format="1">
  <advance width="500"/>
  <unicode hex="00A8"/>
  <outline>
    <contour>
      <point x="421" y="763" type="line" smooth="yes"/>
      <point x="279" y="763" type="line" smooth="yes"/>
      <point x="279" y="622" type="line" smooth="yes"/>
      <point x="421" y="622" type="line" smooth="yes"/>
    </contour>
    <contour>
      <point x="221" y="763" type="line" smooth="yes"/>
      <point x="79" y="763" type="line" smooth="yes"/>
      <point x="79" y="622" type="line" smooth="yes"/>
      <point x="221" y="622" type="line" smooth="yes"/>
    </contour>
  </outline>
</glyph>
<glyph name="ordfeminine" format="1">
  <advance width="416"/>
  <unicode hex="00AA"/>
  <outline>
    <contour>
      <point x="193" y="470" type="line" smooth="yes"/>
      <point x="165" y="476" type="line" smooth="yes"/>
      <point x="150" y="491" type="line" smooth="yes"/>
      <point x="145" y="512" type="line" smooth="yes"/>
      <point x="145" y="517" type="line" smooth="yes"/>
      <point x="151" y="539" type="line" smooth="yes"/>
      <point x="167" y="556" type="line" smooth="yes"/>
      <point x="195" y="566" type="line" smooth="yes"/>
      <point x="266" y="577" type="line" smooth="yes"/>
      <point x="266" y="502" type="line" smooth="yes"/>
      <point x="249" y="487" type="line" smooth="yes"/>
      <point x="225" y="475" type="line" smooth="yes"/>
    </contour>
    <contour>
      <point x="385" y="191" type="line" smooth="yes"/>
      <point x="385" y="290" type="line" smooth="yes"/>
      <point x="42" y="290" type="line" smooth="yes"/>
      <point x="42" y="191" type="line" smooth="yes"/>
    </contour>
    <contour>
      <point x="285" y="387" type="line" smooth="yes"/>
      <point x="387" y="387" type="line" smooth="yes"/>
      <point x="380" y="499" type="line" smooth="yes"/>
      <point x="380" y="642" type="line" smooth="yes"/>
      <point x="365" y="723" type="line" smooth="yes"/>
      <point x="313" y="775" type="line" smooth="yes"/>
      <point x="213" y="793" type="line" smooth="yes"/>
      <point x="112" y="773" type="line" smooth="yes"/>
      <point x="61" y="724" type="line" smooth="yes"/>
      <point x="46" y="659" type="line" smooth="yes"/>
      <point x="46" y="652" type="line" smooth="yes"/>
      <point x="154" y="652" type="line" smooth="yes"/>
      <point x="159" y="678" type="line" smooth="yes"/>
      <point x="175" y="698" type="line" smooth="yes"/>
      <point x="210" y="706" type="line" smooth="yes"/>
      <point x="243" y="699" type="line" smooth="yes"/>
      <point x="260" y="679" type="line" smooth="yes"/>
      <point x="266" y="644" type="line" smooth="yes"/>
      <point x="173" y="630" type="line" smooth="yes"/>
      <point x="100" y="610" type="line" smooth="yes"/>
      <point x="50" y="571" type="line" smooth="yes"/>
      <point x="31" y="503" type="line" smooth="yes"/>
      <point x="31" y="496" type="line" smooth="yes"/>
      <point x="43" y="437" type="line" smooth="yes"/>
      <point x="82" y="394" type="line" smooth="yes"/>
      <point x="153" y="378" type="line" smooth="yes"/>
      <point x="204" y="385" type="line" smooth="yes"/>
      <point x="246" y="403" type="line" smooth="yes"/>
      <point x="277" y="431" type="line" smooth="yes"/>
    </contour>
  </outline>
</glyph>
<glyph name="guillemotleft" format="1">
  <advance width="550"/>
  <unicode hex="00AB"/>
  <outline>
    <contour>
      <point x="500" y="551" type="line" smooth="yes"/>
      <point x="288" y="402" type="line" smooth="yes"/>
      <point x="288" y="278" type="line" smooth="yes"/>
      <point x="500" y="129" type="line" smooth="yes"/>
      <point x="500" y="246" type="line" smooth="yes"/>
      <point x="378" y="340" type="line" smooth="yes"/>
      <point x="500" y="434" type="line" smooth="yes"/>
    </contour>
    <contour>
      <point x="263" y="551" type="line" smooth="yes"/>
      <point x="50" y="402" type="line" smooth="yes"/>
      <point x="50" y="278" type="line" smooth="yes"/>
      <point x="263" y="129" type="line" smooth="yes"/>
      <point x="263" y="246" type="line" smooth="yes"/>
      <point x="141" y="340" type="line" smooth="yes"/>
      <point x="263" y="434" type="line" smooth="yes"/>
    </contour>
  </outline>
</glyph>
<glyph name="registered" format="1">
  <advance width="330"/>
  <unicode hex="00AE"/>
  <outline>
    <contour>
      <point x="189" y="694" type="line" smooth="yes"/>
      <point x="189" y="692" type="line" smooth="yes"/>
      <point x="186" y="680" type="line" smooth="yes"/>
      <point x="178" y="674" type="line" smooth="yes"/>
      <point x="167" y="672" type="line" smooth="yes"/>
      <point x="141" y="672" type="line" smooth="yes"/>
      <point x="141" y="714" type="line" smooth="yes"/>
      <point x="167" y="714" type="line" smooth="yes"/>
      <point x="178" y="712" type="line" smooth="yes"/>
      <point x="186" y="706" type="line" smooth="yes"/>
    </contour>
    <contour>
      <point x="238" y="690" type="line" smooth="yes"/>
      <point x="238" y="696" type="line" smooth="yes"/>
      <point x="229" y="728" type="line" smooth="yes"/>
      <point x="207" y="746" type="line" smooth="yes"/>
      <point x="178" y="751" type="line" smooth="yes"/>
      <point x="92" y="751" type="line" smooth="yes"/>
      <point x="92" y="579" type="line" smooth="yes"/>
      <point x="141" y="579" type="line" smooth="yes"/>
      <point x="141" y="635" type="line" smooth="yes"/>
      <point x="164" y="635" type="line" smooth="yes"/>
      <point x="187" y="579" type="line" smooth="yes"/>
      <point x="238" y="579" type="line" smooth="yes"/>
      <point x="209" y="640" type="line" smooth="yes"/>
      <point x="224" y="651" type="line" smooth="yes"/>
      <point x="234" y="667" type="line" smooth="yes"/>
    </contour>
    <contour>
      <point x="41" y="665" type="line" smooth="yes"/>
      <point x="58" y="727" type="line" smooth="yes"/>
      <point x="103" y="772" type="line" smooth="yes"/>
      <point x="165" y="789" type="line" smooth="yes"/>
      <point x="227" y="772" type="line" smooth="yes"/>
      <point x="272" y="727" type="line" smooth="yes"/>
      <point x="289" y="665" type="line" smooth="yes"/>
      <point x="272" y="603" type="line" smooth="yes"/>
      <point x="227" y="558" type="line" smooth="yes"/>
      <point x="165" y="541" type="line" smooth="yes"/>
      <point x="103" y="558" type="line" smooth="yes"/>
      <point x="58" y="603" type="line" smooth="yes"/>
    </contour>
    <contour>
      <point x="17" y="665" type="line" smooth="yes"/>
      <point x="37" y="591" type="line" smooth="yes"/>
      <point x="91" y="537" type="line" smooth="yes"/>
      <point x="165" y="517" type="line" smooth="yes"/>
      <point x="239" y="537" type="line" smooth="yes"/>
      <point x="293" y="591" type="line" smooth="yes"/>
      <point x="313" y="665" type="line" smooth="yes"/>
      <point x="293" y="739" type="line" smooth="yes"/>
      <point x="239" y="793" type="line" smooth="yes"/>
      <point x="165" y="813" type="line" smooth="yes"/>
      <point x="91" y="793" type="line" smooth="yes"/>
      <point x="37" y="739" type="line" smooth="yes"/>
    </contour>
  </outline>
</glyph>
<glyph name="degree" format="1">
  <advance width="400"/>
  <unicode hex="00B0"/>
  <outline>
    <contour>
      <point x="359" y="634" type="line" smooth="yes"/>
      <point x="338" y="719" type="line" smooth="yes"/>
      <point x="282" y="774" type="line" smooth="yes"/>
      <point x="200" y="793" type="line" smooth="yes"/>
      <point x="118" y="774" type="line" smooth="yes"/>
      <point x="62" y="719" type="line" smooth="yes"/>
      <point x="41" y="634" type="line" smooth="yes"/>
      <point x="41" y="630" type="line" smooth="yes"/>
      <point x="62" y="545" type="line" smooth="yes"/>
      <point x="118" y="491" type="line" smooth="yes"/>
      <point x="200" y="472" type="line" smooth="yes"/>
      <point x="282" y="491" type="line" smooth="yes"/>
      <point x="338" y="545" type="line" smooth="yes"/>
      <point x="359" y="630" type="line" smooth="yes"/>
    </contour>
    <contour>
      <point x="277" y="629" type="line" smooth="yes"/>
      <point x="267" y="589" type="line" smooth="yes"/>
      <point x="240" y="564" type="line" smooth="yes"/>
      <point x="202" y="555" type="line" smooth="yes"/>
      <point x="198" y="555" type="line" smooth="yes"/>
      <point x="160" y="564" type="line" smooth="yes"/>
      <point x="133" y="589" type="line" smooth="yes"/>
      <point x="123" y="629" type="line" smooth="yes"/>
      <point x="123" y="635" type="line" smooth="yes"/>
      <point x="133" y="675" type="line" smooth="yes"/>
      <point x="160" y="700" type="line" smooth="yes"/>
      <point x="198" y="709" type="line" smooth="yes"/>
      <point x="202" y="709" type="line" smooth="yes"/>
      <point x="240" y="700" type="line" smooth="yes"/>
      <point x="267" y="675" type="line" smooth="yes"/>
      <point x="277" y="635" type="line" smooth="yes"/>
    </contour>
  </outline>
</glyph>
<glyph name="twosuperior" format="1">
  <advance width="300"/>
  <unicode hex="00B2"/>
  <outline>
    <contour>
      <point x="281" y="476" type="line" smooth="yes"/>
      <point x="157" y="476" type="line" smooth="yes"/>
      <point x="238" y="565" type="line" smooth="yes"/>
      <point x="261" y="594" type="line" smooth="yes"/>
      <point x="276" y="625" type="line" smooth="yes"/>
      <point x="281" y="666" type="line" smooth="yes"/>
      <point x="281" y="677" type="line" smooth="yes"/>
      <point x="270" y="726" type="line" smooth="yes"/>
      <point x="229" y="769" type="line" smooth="yes"/>
      <point x="150" y="787" type="line" smooth="yes"/>
      <point x="76" y="773" type="line" smooth="yes"/>
      <point x="33" y="730" type="line" smooth="yes"/>
      <point x="19" y="659" type="line" smooth="yes"/>
      <point x="19" y="650" type="line" smooth="yes"/>
      <point x="119" y="650" type="line" smooth="yes"/>
      <point x="123" y="680" type="line" smooth="yes"/>
      <point x="133" y="695" type="line" smooth="yes"/>
      <point x="147" y="700" type="line" smooth="yes"/>
      <point x="152" y="700" type="line" smooth="yes"/>
      <point x="167" y="696" type="line" smooth="yes"/>
      <point x="177" y="682" type="line" smooth="yes"/>
      <point x="181" y="658" type="line" smooth="yes"/>
      <point x="181" y="653" type="line" smooth="yes"/>
      <point x="178" y="637" type="line" smooth="yes"/>
      <point x="172" y="624" type="line" smooth="yes"/>
      <point x="161" y="612" type="line" smooth="yes"/>
      <point x="19" y="453" type="line" smooth="yes"/>
      <point x="19" y="390" type="line" smooth="yes"/>
      <point x="281" y="390" type="line" smooth="yes"/>
    </contour>
  </outline>
</glyph>
<glyph name="threesuperior" format="1">
  <advance width="300"/>
  <unicode hex="00B3"/>
  <outline>
    <contour>
      <point x="116" y="515" type="line" smooth="yes"/>
      <point x="16" y="515" type="line" smooth="yes"/>
      <point x="16" y="507" type="line" smooth="yes"/>
      <point x="31" y="439" type="line" smooth="yes"/>
      <point x="76" y="397" type="line" smooth="yes"/>
      <point x="150" y="382" type="line" smooth="yes"/>
      <point x="230" y="402" type="line" smooth="yes"/>
      <point x="271" y="447" type="line" smooth="yes"/>
      <point x="283" y="496" type="line" smooth="yes"/>
      <point x="283" y="506" type="line" smooth="yes"/>
      <point x="277" y="542" type="line" smooth="yes"/>
      <point x="262" y="569" type="line" smooth="yes"/>
      <point x="240" y="589" type="line" smooth="yes"/>
      <point x="261" y="609" type="line" smooth="yes"/>
      <point x="275" y="636" type="line" smooth="yes"/>
      <point x="281" y="672" type="line" smooth="yes"/>
      <point x="281" y="682" type="line" smooth="yes"/>
      <point x="270" y="727" type="line" smooth="yes"/>
      <point x="229" y="769" type="line" smooth="yes"/>
      <point x="150" y="787" type="line" smooth="yes"/>
      <point x="76" y="773" type="line" smooth="yes"/>
      <point x="33" y="730" type="line" smooth="yes"/>
      <point x="19" y="659" type="line" smooth="yes"/>
      <point x="19" y="650" type="line" smooth="yes"/>
      <point x="119" y="650" type="line" smooth="yes"/>
      <point x="123" y="680" type="line" smooth="yes"/>
      <point x="133" y="695" type="line" smooth="yes"/>
      <point x="147" y="700" type="line" smooth="yes"/>
      <point x="152" y="700" type="line" smooth="yes"/>
      <point x="167" y="696" type="line" smooth="yes"/>
      <point x="177" y="686" type="line" smooth="yes"/>
      <point x="181" y="671" type="line" smooth="yes"/>
      <point x="181" y="665" type="line" smooth="yes"/>
      <point x="178" y="647" type="line" smooth="yes"/>
      <point x="168" y="637" type="line" smooth="yes"/>
      <point x="151" y="633" type="line" smooth="yes"/>
      <point x="100" y="633" type="line" smooth="yes"/>
      <point x="100" y="545" type="line" smooth="yes"/>
      <point x="152" y="545" type="line" smooth="yes"/>
      <point x="170" y="541" type="line" smooth="yes"/>
      <point x="180" y="531" type="line" smooth="yes"/>
      <point x="184" y="513" type="line" smooth="yes"/>
      <point x="184" y="508" type="line" smooth="yes"/>
      <point x="179" y="486" type="line" smooth="yes"/>
      <point x="168" y="473" type="line" smooth="yes"/>
      <point x="152" y="469" type="line" smooth="yes"/>
      <point x="147" y="469" type="line" smooth="yes"/>
      <point x="132" y="473" type="line" smooth="yes"/>
      <point x="121" y="487" type="line" smooth="yes"/>
    </contour>
  </outline>
</glyph>
<glyph name="paragraph" format="1">
  <advance width="538"/>
  <unicode hex="00B6"/>
  <outline>
    <contour>
      <point x="163" y="530" type="line" smooth="yes"/>
      <point x="163" y="541" type="line" smooth="yes"/>
      <point x="173" y="601" type="line" smooth="yes"/>
      <point x="200" y="638" type="line" smooth="yes"/>
      <point x="236" y="656" type="line" smooth="yes"/>
      <point x="236" y="414" type="line" smooth="yes"/>
      <point x="200" y="433" type="line" smooth="yes"/>
      <point x="173" y="469" type="line" smooth="yes"/>
    </contour>
    <contour>
      <point x="236" y="0" type="line" smooth="yes"/>
      <point x="300" y="0" type="line" smooth="yes"/>
      <point x="300" y="663" type="line" smooth="yes"/>
      <point x="346" y="663" type="line" smooth="yes"/>
      <point x="346" y="0" type="line" smooth="yes"/>
      <point x="480" y="0" type="line" smooth="yes"/>
      <point x="480" y="780" type="line" smooth="yes"/>
      <point x="288" y="780" type="line" smooth="yes"/>
      <point x="166" y="763" type="line" smooth="yes"/>
      <point x="68" y="695" type="line" smooth="yes"/>
      <point x="27" y="546" type="line" smooth="yes"/>
      <point x="27" y="526" type="line" smooth="yes"/>
      <point x="57" y="392" type="line" smooth="yes"/>
      <point x="134" y="320" type="line" smooth="yes"/>
      <point x="236" y="293" type="line" smooth="yes"/>
    </contour>
  </outline>
</glyph>
<glyph name="cedilla" format="1">
  <advance width="602"/>
  <unicode hex="00B8"/>
  <outline>
    <contour>
      <point x="150" y="-190" type="line" smooth="yes"/>
      <point x="175" y="-202" type="line" smooth="yes"/>
      <point x="210" y="-211" type="line" smooth="yes"/>
      <point x="252" y="-214" type="line" smooth="yes"/>
      <point x="314" y="-205" type="line" smooth="yes"/>
      <point x="353" y="-176" type="line" smooth="yes"/>
      <point x="366" y="-129" type="line" smooth="yes"/>
      <point x="352" y="-83" type="line" smooth="yes"/>
      <point x="315" y="-55" type="line" smooth="yes"/>
      <point x="266" y="-45" type="line" smooth="yes"/>
      <point x="283" y="0" type="line" smooth="yes"/>
      <point x="217" y="0" type="line" smooth="yes"/>
      <point x="188" y="-75" type="line" smooth="yes"/>
      <point x="205" y="-101" type="line" smooth="yes"/>
      <point x="210" y="-100" type="line" smooth="yes"/>
      <point x="223" y="-98" type="line" smooth="yes"/>
      <point x="239" y="-97" type="line" smooth="yes"/>
      <point x="268" y="-100" type="line" smooth="yes"/>
      <point x="286" y="-108" type="line" smooth="yes"/>
      <point x="292" y="-122" type="line" smooth="yes"/>
      <point x="287" y="-136" type="line" smooth="yes"/>
      <point x="270" y="-144" type="line" smooth="yes"/>
      <point x="241" y="-147" type="line" smooth="yes"/>
      <point x="215" y="-145" type="line" smooth="yes"/>
      <point x="190" y="-140" type="line" smooth="yes"/>
      <point x="170" y="-131" type="line" smooth="yes"/>
    </contour>
  </outline>
</glyph>
<glyph name="ordmasculine" format="1">
  <advance width="435"/>
  <unicode hex="00BA"/>
  <outline>
    <contour>
      <point x="148" y="572" type="line" smooth="yes"/>
      <point x="148" y="599" type="line" smooth="yes"/>
      <point x="155" y="650" type="line" smooth="yes"/>
      <point x="178" y="683" type="line" smooth="yes"/>
      <point x="218" y="694" type="line" smooth="yes"/>
      <point x="257" y="683" type="line" smooth="yes"/>
      <point x="280" y="650" type="line" smooth="yes"/>
      <point x="287" y="599" type="line" smooth="yes"/>
      <point x="287" y="572" type="line" smooth="yes"/>
      <point x="280" y="520" type="line" smooth="yes"/>
      <point x="257" y="488" type="line" smooth="yes"/>
      <point x="218" y="476" type="line" smooth="yes"/>
      <point x="178" y="488" type="line" smooth="yes"/>
      <point x="155" y="520" type="line" smooth="yes"/>
    </contour>
    <contour>
      <point x="43" y="191" type="line" smooth="yes"/>
      <point x="393" y="191" type="line" smooth="yes"/>
      <point x="393" y="290" type="line" smooth="yes"/>
      <point x="43" y="290" type="line" smooth="yes"/>
    </contour>
    <contour>
      <point x="401" y="572" type="line" smooth="yes"/>
      <point x="401" y="599" type="line" smooth="yes"/>
      <point x="382" y="700" type="line" smooth="yes"/>
      <point x="321" y="768" type="line" smooth="yes"/>
      <point x="218" y="793" type="line" smooth="yes"/>
      <point x="114" y="768" type="line" smooth="yes"/>
      <point x="53" y="700" type="line" smooth="yes"/>
      <point x="34" y="599" type="line" smooth="yes"/>
      <point x="34" y="572" type="line" smooth="yes"/>
      <point x="53" y="471" type="line" smooth="yes"/>
      <point x="114" y="403" type="line" smooth="yes"/>
      <point x="218" y="378" type="line" smooth="yes"/>
      <point x="321" y="403" type="line" smooth="yes"/>
      <point x="382" y="471" type="line" smooth="yes"/>
    </contour>
  </outline>
</glyph>
<glyph name="onehalf" format="1">
  <advance width="800"/>
  <unicode hex="00BD"/>
  <outline>
    <contour>
      <point x="287" y="390" type="line" smooth="yes"/>
      <point x="287" y="476" type="line" smooth="yes"/>
      <point x="209" y="476" type="line" smooth="yes"/>
      <point x="209" y="779" type="line" smooth="yes"/>
      <point x="133" y="779" type="line" smooth="yes"/>
      <point x="11" y="697" type="line" smooth="yes"/>
      <point x="61" y="626" type="line" smooth="yes"/>
      <point x="109" y="658" type="line" smooth="yes"/>
      <point x="109" y="476" type="line" smooth="yes"/>
      <point x="30" y="476" type="line" smooth="yes"/>
      <point x="30" y="390" type="line" smooth="yes"/>
    </contour>
    <contour>
      <point x="781" y="86" type="line" smooth="yes"/>
      <point x="657" y="86" type="line" smooth="yes"/>
      <point x="738" y="175" type="line" smooth="yes"/>
      <point x="761" y="204" type="line" smooth="yes"/>
      <point x="776" y="235" type="line" smooth="yes"/>
      <point x="781" y="276" type="line" smooth="yes"/>
      <point x="781" y="287" type="line" smooth="yes"/>
      <point x="770" y="336" type="line" smooth="yes"/>
      <point x="729" y="379" type="line" smooth="yes"/>
      <point x="650" y="397" type="line" smooth="yes"/>
      <point x="576" y="383" type="line" smooth="yes"/>
      <point x="533" y="340" type="line" smooth="yes"/>
      <point x="519" y="269" type="line" smooth="yes"/>
      <point x="519" y="260" type="line" smooth="yes"/>
      <point x="619" y="260" type="line" smooth="yes"/>
      <point x="623" y="290" type="line" smooth="yes"/>
      <point x="633" y="305" type="line" smooth="yes"/>
      <point x="647" y="310" type="line" smooth="yes"/>
      <point x="652" y="310" type="line" smooth="yes"/>
      <point x="667" y="306" type="line" smooth="yes"/>
      <point x="677" y="292" type="line" smooth="yes"/>
      <point x="681" y="268" type="line" smooth="yes"/>
      <point x="681" y="263" type="line" smooth="yes"/>
      <point x="678" y="247" type="line" smooth="yes"/>
      <point x="672" y="234" type="line" smooth="yes"/>
      <point x="661" y="222" type="line" smooth="yes"/>
      <point x="519" y="63" type="line" smooth="yes"/>
      <point x="519" y="0" type="line" smooth="yes"/>
      <point x="781" y="0" type="line" smooth="yes"/>
    </contour>
    <contour>
      <point x="164" y="0" type="line" smooth="yes"/>
      <point x="740" y="780" type="line" smooth="yes"/>
      <point x="636" y="780" type="line" smooth="yes"/>
      <point x="60" y="0" type="line" smooth="yes"/>
    </contour>
  </outline>
</glyph>
<glyph name="threequarters" format="1">
  <advance width="800"/>
  <unicode hex="00BE"/>
  <outline>
    <contour>
      <point x="656" y="232" type="line" smooth="yes"/>
      <point x="655" y="214" type="line" smooth="yes"/>
      <point x="655" y="164" type="line" smooth="yes"/>
      <point x="631" y="164" type="line" smooth="yes"/>
      <point x="613" y="162" type="line" smooth="yes"/>
    </contour>
    <contour>
      <point x="755" y="0" type="line" smooth="yes"/>
      <point x="755" y="76" type="line" smooth="yes"/>
      <point x="787" y="76" type="line" smooth="yes"/>
      <point x="787" y="164" type="line" smooth="yes"/>
      <point x="755" y="164" type="line" smooth="yes"/>
      <point x="755" y="390" type="line" smooth="yes"/>
      <point x="661" y="390" type="line" smooth="yes"/>
      <point x="512" y="147" type="line" smooth="yes"/>
      <point x="512" y="76" type="line" smooth="yes"/>
      <point x="655" y="76" type="line" smooth="yes"/>
      <point x="655" y="0" type="line" smooth="yes"/>
    </contour>
    <contour>
      <point x="116" y="515" type="line" smooth="yes"/>
      <point x="16" y="515" type="line" smooth="yes"/>
      <point x="16" y="507" type="line" smooth="yes"/>
      <point x="31" y="439" type="line" smooth="yes"/>
      <point x="76" y="397" type="line" smooth="yes"/>
      <point x="150" y="382" type="line" smooth="yes"/>
      <point x="230" y="402" type="line" smooth="yes"/>
      <point x="271" y="447" type="line" smooth="yes"/>
      <point x="283" y="496" type="line" smooth="yes"/>
      <point x="283" y="506" type="line" smooth="yes"/>
      <point x="277" y="542" type="line" smooth="yes"/>
      <point x="262" y="569" type="line" smooth="yes"/>
      <point x="240" y="589" type="line" smooth="yes"/>
      <point x="261" y="609" type="line" smooth="yes"/>
      <point x="275" y="636" type="line" smooth="yes"/>
      <point x="281" y="672" type="line" smooth="yes"/>
      <point x="281" y="682" type="line" smooth="yes"/>
      <point x="270" y="727" type="line" smooth="yes"/>
      <point x="229" y="769" type="line" smooth="yes"/>
      <point x="150" y="787" type="line" smooth="yes"/>
      <point x="76" y="773" type="line" smooth="yes"/>
      <point x="33" y="730" type="line" smooth="yes"/>
      <point x="19" y="659" type="line" smooth="yes"/>
      <point x="19" y="650" type="line" smooth="yes"/>
      <point x="119" y="650" type="line" smooth="yes"/>
      <point x="123" y="680" type="line" smooth="yes"/>
      <point x="133" y="695" type="line" smooth="yes"/>
      <point x="147" y="700" type="line" smooth="yes"/>
      <point x="152" y="700" type="line" smooth="yes"/>
      <point x="167" y="696" type="line" smooth="yes"/>
      <point x="177" y="686" type="line" smooth="yes"/>
      <point x="181" y="671" type="line" smooth="yes"/>
      <point x="181" y="665" type="line" smooth="yes"/>
      <point x="178" y="647" type="line" smooth="yes"/>
      <point x="168" y="637" type="line" smooth="yes"/>
      <point x="151" y="633" type="line" smooth="yes"/>
      <point x="100" y="633" type="line" smooth="yes"/>
      <point x="100" y="545" type="line" smooth="yes"/>
      <point x="152" y="545" type="line" smooth="yes"/>
      <point x="170" y="541" type="line" smooth="yes"/>
      <point x="180" y="531" type="line" smooth="yes"/>
      <point x="184" y="513" type="line" smooth="yes"/>
      <point x="184" y="508" type="line" smooth="yes"/>
      <point x="179" y="486" type="line" smooth="yes"/>
      <point x="168" y="473" type="line" smooth="yes"/>
      <point x="152" y="469" type="line" smooth="yes"/>
      <point x="147" y="469" type="line" smooth="yes"/>
      <point x="132" y="473" type="line" smooth="yes"/>
      <point x="121" y="487" type="line" smooth="yes"/>
    </contour>
    <contour>
      <point x="164" y="0" type="line" smooth="yes"/>
      <point x="740" y="780" type="line" smooth="yes"/>
      <point x="636" y="780" type="line" smooth="yes"/>
      <point x="60" y="0" type="line" smooth="yes"/>
    </contour>
  </outline>
</glyph>
<glyph name="questiondown" format="1">
  <advance width="484"/>
  <unicode hex="00BF"/>
  <outline>
    <contour>
      <point x="174" y="389" type="line" smooth="yes"/>
      <point x="316" y="389" type="line" smooth="yes"/>
      <point x="316" y="530" type="line" smooth="yes"/>
      <point x="174" y="530" type="line" smooth="yes"/>
    </contour>
    <contour>
      <point x="238" y="-97" type="line" smooth="yes"/>
      <point x="189" y="-87" type="line" smooth="yes"/>
      <point x="162" y="-59" type="line" smooth="yes"/>
      <point x="154" y="-16" type="line" smooth="yes"/>
      <point x="192" y="78" type="line" smooth="yes"/>
      <point x="260" y="179" type="line" smooth="yes"/>
      <point x="290" y="314" type="line" smooth="yes"/>
      <point x="200" y="314" type="line" smooth="yes"/>
      <point x="149" y="198" type="line" smooth="yes"/>
      <point x="65" y="113" type="line" smooth="yes"/>
      <point x="21" y="-27" type="line" smooth="yes"/>
      <point x="41" y="-118" type="line" smooth="yes"/>
      <point x="110" y="-186" type="line" smooth="yes"/>
      <point x="238" y="-213" type="line" smooth="yes"/>
      <point x="371" y="-182" type="line" smooth="yes"/>
      <point x="441" y="-93" type="line" smooth="yes"/>
      <point x="461" y="44" type="line" smooth="yes"/>
      <point x="461" y="60" type="line" smooth="yes"/>
      <point x="329" y="60" type="line" smooth="yes"/>
      <point x="321" y="-28" type="line" smooth="yes"/>
      <point x="293" y="-80" type="line" smooth="yes"/>
    </contour>
  </outline>
</glyph>
<glyph name="Atilde" format="1">
  <advance width="631"/>
  <unicode hex="00C3"/>
  <outline>
    <contour>
      <point x="316" y="631" type="line" smooth="yes"/>
      <point x="397" y="295" type="line" smooth="yes"/>
      <point x="234" y="295" type="line" smooth="yes"/>
    </contour>
    <contour>
      <point x="417" y="943" type="line" smooth="yes"/>
      <point x="412" y="922" type="line" smooth="yes"/>
      <point x="400" y="910" type="line" smooth="yes"/>
      <point x="382" y="907" type="line" smooth="yes"/>
      <point x="342" y="920" type="line" smooth="yes"/>
      <point x="294" y="944" type="line" smooth="yes"/>
      <point x="237" y="957" type="line" smooth="yes"/>
      <point x="189" y="946" type="line" smooth="yes"/>
      <point x="155" y="912" type="line" smooth="yes"/>
      <point x="142" y="847" type="line" smooth="yes"/>
      <point x="215" y="847" type="line" smooth="yes"/>
      <point x="220" y="868" type="line" smooth="yes"/>
      <point x="232" y="880" type="line" smooth="yes"/>
      <point x="250" y="883" type="line" smooth="yes"/>
      <point x="290" y="870" type="line" smooth="yes"/>
      <point x="338" y="846" type="line" smooth="yes"/>
      <point x="395" y="833" type="line" smooth="yes"/>
      <point x="443" y="844" type="line" smooth="yes"/>
      <point x="477" y="878" type="line" smooth="yes"/>
      <point x="490" y="943" type="line" smooth="yes"/>
    </contour>
    <contour>
      <point x="223" y="784" type="line" smooth="yes"/>
      <point x="18" y="0" type="line" smooth="yes"/>
      <point x="163" y="0" type="line" smooth="yes"/>
      <point x="206" y="178" type="line" smooth="yes"/>
      <point x="426" y="178" type="line" smooth="yes"/>
      <point x="469" y="0" type="line" smooth="yes"/>
      <point x="613" y="0" type="line" smooth="yes"/>
      <point x="408" y="784" type="line" smooth="yes"/>
    </contour>
  </outline>
</glyph>
<glyph name="Aring" format="1">
  <advance width="631"/>
  <unicode hex="00C5"/>
  <outline>
    <contour>
      <point x="264" y="861" type="line" smooth="yes"/>
      <point x="271" y="887" type="line" smooth="yes"/>
      <point x="290" y="906" type="line" smooth="yes"/>
      <point x="316" y="913" type="line" smooth="yes"/>
      <point x="342" y="906" type="line" smooth="yes"/>
      <point x="361" y="887" type="line" smooth="yes"/>
      <point x="368" y="861" type="line" smooth="yes"/>
      <point x="361" y="834" type="line" smooth="yes"/>
      <point x="342" y="815" type="line" smooth="yes"/>
      <point x="316" y="808" type="line" smooth="yes"/>
      <point x="290" y="815" type="line" smooth="yes"/>
      <point x="271" y="834" type="line" smooth="yes"/>
    </contour>
    <contour>
      <point x="316" y="631" type="line" smooth="yes"/>
      <point x="397" y="295" type="line" smooth="yes"/>
      <point x="234" y="295" type="line" smooth="yes"/>
    </contour>
    <contour>
      <point x="214" y="861" type="line" smooth="yes"/>
      <point x="218" y="831" type="line" smooth="yes"/>
      <point x="231" y="805" type="line" smooth="yes"/>
      <point x="249" y="784" type="line" smooth="yes"/>
      <point x="223" y="784" type="line" smooth="yes"/>
      <point x="18" y="0" type="line" smooth="yes"/>
      <point x="163" y="0" type="line" smooth="yes"/>
      <point x="206" y="178" type="line" smooth="yes"/>
      <point x="426" y="178" type="line" smooth="yes"/>
      <point x="469" y="0" type="line" smooth="yes"/>
      <point x="613" y="0" type="line" smooth="yes"/>
      <point x="408" y="784" type="line" smooth="yes"/>
      <point x="382" y="784" type="line" smooth="yes"/>
      <point x="401" y="805" type="line" smooth="yes"/>
      <point x="414" y="831" type="line" smooth="yes"/>
      <point x="418" y="861" type="line" smooth="yes"/>
      <point x="404" y="912" type="line" smooth="yes"/>
      <point x="367" y="949" type="line" smooth="yes"/>
      <point x="316" y="963" type="line" smooth="yes"/>
      <point x="265" y="949" type="line" smooth="yes"/>
      <point x="228" y="912" type="line" smooth="yes"/>
    </contour>
  </outline>
</glyph>
<glyph name="Ccedilla" format="1">
  <advance width="640"/>
  <unicode hex="00C7"/>
  <outline>
    <contour>
      <point x="237" y="-190" type="line" smooth="yes"/>
      <point x="262" y="-202" type="line" smooth="yes"/>
      <point x="297" y="-211" type="line" smooth="yes"/>
      <point x="339" y="-214" type="line" smooth="yes"/>
      <point x="401" y="-205" type="line" smooth="yes"/>
      <point x="440" y="-176" type="line" smooth="yes"/>
      <point x="453" y="-129" type="line" smooth="yes"/>
      <point x="439" y="-83" type="line" smooth="yes"/>
      <point x="402" y="-55" type="line" smooth="yes"/>
      <point x="353" y="-45" type="line" smooth="yes"/>
      <point x="365" y="-11" type="line" smooth="yes"/>
      <point x="494" y="24" type="line" smooth="yes"/>
      <point x="572" y="111" type="line" smooth="yes"/>
      <point x="598" y="253" type="line" smooth="yes"/>
      <point x="598" y="263" type="line" smooth="yes"/>
      <point x="463" y="263" type="line" smooth="yes"/>
      <point x="451" y="178" type="line" smooth="yes"/>
      <point x="410" y="123" type="line" smooth="yes"/>
      <point x="337" y="104" type="line" smooth="yes"/>
      <point x="328" y="104" type="line" smooth="yes"/>
      <point x="240" y="134" type="line" smooth="yes"/>
      <point x="194" y="223" type="line" smooth="yes"/>
      <point x="181" y="370" type="line" smooth="yes"/>
      <point x="181" y="410" type="line" smooth="yes"/>
      <point x="194" y="557" type="line" smooth="yes"/>
      <point x="241" y="646" type="line" smooth="yes"/>
      <point x="328" y="676" type="line" smooth="yes"/>
      <point x="337" y="676" type="line" smooth="yes"/>
      <point x="412" y="655" type="line" smooth="yes"/>
      <point x="451" y="591" type="line" smooth="yes"/>
      <point x="463" y="487" type="line" smooth="yes"/>
      <point x="598" y="487" type="line" smooth="yes"/>
      <point x="598" y="521" type="line" smooth="yes"/>
      <point x="568" y="676" type="line" smooth="yes"/>
      <point x="478" y="765" type="line" smooth="yes"/>
      <point x="329" y="793" type="line" smooth="yes"/>
      <point x="168" y="754" type="line" smooth="yes"/>
      <point x="75" y="629" type="line" smooth="yes"/>
      <point x="44" y="410" type="line" smooth="yes"/>
      <point x="44" y="370" type="line" smooth="yes"/>
      <point x="71" y="160" type="line" smooth="yes"/>
      <point x="156" y="35" type="line" smooth="yes"/>
      <point x="299" y="-12" type="line" smooth="yes"/>
      <point x="275" y="-75" type="line" smooth="yes"/>
      <point x="292" y="-101" type="line" smooth="yes"/>
      <point x="297" y="-100" type="line" smooth="yes"/>
      <point x="310" y="-98" type="line" smooth="yes"/>
      <point x="326" y="-97" type="line" smooth="yes"/>
      <point x="355" y="-100" type="line" smooth="yes"/>
      <point x="373" y="-108" type="line" smooth="yes"/>
      <point x="379" y="-122" type="line" smooth="yes"/>
      <point x="374" y="-136" type="line" smooth="yes"/>
      <point x="357" y="-144" type="line" smooth="yes"/>
      <point x="328" y="-147" type="line" smooth="yes"/>
      <point x="302" y="-145" type="line" smooth="yes"/>
      <point x="277" y="-140" type="line" smooth="yes"/>
      <point x="257" y="-131" type="line" smooth="yes"/>
    </contour>
  </outline>
</glyph>
<glyph name="Iacute" format="1">
  <advance width="266"/>
  <unicode hex="00CD"/>
  <outline>
    <contour>
      <point x="124" y="950" type="line" smooth="yes"/>
      <point x="68" y="840" type="line" smooth="yes"/>
      <point x="198" y="840" type="line" smooth="yes"/>
      <point x="261" y="950" type="line" smooth="yes"/>
    </contour>
    <contour>
      <point x="200" y="780" type="line" smooth="yes"/>
      <point x="66" y="780" type="line" smooth="yes"/>
      <point x="66" y="0" type="line" smooth="yes"/>
      <point x="200" y="0" type="line" smooth="yes"/>
    </contour>
  </outline>
</glyph>
<glyph name="Ntilde" format="1">
  <advance width="675"/>
  <unicode hex="00D1"/>
  <outline>
    <contour>
      <point x="439" y="943" type="line" smooth="yes"/>
      <point x="434" y="922" type="line" smooth="yes"/>
      <point x="422" y="910" type="line" smooth="yes"/>
      <point x="404" y="907" type="line" smooth="yes"/>
      <point x="364" y="920" type="line" smooth="yes"/>
      <point x="316" y="944" type="line" smooth="yes"/>
      <point x="259" y="957" type="line" smooth="yes"/>
      <point x="211" y="946" type="line" smooth="yes"/>
      <point x="177" y="912" type="line" smooth="yes"/>
      <point x="164" y="847" type="line" smooth="yes"/>
      <point x="237" y="847" type="line" smooth="yes"/>
      <point x="242" y="868" type="line" smooth="yes"/>
      <point x="254" y="880" type="line" smooth="yes"/>
      <point x="272" y="883" type="line" smooth="yes"/>
      <point x="312" y="870" type="line" smooth="yes"/>
      <point x="360" y="846" type="line" smooth="yes"/>
      <point x="417" y="833" type="line" smooth="yes"/>
      <point x="465" y="844" type="line" smooth="yes"/>
      <point x="499" y="878" type="line" smooth="yes"/>
      <point x="512" y="943" type="line" smooth="yes"/>
    </contour>
    <contour>
      <point x="614" y="780" type="line" smooth="yes"/>
      <point x="487" y="780" type="line" smooth="yes"/>
      <point x="487" y="407" type="line" smooth="yes"/>
      <point x="491" y="242" type="line" smooth="yes"/>
      <point x="203" y="780" type="line" smooth="yes"/>
      <point x="61" y="780" type="line" smooth="yes"/>
      <point x="61" y="0" type="line" smooth="yes"/>
      <point x="188" y="0" type="line" smooth="yes"/>
      <point x="188" y="373" type="line" smooth="yes"/>
      <point x="184" y="538" type="line" smooth="yes"/>
      <point x="472" y="0" type="line" smooth="yes"/>
      <point x="614" y="0" type="line" smooth="yes"/>
    </contour>
  </outline>
</glyph>
<glyph name="Otilde" format="1">
  <advance width="665"/>
  <unicode hex="00D5"/>
  <outline>
    <contour>
      <point x="434" y="943" type="line" smooth="yes"/>
      <point x="429" y="922" type="line" smooth="yes"/>
      <point x="417" y="910" type="line" smooth="yes"/>
      <point x="399" y="907" type="line" smooth="yes"/>
      <point x="359" y="920" type="line" smooth="yes"/>
      <point x="311" y="944" type="line" smooth="yes"/>
      <point x="254" y="957" type="line" smooth="yes"/>
      <point x="206" y="946" type="line" smooth="yes"/>
      <point x="172" y="912" type="line" smooth="yes"/>
      <point x="159" y="847" type="line" smooth="yes"/>
      <point x="232" y="847" type="line" smooth="yes"/>
      <point x="237" y="868" type="line" smooth="yes"/>
      <point x="249" y="880" type="line" smooth="yes"/>
      <point x="267" y="883" type="line" smooth="yes"/>
      <point x="307" y="870" type="line" smooth="yes"/>
      <point x="355" y="846" type="line" smooth="yes"/>
      <point x="412" y="833" type="line" smooth="yes"/>
      <point x="460" y="844" type="line" smooth="yes"/>
      <point x="494" y="878" type="line" smooth="yes"/>
      <point x="507" y="943" type="line" smooth="yes"/>
    </contour>
    <contour>
      <point x="328" y="104" type="line" smooth="yes"/>
      <point x="241" y="134" type="line" smooth="yes"/>
      <point x="195" y="223" type="line" smooth="yes"/>
      <point x="181" y="370" type="line" smooth="yes"/>
      <point x="181" y="410" type="line" smooth="yes"/>
      <point x="195" y="557" type="line" smooth="yes"/>
      <point x="241" y="646" type="line" smooth="yes"/>
      <point x="328" y="676" type="line" smooth="yes"/>
      <point x="337" y="676" type="line" smooth="yes"/>
      <point x="424" y="646" type="line" smooth="yes"/>
      <point x="470" y="557" type="line" smooth="yes"/>
      <point x="484" y="410" type="line" smooth="yes"/>
      <point x="484" y="370" type="line" smooth="yes"/>
      <point x="470" y="223" type="line" smooth="yes"/>
      <point x="424" y="134" type="line" smooth="yes"/>
      <point x="337" y="104" type="line" smooth="yes"/>
    </contour>
    <contour>
      <point x="333" y="-13" type="line" smooth="yes"/>
      <point x="494" y="26" type="line" smooth="yes"/>
      <point x="590" y="151" type="line" smooth="yes"/>
      <point x="621" y="370" type="line" smooth="yes"/>
      <point x="621" y="410" type="line" smooth="yes"/>
      <point x="590" y="629" type="line" smooth="yes"/>
      <point x="494" y="754" type="line" smooth="yes"/>
      <point x="333" y="793" type="line" smooth="yes"/>
      <point x="171" y="754" type="line" smooth="yes"/>
      <point x="75" y="629" type="line" smooth="yes"/>
      <point x="44" y="410" type="line" smooth="yes"/>
      <point x="44" y="370" type="line" smooth="yes"/>
      <point x="75" y="151" type="line" smooth="yes"/>
      <point x="171" y="26" type="line" smooth="yes"/>
    </contour>
  </outline>
</glyph>
<glyph name="Oslash" format="1">
  <advance width="660"/>
  <unicode hex="00D8"/>
  <outline>
    <contour>
      <point x="181" y="370" type="line" smooth="yes"/>
      <point x="181" y="410" type="line" smooth="yes"/>
      <point x="195" y="557" type="line" smooth="yes"/>
      <point x="241" y="646" type="line" smooth="yes"/>
      <point x="328" y="676" type="line" smooth="yes"/>
      <point x="337" y="676" type="line" smooth="yes"/>
      <point x="378" y="671" type="line" smooth="yes"/>
      <point x="412" y="655" type="line" smooth="yes"/>
      <point x="438" y="629" type="line" smooth="yes"/>
      <point x="191" y="237" type="line" smooth="yes"/>
      <point x="185" y="276" type="line" smooth="yes"/>
      <point x="182" y="321" type="line" smooth="yes"/>
    </contour>
    <contour>
      <point x="484" y="410" type="line" smooth="yes"/>
      <point x="484" y="370" type="line" smooth="yes"/>
      <point x="470" y="223" type="line" smooth="yes"/>
      <point x="424" y="134" type="line" smooth="yes"/>
      <point x="337" y="104" type="line" smooth="yes"/>
      <point x="328" y="104" type="line" smooth="yes"/>
      <point x="285" y="109" type="line" smooth="yes"/>
      <point x="251" y="126" type="line" smooth="yes"/>
      <point x="224" y="153" type="line" smooth="yes"/>
      <point x="472" y="548" type="line" smooth="yes"/>
      <point x="479" y="507" type="line" smooth="yes"/>
      <point x="483" y="461" type="line" smooth="yes"/>
    </contour>
    <contour>
      <point x="44" y="410" type="line" smooth="yes"/>
      <point x="44" y="370" type="line" smooth="yes"/>
      <point x="50" y="258" type="line" smooth="yes"/>
      <point x="70" y="167" type="line" smooth="yes"/>
      <point x="102" y="95" type="line" smooth="yes"/>
      <point x="43" y="0" type="line" smooth="yes"/>
      <point x="128" y="0" type="line" smooth="yes"/>
      <point x="152" y="39" type="line" smooth="yes"/>
      <point x="203" y="10" type="line" smooth="yes"/>
      <point x="263" y="-8" type="line" smooth="yes"/>
      <point x="333" y="-13" type="line" smooth="yes"/>
      <point x="494" y="26" type="line" smooth="yes"/>
      <point x="590" y="151" type="line" smooth="yes"/>
      <point x="621" y="370" type="line" smooth="yes"/>
      <point x="621" y="410" type="line" smooth="yes"/>
      <point x="614" y="524" type="line" smooth="yes"/>
      <point x="594" y="616" type="line" smooth="yes"/>
      <point x="560" y="688" type="line" smooth="yes"/>
      <point x="618" y="780" type="line" smooth="yes"/>
      <point x="533" y="780" type="line" smooth="yes"/>
      <point x="510" y="743" type="line" smooth="yes"/>
      <point x="460" y="771" type="line" smooth="yes"/>
      <point x="401" y="788" type="line" smooth="yes"/>
      <point x="333" y="793" type="line" smooth="yes"/>
      <point x="171" y="754" type="line" smooth="yes"/>
      <point x="75" y="629" type="line" smooth="yes"/>
    </contour>
  </outline>
</glyph>
<glyph name="Ucircumflex" format="1">
  <advance width="655"/>
  <unicode hex="00DB"/>
  <outline>
    <contour>
      <point x="264" y="840" type="line" smooth="yes"/>
      <point x="328" y="890" type="line" smooth="yes"/>
      <point x="392" y="840" type="line" smooth="yes"/>
      <point x="512" y="840" type="line" smooth="yes"/>
      <point x="393" y="950" type="line" smooth="yes"/>
      <point x="263" y="950" type="line" smooth="yes"/>
      <point x="144" y="840" type="line" smooth="yes"/>
    </contour>
    <contour>
      <point x="328" y="-13" type="line" smooth="yes"/>
      <point x="486" y="15" type="line" smooth="yes"/>
      <point x="573" y="100" type="line" smooth="yes"/>
      <point x="599" y="245" type="line" smooth="yes"/>
      <point x="599" y="780" type="line" smooth="yes"/>
      <point x="465" y="780" type="line" smooth="yes"/>
      <point x="465" y="250" type="line" smooth="yes"/>
      <point x="452" y="166" type="line" smooth="yes"/>
      <point x="408" y="119" type="line" smooth="yes"/>
      <point x="328" y="104" type="line" smooth="yes"/>
      <point x="247" y="119" type="line" smooth="yes"/>
      <point x="203" y="166" type="line" smooth="yes"/>
      <point x="190" y="250" type="line" smooth="yes"/>
      <point x="190" y="780" type="line" smooth="yes"/>
      <point x="56" y="780" type="line" smooth="yes"/>
      <point x="56" y="245" type="line" smooth="yes"/>
      <point x="83" y="100" type="line" smooth="yes"/>
      <point x="169" y="15" type="line" smooth="yes"/>
    </contour>
  </outline>
</glyph>
<glyph name="Udieresis" format="1">
  <advance width="655"/>
  <unicode hex="00DC"/>
  <outline>
    <contour>
      <point x="471" y="941" type="line" smooth="yes"/>
      <point x="354" y="941" type="line" smooth="yes"/>
      <point x="354" y="849" type="line" smooth="yes"/>
      <point x="471" y="849" type="line" smooth="yes"/>
    </contour>
    <contour>
      <point x="302" y="941" type="line" smooth="yes"/>
      <point x="185" y="941" type="line" smooth="yes"/>
      <point x="185" y="849" type="line" smooth="yes"/>
      <point x="302" y="849" type="line" smooth="yes"/>
    </contour>
    <contour>
      <point x="328" y="-13" type="line" smooth="yes"/>
      <point x="486" y="15" type="line" smooth="yes"/>
      <point x="573" y="100" type="line" smooth="yes"/>
      <point x="599" y="245" type="line" smooth="yes"/>
      <point x="599" y="780" type="line" smooth="yes"/>
      <point x="465" y="780" type="line" smooth="yes"/>
      <point x="465" y="250" type="line" smooth="yes"/>
      <point x="452" y="166" type="line" smooth="yes"/>
      <point x="408" y="119" type="line" smooth="yes"/>
      <point x="328" y="104" type="line" smooth="yes"/>
      <point x="247" y="119" type="line" smooth="yes"/>
      <point x="203" y="166" type="line" smooth="yes"/>
      <point x="190" y="250" type="line" smooth="yes"/>
      <point x="190" y="780" type="line" smooth="yes"/>
      <point x="56" y="780" type="line" smooth="yes"/>
      <point x="56" y="245" type="line" smooth="yes"/>
      <point x="83" y="100" type="line" smooth="yes"/>
      <point x="169" y="15" type="line" smooth="yes"/>
    </contour>
  </outline>
</glyph>
<glyph name="Yacute" format="1">
  <advance width="610"/>
  <unicode hex="00DD"/>
  <outline>
    <contour>
      <point x="296" y="950" type="line" smooth="yes"/>
      <point x="240" y="840" type="line" smooth="yes"/>
      <point x="370" y="840" type="line" smooth="yes"/>
      <point x="433" y="950" type="line" smooth="yes"/>
    </contour>
    <contour>
      <point x="372" y="238" type="line" smooth="yes"/>
      <point x="598" y="780" type="line" smooth="yes"/>
      <point x="452" y="780" type="line" smooth="yes"/>
      <point x="305" y="403" type="line" smooth="yes"/>
      <point x="158" y="780" type="line" smooth="yes"/>
      <point x="12" y="780" type="line" smooth="yes"/>
      <point x="238" y="238" type="line" smooth="yes"/>
      <point x="238" y="0" type="line" smooth="yes"/>
      <point x="372" y="0" type="line" smooth="yes"/>
    </contour>
  </outline>
</glyph>
<glyph name="Thorn" format="1">
  <advance width="598"/>
  <unicode hex="00DE"/>
  <outline>
    <contour>
      <point x="195" y="263" type="line" smooth="yes"/>
      <point x="195" y="517" type="line" smooth="yes"/>
      <point x="310" y="517" type="line" smooth="yes"/>
      <point x="364" y="508" type="line" smooth="yes"/>
      <point x="410" y="472" type="line" smooth="yes"/>
      <point x="430" y="395" type="line" smooth="yes"/>
      <point x="430" y="385" type="line" smooth="yes"/>
      <point x="410" y="308" type="line" smooth="yes"/>
      <point x="364" y="272" type="line" smooth="yes"/>
      <point x="310" y="263" type="line" smooth="yes"/>
    </contour>
    <contour>
      <point x="195" y="780" type="line" smooth="yes"/>
      <point x="61" y="780" type="line" smooth="yes"/>
      <point x="61" y="0" type="line" smooth="yes"/>
      <point x="195" y="0" type="line" smooth="yes"/>
      <point x="195" y="146" type="line" smooth="yes"/>
      <point x="305" y="146" type="line" smooth="yes"/>
      <point x="427" y="162" type="line" smooth="yes"/>
      <point x="525" y="231" type="line" smooth="yes"/>
      <point x="566" y="380" type="line" smooth="yes"/>
      <point x="566" y="400" type="line" smooth="yes"/>
      <point x="525" y="549" type="line" smooth="yes"/>
      <point x="427" y="618" type="line" smooth="yes"/>
      <point x="305" y="634" type="line" smooth="yes"/>
      <point x="195" y="634" type="line" smooth="yes"/>
    </contour>
  </outline>
</glyph>
<glyph name="germandbls" format="1">
  <advance width="613"/>
  <unicode hex="00DF"/>
  <outline>
    <contour>
      <point x="278" y="346" type="line" smooth="yes"/>
      <point x="365" y="286" type="line" smooth="yes"/>
      <point x="420" y="243" type="line" smooth="yes"/>
      <point x="450" y="202" type="line" smooth="yes"/>
      <point x="460" y="162" type="line" smooth="yes"/>
      <point x="456" y="126" type="line" smooth="yes"/>
      <point x="439" y="99" type="line" smooth="yes"/>
      <point x="398" y="88" type="line" smooth="yes"/>
      <point x="364" y="99" type="line" smooth="yes"/>
      <point x="347" y="127" type="line" smooth="yes"/>
      <point x="343" y="166" type="line" smooth="yes"/>
      <point x="229" y="166" type="line" smooth="yes"/>
      <point x="229" y="159" type="line" smooth="yes"/>
      <point x="242" y="71" type="line" smooth="yes"/>
      <point x="292" y="10" type="line" smooth="yes"/>
      <point x="395" y="-13" type="line" smooth="yes"/>
      <point x="513" y="13" type="line" smooth="yes"/>
      <point x="573" y="78" type="line" smooth="yes"/>
      <point x="590" y="163" type="line" smooth="yes"/>
      <point x="590" y="170" type="line" smooth="yes"/>
      <point x="573" y="246" type="line" smooth="yes"/>
      <point x="525" y="313" type="line" smooth="yes"/>
      <point x="446" y="376" type="line" smooth="yes"/>
      <point x="414" y="397" type="line" smooth="yes"/>
      <point x="474" y="450" type="line" smooth="yes"/>
      <point x="511" y="512" type="line" smooth="yes"/>
      <point x="524" y="590" type="line" smooth="yes"/>
      <point x="524" y="599" type="line" smooth="yes"/>
      <point x="499" y="706" type="line" smooth="yes"/>
      <point x="422" y="783" type="line" smooth="yes"/>
      <point x="289" y="813" type="line" smooth="yes"/>
      <point x="153" y="784" type="line" smooth="yes"/>
      <point x="77" y="708" type="line" smooth="yes"/>
      <point x="54" y="598" type="line" smooth="yes"/>
      <point x="54" y="0" type="line" smooth="yes"/>
      <point x="184" y="0" type="line" smooth="yes"/>
      <point x="184" y="591" type="line" smooth="yes"/>
      <point x="195" y="645" type="line" smooth="yes"/>
      <point x="228" y="684" type="line" smooth="yes"/>
      <point x="289" y="699" type="line" smooth="yes"/>
      <point x="350" y="685" type="line" smooth="yes"/>
      <point x="383" y="645" type="line" smooth="yes"/>
      <point x="394" y="585" type="line" smooth="yes"/>
      <point x="380" y="523" type="line" smooth="yes"/>
      <point x="341" y="472" type="line" smooth="yes"/>
      <point x="278" y="428" type="line" smooth="yes"/>
    </contour>
  </outline>
</glyph>
<glyph name="aacute" format="1">
  <advance width="538"/>
  <unicode hex="00E1"/>
  <outline>
    <contour>
      <point x="295" y="780" type="line" smooth="yes"/>
      <point x="204" y="601" type="line" smooth="yes"/>
      <point x="334" y="601" type="line" smooth="yes"/>
      <point x="437" y="780" type="line" smooth="yes"/>
    </contour>
    <contour>
      <point x="239" y="94" type="line" smooth="yes"/>
      <point x="196" y="104" type="line" smooth="yes"/>
      <point x="172" y="127" type="line" smooth="yes"/>
      <point x="164" y="159" type="line" smooth="yes"/>
      <point x="164" y="167" type="line" smooth="yes"/>
      <point x="172" y="203" type="line" smooth="yes"/>
      <point x="198" y="228" type="line" smooth="yes"/>
      <point x="243" y="243" type="line" smooth="yes"/>
      <point x="354" y="261" type="line" smooth="yes"/>
      <point x="354" y="149" type="line" smooth="yes"/>
      <point x="330" y="125" type="line" smooth="yes"/>
      <point x="292" y="103" type="line" smooth="yes"/>
    </contour>
    <contour>
      <point x="377" y="0" type="line" smooth="yes"/>
      <point x="492" y="0" type="line" smooth="yes"/>
      <point x="484" y="150" type="line" smooth="yes"/>
      <point x="484" y="342" type="line" smooth="yes"/>
      <point x="465" y="449" type="line" smooth="yes"/>
      <point x="398" y="518" type="line" smooth="yes"/>
      <point x="269" y="543" type="line" smooth="yes"/>
      <point x="138" y="516" type="line" smooth="yes"/>
      <point x="72" y="450" type="line" smooth="yes"/>
      <point x="54" y="364" type="line" smooth="yes"/>
      <point x="54" y="355" type="line" smooth="yes"/>
      <point x="178" y="355" type="line" smooth="yes"/>
      <point x="185" y="398" type="line" smooth="yes"/>
      <point x="211" y="430" type="line" smooth="yes"/>
      <point x="266" y="442" type="line" smooth="yes"/>
      <point x="319" y="431" type="line" smooth="yes"/>
      <point x="346" y="398" type="line" smooth="yes"/>
      <point x="354" y="342" type="line" smooth="yes"/>
      <point x="354" y="340" type="line" smooth="yes"/>
      <point x="219" y="319" type="line" smooth="yes"/>
      <point x="125" y="295" type="line" smooth="yes"/>
      <point x="59" y="244" type="line" smooth="yes"/>
      <point x="34" y="153" type="line" smooth="yes"/>
      <point x="34" y="143" type="line" smooth="yes"/>
      <point x="51" y="65" type="line" smooth="yes"/>
      <point x="103" y="9" type="line" smooth="yes"/>
      <point x="194" y="-13" type="line" smooth="yes"/>
      <point x="266" y="-3" type="line" smooth="yes"/>
      <point x="323" y="23" type="line" smooth="yes"/>
      <point x="367" y="61" type="line" smooth="yes"/>
    </contour>
  </outline>
</glyph>
<glyph name="aring" format="1">
  <advance width="538"/>
  <unicode hex="00E5"/>
  <outline>
    <contour>
      <point x="217" y="691" type="line" smooth="yes"/>
      <point x="224" y="717" type="line" smooth="yes"/>
      <point x="243" y="736" type="line" smooth="yes"/>
      <point x="269" y="743" type="line" smooth="yes"/>
      <point x="295" y="736" type="line" smooth="yes"/>
      <point x="314" y="717" type="line" smooth="yes"/>
      <point x="321" y="691" type="line" smooth="yes"/>
      <point x="314" y="664" type="line" smooth="yes"/>
      <point x="295" y="645" type="line" smooth="yes"/>
      <point x="269" y="638" type="line" smooth="yes"/>
      <point x="243" y="645" type="line" smooth="yes"/>
      <point x="224" y="664" type="line" smooth="yes"/>
    </contour>
    <contour>
      <point x="239" y="94" type="line" smooth="yes"/>
      <point x="196" y="104" type="line" smooth="yes"/>
      <point x="172" y="127" type="line" smooth="yes"/>
      <point x="164" y="159" type="line" smooth="yes"/>
      <point x="164" y="167" type="line" smooth="yes"/>
      <point x="172" y="203" type="line" smooth="yes"/>
      <point x="198" y="228" type="line" smooth="yes"/>
      <point x="243" y="243" type="line" smooth="yes"/>
      <point x="354" y="261" type="line" smooth="yes"/>
      <point x="354" y="149" type="line" smooth="yes"/>
      <point x="330" y="125" type="line" smooth="yes"/>
      <point x="292" y="103" type="line" smooth="yes"/>
    </contour>
    <contour>
      <point x="167" y="691" type="line" smooth="yes"/>
      <point x="181" y="639" type="line" smooth="yes"/>
      <point x="218" y="603" type="line" smooth="yes"/>
      <point x="269" y="589" type="line" smooth="yes"/>
      <point x="320" y="603" type="line" smooth="yes"/>
      <point x="357" y="639" type="line" smooth="yes"/>
      <point x="371" y="691" type="line" smooth="yes"/>
      <point x="357" y="742" type="line" smooth="yes"/>
      <point x="320" y="779" type="line" smooth="yes"/>
      <point x="269" y="793" type="line" smooth="yes"/>
      <point x="218" y="779" type="line" smooth="yes"/>
      <point x="181" y="742" type="line" smooth="yes"/>
    </contour>
    <contour>
      <point x="377" y="0" type="line" smooth="yes"/>
      <point x="492" y="0" type="line" smooth="yes"/>
      <point x="484" y="150" type="line" smooth="yes"/>
      <point x="484" y="342" type="line" smooth="yes"/>
      <point x="465" y="449" type="line" smooth="yes"/>
      <point x="398" y="518" type="line" smooth="yes"/>
      <point x="269" y="543" type="line" smooth="yes"/>
      <point x="138" y="516" type="line" smooth="yes"/>
      <point x="72" y="450" type="line" smooth="yes"/>
      <point x="54" y="364" type="line" smooth="yes"/>
      <point x="54" y="355" type="line" smooth="yes"/>
      <point x="178" y="355" type="line" smooth="yes"/>
      <point x="185" y="398" type="line" smooth="yes"/>
      <point x="211" y="430" type="line" smooth="yes"/>
      <point x="266" y="442" type="line" smooth="yes"/>
      <point x="319" y="431" type="line" smooth="yes"/>
      <point x="346" y="398" type="line" smooth="yes"/>
      <point x="354" y="342" type="line" smooth="yes"/>
      <point x="354" y="340" type="line" smooth="yes"/>
      <point x="219" y="319" type="line" smooth="yes"/>
      <point x="125" y="295" type="line" smooth="yes"/>
      <point x="59" y="244" type="line" smooth="yes"/>
      <point x="34" y="153" type="line" smooth="yes"/>
      <point x="34" y="143" type="line" smooth="yes"/>
      <point x="51" y="65" type="line" smooth="yes"/>
      <point x="103" y="9" type="line" smooth="yes"/>
      <point x="194" y="-13" type="line" smooth="yes"/>
      <point x="266" y="-3" type="line" smooth="yes"/>
      <point x="323" y="23" type="line" smooth="yes"/>
      <point x="367" y="61" type="line" smooth="yes"/>
    </contour>
  </outline>
</glyph>
<glyph name="ae" format="1">
  <advance width="863"/>
  <unicode hex="00E6"/>
  <outline>
    <contour>
      <point x="594" y="442" type="line" smooth="yes"/>
      <point x="652" y="427" type="line" smooth="yes"/>
      <point x="689" y="384" type="line" smooth="yes"/>
      <point x="703" y="313" type="line" smooth="yes"/>
      <point x="484" y="313" type="line" smooth="yes"/>
      <point x="499" y="384" type="line" smooth="yes"/>
      <point x="535" y="427" type="line" smooth="yes"/>
    </contour>
    <contour>
      <point x="360" y="155" type="line" smooth="yes"/>
      <point x="338" y="129" type="line" smooth="yes"/>
      <point x="299" y="103" type="line" smooth="yes"/>
      <point x="239" y="91" type="line" smooth="yes"/>
      <point x="196" y="101" type="line" smooth="yes"/>
      <point x="172" y="124" type="line" smooth="yes"/>
      <point x="164" y="156" type="line" smooth="yes"/>
      <point x="164" y="164" type="line" smooth="yes"/>
      <point x="173" y="200" type="line" smooth="yes"/>
      <point x="199" y="225" type="line" smooth="yes"/>
      <point x="244" y="240" type="line" smooth="yes"/>
      <point x="354" y="258" type="line" smooth="yes"/>
      <point x="354" y="252" type="line" smooth="yes"/>
      <point x="355" y="219" type="line" smooth="yes"/>
      <point x="359" y="188" type="line" smooth="yes"/>
      <point x="365" y="159" type="line" smooth="yes"/>
    </contour>
    <contour>
      <point x="834" y="217" type="line" smooth="yes"/>
      <point x="834" y="278" type="line" smooth="yes"/>
      <point x="809" y="414" type="line" smooth="yes"/>
      <point x="731" y="508" type="line" smooth="yes"/>
      <point x="596" y="543" type="line" smooth="yes"/>
      <point x="529" y="534" type="line" smooth="yes"/>
      <point x="475" y="511" type="line" smooth="yes"/>
      <point x="434" y="474" type="line" smooth="yes"/>
      <point x="399" y="511" type="line" smooth="yes"/>
      <point x="345" y="535" type="line" smooth="yes"/>
      <point x="269" y="543" type="line" smooth="yes"/>
      <point x="138" y="516" type="line" smooth="yes"/>
      <point x="72" y="450" type="line" smooth="yes"/>
      <point x="54" y="364" type="line" smooth="yes"/>
      <point x="54" y="355" type="line" smooth="yes"/>
      <point x="178" y="355" type="line" smooth="yes"/>
      <point x="185" y="398" type="line" smooth="yes"/>
      <point x="211" y="430" type="line" smooth="yes"/>
      <point x="266" y="442" type="line" smooth="yes"/>
      <point x="319" y="431" type="line" smooth="yes"/>
      <point x="346" y="398" type="line" smooth="yes"/>
      <point x="354" y="342" type="line" smooth="yes"/>
      <point x="354" y="340" type="line" smooth="yes"/>
      <point x="221" y="319" type="line" smooth="yes"/>
      <point x="127" y="295" type="line" smooth="yes"/>
      <point x="60" y="244" type="line" smooth="yes"/>
      <point x="34" y="153" type="line" smooth="yes"/>
      <point x="34" y="143" type="line" smooth="yes"/>
      <point x="52" y="65" type="line" smooth="yes"/>
      <point x="107" y="9" type="line" smooth="yes"/>
      <point x="203" y="-13" type="line" smooth="yes"/>
      <point x="284" y="-2" type="line" smooth="yes"/>
      <point x="353" y="27" type="line" smooth="yes"/>
      <point x="409" y="69" type="line" smooth="yes"/>
      <point x="457" y="25" type="line" smooth="yes"/>
      <point x="521" y="-3" type="line" smooth="yes"/>
      <point x="602" y="-13" type="line" smooth="yes"/>
      <point x="730" y="12" type="line" smooth="yes"/>
      <point x="808" y="77" type="line" smooth="yes"/>
      <point x="834" y="166" type="line" smooth="yes"/>
      <point x="834" y="170" type="line" smooth="yes"/>
      <point x="711" y="170" type="line" smooth="yes"/>
      <point x="699" y="131" type="line" smooth="yes"/>
      <point x="663" y="100" type="line" smooth="yes"/>
      <point x="603" y="88" type="line" smooth="yes"/>
      <point x="540" y="102" type="line" smooth="yes"/>
      <point x="500" y="145" type="line" smooth="yes"/>
      <point x="484" y="217" type="line" smooth="yes"/>
    </contour>
  </outline>
</glyph>
<glyph name="ccedilla" format="1">
  <advance width="525"/>
  <unicode hex="00E7"/>
  <outline>
    <contour>
      <point x="173" y="-190" type="line" smooth="yes"/>
      <point x="198" y="-202" type="line" smooth="yes"/>
      <point x="233" y="-211" type="line" smooth="yes"/>
      <point x="275" y="-214" type="line" smooth="yes"/>
      <point x="337" y="-205" type="line" smooth="yes"/>
      <point x="376" y="-176" type="line" smooth="yes"/>
      <point x="389" y="-129" type="line" smooth="yes"/>
      <point x="375" y="-83" type="line" smooth="yes"/>
      <point x="338" y="-55" type="line" smooth="yes"/>
      <point x="289" y="-45" type="line" smooth="yes"/>
      <point x="301" y="-11" type="line" smooth="yes"/>
      <point x="407" y="20" type="line" smooth="yes"/>
      <point x="470" y="85" type="line" smooth="yes"/>
      <point x="490" y="172" type="line" smooth="yes"/>
      <point x="490" y="193" type="line" smooth="yes"/>
      <point x="367" y="193" type="line" smooth="yes"/>
      <point x="357" y="146" type="line" smooth="yes"/>
      <point x="327" y="113" type="line" smooth="yes"/>
      <point x="273" y="101" type="line" smooth="yes"/>
      <point x="211" y="119" type="line" smooth="yes"/>
      <point x="177" y="170" type="line" smooth="yes"/>
      <point x="166" y="249" type="line" smooth="yes"/>
      <point x="166" y="281" type="line" smooth="yes"/>
      <point x="177" y="361" type="line" smooth="yes"/>
      <point x="211" y="412" type="line" smooth="yes"/>
      <point x="273" y="430" type="line" smooth="yes"/>
      <point x="326" y="417" type="line" smooth="yes"/>
      <point x="357" y="382" type="line" smooth="yes"/>
      <point x="367" y="328" type="line" smooth="yes"/>
      <point x="490" y="328" type="line" smooth="yes"/>
      <point x="490" y="350" type="line" smooth="yes"/>
      <point x="466" y="448" type="line" smooth="yes"/>
      <point x="394" y="517" type="line" smooth="yes"/>
      <point x="270" y="543" type="line" smooth="yes"/>
      <point x="137" y="509" type="line" smooth="yes"/>
      <point x="60" y="416" type="line" smooth="yes"/>
      <point x="36" y="281" type="line" smooth="yes"/>
      <point x="36" y="249" type="line" smooth="yes"/>
      <point x="57" y="123" type="line" smooth="yes"/>
      <point x="122" y="32" type="line" smooth="yes"/>
      <point x="235" y="-11" type="line" smooth="yes"/>
      <point x="211" y="-75" type="line" smooth="yes"/>
      <point x="228" y="-101" type="line" smooth="yes"/>
      <point x="233" y="-100" type="line" smooth="yes"/>
      <point x="246" y="-98" type="line" smooth="yes"/>
      <point x="262" y="-97" type="line" smooth="yes"/>
      <point x="291" y="-100" type="line" smooth="yes"/>
      <point x="309" y="-108" type="line" smooth="yes"/>
      <point x="315" y="-122" type="line" smooth="yes"/>
      <point x="310" y="-136" type="line" smooth="yes"/>
      <point x="293" y="-144" type="line" smooth="yes"/>
      <point x="264" y="-147" type="line" smooth="yes"/>
      <point x="238" y="-145" type="line" smooth="yes"/>
      <point x="213" y="-140" type="line" smooth="yes"/>
      <point x="193" y="-131" type="line" smooth="yes"/>
    </contour>
  </outline>
</glyph>
<glyph name="eth" format="1">
  <advance width="553"/>
  <unicode hex="00F0"/>
  <outline>
    <contour>
      <point x="276" y="101" type="line" smooth="yes"/>
      <point x="214" y="119" type="line" smooth="yes"/>
      <point x="178" y="170" type="line" smooth="yes"/>
      <point x="166" y="249" type="line" smooth="yes"/>
      <point x="166" y="281" type="line" smooth="yes"/>
      <point x="178" y="361" type="line" smooth="yes"/>
      <point x="214" y="412" type="line" smooth="yes"/>
      <point x="276" y="430" type="line" smooth="yes"/>
      <point x="338" y="412" type="line" smooth="yes"/>
      <point x="374" y="361" type="line" smooth="yes"/>
      <point x="386" y="281" type="line" smooth="yes"/>
      <point x="386" y="249" type="line" smooth="yes"/>
      <point x="374" y="170" type="line" smooth="yes"/>
      <point x="338" y="119" type="line" smooth="yes"/>
    </contour>
    <contour>
      <point x="36" y="696" type="line" smooth="yes"/>
      <point x="81" y="690" type="line" smooth="yes"/>
      <point x="124" y="681" type="line" smooth="yes"/>
      <point x="165" y="670" type="line" smooth="yes"/>
      <point x="68" y="615" type="line" smooth="yes"/>
      <point x="68" y="536" type="line" smooth="yes"/>
      <point x="243" y="634" type="line" smooth="yes"/>
      <point x="266" y="619" type="line" smooth="yes"/>
      <point x="287" y="602" type="line" smooth="yes"/>
      <point x="306" y="583" type="line" smooth="yes"/>
      <point x="321" y="565" type="line" smooth="yes"/>
      <point x="334" y="546" type="line" smooth="yes"/>
      <point x="346" y="526" type="line" smooth="yes"/>
      <point x="319" y="535" type="line" smooth="yes"/>
      <point x="290" y="541" type="line" smooth="yes"/>
      <point x="258" y="543" type="line" smooth="yes"/>
      <point x="135" y="509" type="line" smooth="yes"/>
      <point x="61" y="416" type="line" smooth="yes"/>
      <point x="36" y="281" type="line" smooth="yes"/>
      <point x="36" y="249" type="line" smooth="yes"/>
      <point x="61" y="114" type="line" smooth="yes"/>
      <point x="140" y="21" type="line" smooth="yes"/>
      <point x="276" y="-13" type="line" smooth="yes"/>
      <point x="412" y="21" type="line" smooth="yes"/>
      <point x="491" y="114" type="line" smooth="yes"/>
      <point x="516" y="249" type="line" smooth="yes"/>
      <point x="516" y="281" type="line" smooth="yes"/>
      <point x="507" y="408" type="line" smooth="yes"/>
      <point x="474" y="539" type="line" smooth="yes"/>
      <point x="407" y="657" type="line" smooth="yes"/>
      <point x="393" y="673" type="line" smooth="yes"/>
      <point x="378" y="688" type="line" smooth="yes"/>
      <point x="363" y="702" type="line" smooth="yes"/>
      <point x="420" y="734" type="line" smooth="yes"/>
      <point x="420" y="813" type="line" smooth="yes"/>
      <point x="300" y="746" type="line" smooth="yes"/>
      <point x="219" y="780" type="line" smooth="yes"/>
      <point x="131" y="802" type="line" smooth="yes"/>
      <point x="36" y="813" type="line" smooth="yes"/>
    </contour>
  </outline>
</glyph>
<glyph name="ntilde" format="1">
  <advance width="563"/>
  <unicode hex="00F1"/>
  <outline>
    <contour>
      <point x="383" y="764" type="line" smooth="yes"/>
      <point x="379" y="741" type="line" smooth="yes"/>
      <point x="367" y="729" type="line" smooth="yes"/>
      <point x="350" y="725" type="line" smooth="yes"/>
      <point x="307" y="739" type="line" smooth="yes"/>
      <point x="258" y="764" type="line" smooth="yes"/>
      <point x="199" y="778" type="line" smooth="yes"/>
      <point x="147" y="763" type="line" smooth="yes"/>
      <point x="112" y="717" type="line" smooth="yes"/>
      <point x="98" y="636" type="line" smooth="yes"/>
      <point x="187" y="636" type="line" smooth="yes"/>
      <point x="191" y="659" type="line" smooth="yes"/>
      <point x="203" y="671" type="line" smooth="yes"/>
      <point x="220" y="675" type="line" smooth="yes"/>
      <point x="263" y="661" type="line" smooth="yes"/>
      <point x="312" y="636" type="line" smooth="yes"/>
      <point x="371" y="622" type="line" smooth="yes"/>
      <point x="423" y="637" type="line" smooth="yes"/>
      <point x="458" y="683" type="line" smooth="yes"/>
      <point x="472" y="764" type="line" smooth="yes"/>
    </contour>
    <contour>
      <point x="511" y="0" type="line" smooth="yes"/>
      <point x="511" y="363" type="line" smooth="yes"/>
      <point x="495" y="452" type="line" smooth="yes"/>
      <point x="442" y="518" type="line" smooth="yes"/>
      <point x="348" y="543" type="line" smooth="yes"/>
      <point x="273" y="532" type="line" smooth="yes"/>
      <point x="217" y="503" type="line" smooth="yes"/>
      <point x="176" y="460" type="line" smooth="yes"/>
      <point x="164" y="530" type="line" smooth="yes"/>
      <point x="49" y="530" type="line" smooth="yes"/>
      <point x="58" y="380" type="line" smooth="yes"/>
      <point x="58" y="0" type="line" smooth="yes"/>
      <point x="188" y="0" type="line" smooth="yes"/>
      <point x="188" y="369" type="line" smooth="yes"/>
      <point x="210" y="396" type="line" smooth="yes"/>
      <point x="246" y="420" type="line" smooth="yes"/>
      <point x="298" y="430" type="line" smooth="yes"/>
      <point x="346" y="419" type="line" smooth="yes"/>
      <point x="373" y="387" type="line" smooth="yes"/>
      <point x="382" y="342" type="line" smooth="yes"/>
      <point x="382" y="0" type="line" smooth="yes"/>
    </contour>
  </outline>
</glyph>
<glyph name="ograve" format="1">
  <advance width="553"/>
  <unicode hex="00F2"/>
  <outline>
    <contour>
      <point x="108" y="780" type="line" smooth="yes"/>
      <point x="211" y="601" type="line" smooth="yes"/>
      <point x="341" y="601" type="line" smooth="yes"/>
      <point x="250" y="780" type="line" smooth="yes"/>
    </contour>
    <contour>
      <point x="276" y="101" type="line" smooth="yes"/>
      <point x="214" y="119" type="line" smooth="yes"/>
      <point x="178" y="170" type="line" smooth="yes"/>
      <point x="166" y="249" type="line" smooth="yes"/>
      <point x="166" y="281" type="line" smooth="yes"/>
      <point x="178" y="361" type="line" smooth="yes"/>
      <point x="214" y="412" type="line" smooth="yes"/>
      <point x="276" y="430" type="line" smooth="yes"/>
      <point x="338" y="412" type="line" smooth="yes"/>
      <point x="374" y="361" type="line" smooth="yes"/>
      <point x="386" y="281" type="line" smooth="yes"/>
      <point x="386" y="249" type="line" smooth="yes"/>
      <point x="374" y="170" type="line" smooth="yes"/>
      <point x="338" y="119" type="line" smooth="yes"/>
    </contour>
    <contour>
      <point x="276" y="-13" type="line" smooth="yes"/>
      <point x="412" y="21" type="line" smooth="yes"/>
      <point x="491" y="114" type="line" smooth="yes"/>
      <point x="516" y="249" type="line" smooth="yes"/>
      <point x="516" y="281" type="line" smooth="yes"/>
      <point x="491" y="416" type="line" smooth="yes"/>
      <point x="412" y="509" type="line" smooth="yes"/>
      <point x="276" y="543" type="line" smooth="yes"/>
      <point x="140" y="509" type="line" smooth="yes"/>
      <point x="61" y="416" type="line" smooth="yes"/>
      <point x="36" y="281" type="line" smooth="yes"/>
      <point x="36" y="249" type="line" smooth="yes"/>
      <point x="61" y="114" type="line" smooth="yes"/>
      <point x="140" y="21" type="line" smooth="yes"/>
    </contour>
  </outline>
</glyph>
<glyph name="otilde" format="1">
  <advance width="553"/>
  <unicode hex="00F5"/>
  <outline>
    <contour>
      <point x="374" y="764" type="line" smooth="yes"/>
      <point x="370" y="741" type="line" smooth="yes"/>
      <point x="358" y="729" type="line" smooth="yes"/>
      <point x="341" y="725" type="line" smooth="yes"/>
      <point x="298" y="739" type="line" smooth="yes"/>
      <point x="249" y="764" type="line" smooth="yes"/>
      <point x="190" y="778" type="line" smooth="yes"/>
      <point x="138" y="763" type="line" smooth="yes"/>
      <point x="103" y="717" type="line" smooth="yes"/>
      <point x="89" y="636" type="line" smooth="yes"/>
      <point x="178" y="636" type="line" smooth="yes"/>
      <point x="182" y="659" type="line" smooth="yes"/>
      <point x="194" y="671" type="line" smooth="yes"/>
      <point x="211" y="675" type="line" smooth="yes"/>
      <point x="254" y="661" type="line" smooth="yes"/>
      <point x="303" y="636" type="line" smooth="yes"/>
      <point x="362" y="622" type="line" smooth="yes"/>
      <point x="414" y="637" type="line" smooth="yes"/>
      <point x="449" y="683" type="line" smooth="yes"/>
      <point x="463" y="764" type="line" smooth="yes"/>
    </contour>
    <contour>
      <point x="276" y="101" type="line" smooth="yes"/>
      <point x="214" y="119" type="line" smooth="yes"/>
      <point x="178" y="170" type="line" smooth="yes"/>
      <point x="166" y="249" type="line" smooth="yes"/>
      <point x="166" y="281" type="line" smooth="yes"/>
      <point x="178" y="361" type="line" smooth="yes"/>
      <point x="214" y="412" type="line" smooth="yes"/>
      <point x="276" y="430" type="line" smooth="yes"/>
      <point x="338" y="412" type="line" smooth="yes"/>
      <point x="374" y="361" type="line" smooth="yes"/>
      <point x="386" y="281" type="line" smooth="yes"/>
      <point x="386" y="249" type="line" smooth="yes"/>
      <point x="374" y="170" type="line" smooth="yes"/>
      <point x="338" y="119" type="line" smooth="yes"/>
    </contour>
    <contour>
      <point x="276" y="-13" type="line" smooth="yes"/>
      <point x="412" y="21" type="line" smooth="yes"/>
      <point x="491" y="114" type="line" smooth="yes"/>
      <point x="516" y="249" type="line" smooth="yes"/>
      <point x="516" y="281" type="line" smooth="yes"/>
      <point x="491" y="416" type="line" smooth="yes"/>
      <point x="412" y="509" type="line" smooth="yes"/>
      <point x="276" y="543" type="line" smooth="yes"/>
      <point x="140" y="509" type="line" smooth="yes"/>
      <point x="61" y="416" type="line" smooth="yes"/>
      <point x="36" y="281" type="line" smooth="yes"/>
      <point x="36" y="249" type="line" smooth="yes"/>
      <point x="61" y="114" type="line" smooth="yes"/>
      <point x="140" y="21" type="line" smooth="yes"/>
    </contour>
  </outline>
</glyph>
<glyph name="oslash" format="1">
  <advance width="553"/>
  <unicode hex="00F8"/>
  <outline>
    <contour>
      <point x="386" y="281" type="line" smooth="yes"/>
      <point x="386" y="249" type="line" smooth="yes"/>
      <point x="374" y="170" type="line" smooth="yes"/>
      <point x="338" y="119" type="line" smooth="yes"/>
      <point x="276" y="101" type="line" smooth="yes"/>
      <point x="248" y="104" type="line" smooth="yes"/>
      <point x="224" y="112" type="line" smooth="yes"/>
      <point x="205" y="126" type="line" smooth="yes"/>
      <point x="377" y="350" type="line" smooth="yes"/>
      <point x="382" y="329" type="line" smooth="yes"/>
      <point x="385" y="306" type="line" smooth="yes"/>
    </contour>
    <contour>
      <point x="166" y="249" type="line" smooth="yes"/>
      <point x="166" y="281" type="line" smooth="yes"/>
      <point x="178" y="361" type="line" smooth="yes"/>
      <point x="214" y="412" type="line" smooth="yes"/>
      <point x="276" y="430" type="line" smooth="yes"/>
      <point x="304" y="427" type="line" smooth="yes"/>
      <point x="327" y="418" type="line" smooth="yes"/>
      <point x="347" y="404" type="line" smooth="yes"/>
      <point x="174" y="180" type="line" smooth="yes"/>
      <point x="170" y="201" type="line" smooth="yes"/>
      <point x="167" y="224" type="line" smooth="yes"/>
    </contour>
    <contour>
      <point x="516" y="530" type="line" smooth="yes"/>
      <point x="444" y="530" type="line" smooth="yes"/>
      <point x="422" y="502" type="line" smooth="yes"/>
      <point x="381" y="524" type="line" smooth="yes"/>
      <point x="333" y="538" type="line" smooth="yes"/>
      <point x="276" y="543" type="line" smooth="yes"/>
      <point x="140" y="509" type="line" smooth="yes"/>
      <point x="61" y="416" type="line" smooth="yes"/>
      <point x="36" y="281" type="line" smooth="yes"/>
      <point x="36" y="249" type="line" smooth="yes"/>
      <point x="42" y="180" type="line" smooth="yes"/>
      <point x="59" y="119" type="line" smooth="yes"/>
      <point x="88" y="68" type="line" smooth="yes"/>
      <point x="36" y="0" type="line" smooth="yes"/>
      <point x="108" y="0" type="line" smooth="yes"/>
      <point x="129" y="28" type="line" smooth="yes"/>
      <point x="170" y="5" type="line" smooth="yes"/>
      <point x="219" y="-8" type="line" smooth="yes"/>
      <point x="276" y="-13" type="line" smooth="yes"/>
      <point x="412" y="21" type="line" smooth="yes"/>
      <point x="491" y="114" type="line" smooth="yes"/>
      <point x="516" y="249" type="line" smooth="yes"/>
      <point x="516" y="281" type="line" smooth="yes"/>
      <point x="510" y="350" type="line" smooth="yes"/>
      <point x="493" y="411" type="line" smooth="yes"/>
      <point x="464" y="462" type="line" smooth="yes"/>
    </contour>
  </outline>
</glyph>
<glyph name="uacute" format="1">
  <advance width="563"/>
  <unicode hex="00FA"/>
  <outline>
    <contour>
      <point x="304" y="780" type="line" smooth="yes"/>
      <point x="213" y="601" type="line" smooth="yes"/>
      <point x="343" y="601" type="line" smooth="yes"/>
      <point x="446" y="780" type="line" smooth="yes"/>
    </contour>
    <contour>
      <point x="52" y="530" type="line" smooth="yes"/>
      <point x="52" y="168" type="line" smooth="yes"/>
      <point x="68" y="78" type="line" smooth="yes"/>
      <point x="121" y="12" type="line" smooth="yes"/>
      <point x="215" y="-13" type="line" smooth="yes"/>
      <point x="290" y="-2" type="line" smooth="yes"/>
      <point x="346" y="27" type="line" smooth="yes"/>
      <point x="387" y="70" type="line" smooth="yes"/>
      <point x="399" y="0" type="line" smooth="yes"/>
      <point x="514" y="0" type="line" smooth="yes"/>
      <point x="506" y="150" type="line" smooth="yes"/>
      <point x="506" y="530" type="line" smooth="yes"/>
      <point x="376" y="530" type="line" smooth="yes"/>
      <point x="376" y="161" type="line" smooth="yes"/>
      <point x="354" y="134" type="line" smooth="yes"/>
      <point x="318" y="111" type="line" smooth="yes"/>
      <point x="266" y="101" type="line" smooth="yes"/>
      <point x="217" y="112" type="line" smooth="yes"/>
      <point x="190" y="143" type="line" smooth="yes"/>
      <point x="181" y="188" type="line" smooth="yes"/>
      <point x="181" y="530" type="line" smooth="yes"/>
    </contour>
  </outline>
</glyph>
<glyph name="thorn" format="1">
  <advance width="563"/>
  <unicode hex="00FE"/>
  <outline>
    <contour>
      <point x="187" y="161" type="line" smooth="yes"/>
      <point x="187" y="369" type="line" smooth="yes"/>
      <point x="209" y="396" type="line" smooth="yes"/>
      <point x="243" y="420" type="line" smooth="yes"/>
      <point x="291" y="430" type="line" smooth="yes"/>
      <point x="351" y="412" type="line" smooth="yes"/>
      <point x="385" y="361" type="line" smooth="yes"/>
      <point x="396" y="281" type="line" smooth="yes"/>
      <point x="396" y="249" type="line" smooth="yes"/>
      <point x="385" y="169" type="line" smooth="yes"/>
      <point x="351" y="119" type="line" smooth="yes"/>
      <point x="291" y="101" type="line" smooth="yes"/>
      <point x="243" y="111" type="line" smooth="yes"/>
      <point x="209" y="134" type="line" smooth="yes"/>
    </contour>
    <contour>
      <point x="56" y="800" type="line" smooth="yes"/>
      <point x="56" y="-200" type="line" smooth="yes"/>
      <point x="186" y="-200" type="line" smooth="yes"/>
      <point x="186" y="50" type="line" smooth="yes"/>
      <point x="221" y="17" type="line" smooth="yes"/>
      <point x="268" y="-5" type="line" smooth="yes"/>
      <point x="328" y="-13" type="line" smooth="yes"/>
      <point x="444" y="21" type="line" smooth="yes"/>
      <point x="507" y="114" type="line" smooth="yes"/>
      <point x="526" y="249" type="line" smooth="yes"/>
      <point x="526" y="281" type="line" smooth="yes"/>
      <point x="507" y="416" type="line" smooth="yes"/>
      <point x="444" y="509" type="line" smooth="yes"/>
      <point x="328" y="543" type="line" smooth="yes"/>
      <point x="268" y="535" type="line" smooth="yes"/>
      <point x="221" y="512" type="line" smooth="yes"/>
      <point x="186" y="479" type="line" smooth="yes"/>
      <point x="186" y="800" type="line" smooth="yes"/>
    </contour>
  </outline>
</glyph>
<glyph name="Abreve" format="1">
  <advance width="631"/>
  <unicode hex="0102"/>
  <outline>
    <contour>
      <point x="316" y="631" type="line" smooth="yes"/>
      <point x="397" y="295" type="line" smooth="yes"/>
      <point x="234" y="295" type="line" smooth="yes"/>
    </contour>
    <contour>
      <point x="316" y="826" type="line" smooth="yes"/>
      <point x="420" y="843" type="line" smooth="yes"/>
      <point x="472" y="888" type="line" smooth="yes"/>
      <point x="487" y="950" type="line" smooth="yes"/>
      <point x="395" y="950" type="line" smooth="yes"/>
      <point x="387" y="924" type="line" smooth="yes"/>
      <point x="361" y="907" type="line" smooth="yes"/>
      <point x="316" y="901" type="line" smooth="yes"/>
      <point x="271" y="907" type="line" smooth="yes"/>
      <point x="245" y="924" type="line" smooth="yes"/>
      <point x="237" y="950" type="line" smooth="yes"/>
      <point x="145" y="950" type="line" smooth="yes"/>
      <point x="160" y="888" type="line" smooth="yes"/>
      <point x="212" y="843" type="line" smooth="yes"/>
    </contour>
    <contour>
      <point x="223" y="784" type="line" smooth="yes"/>
      <point x="18" y="0" type="line" smooth="yes"/>
      <point x="163" y="0" type="line" smooth="yes"/>
      <point x="206" y="178" type="line" smooth="yes"/>
      <point x="426" y="178" type="line" smooth="yes"/>
      <point x="469" y="0" type="line" smooth="yes"/>
      <point x="613" y="0" type="line" smooth="yes"/>
      <point x="408" y="784" type="line" smooth="yes"/>
    </contour>
  </outline>
</glyph>
<glyph name="Aogonek" format="1">
  <advance width="631"/>
  <unicode hex="0104"/>
  <outline>
    <contour>
      <point x="316" y="631" type="line" smooth="yes"/>
      <point x="397" y="295" type="line" smooth="yes"/>
      <point x="234" y="295" type="line" smooth="yes"/>
    </contour>
    <contour>
      <point x="545" y="-79" type="line" smooth="yes"/>
      <point x="554" y="-47" type="line" smooth="yes"/>
      <point x="577" y="-20" type="line" smooth="yes"/>
      <point x="613" y="0" type="line" smooth="yes"/>
      <point x="408" y="784" type="line" smooth="yes"/>
      <point x="223" y="784" type="line" smooth="yes"/>
      <point x="18" y="0" type="line" smooth="yes"/>
      <point x="163" y="0" type="line" smooth="yes"/>
      <point x="206" y="178" type="line" smooth="yes"/>
      <point x="426" y="178" type="line" smooth="yes"/>
      <point x="474" y="-20" type="line" smooth="yes"/>
      <point x="458" y="-47" type="line" smooth="yes"/>
      <point x="449" y="-76" type="line" smooth="yes"/>
      <point x="445" y="-109" type="line" smooth="yes"/>
      <point x="461" y="-168" type="line" smooth="yes"/>
      <point x="505" y="-203" type="line" smooth="yes"/>
      <point x="572" y="-214" type="line" smooth="yes"/>
      <point x="610" y="-211" type="line" smooth="yes"/>
      <point x="645" y="-202" type="line" smooth="yes"/>
      <point x="671" y="-190" type="line" smooth="yes"/>
      <point x="640" y="-108" type="line" smooth="yes"/>
      <point x="628" y="-114" type="line" smooth="yes"/>
      <point x="612" y="-118" type="line" smooth="yes"/>
      <point x="592" y="-120" type="line" smooth="yes"/>
      <point x="566" y="-115" type="line" smooth="yes"/>
      <point x="551" y="-100" type="line" smooth="yes"/>
    </contour>
  </outline>
</glyph>
<glyph name="aogonek" format="1">
  <advance width="538"/>
  <unicode hex="0105"/>
  <outline>
    <contour>
      <point x="424" y="-79" type="line" smooth="yes"/>
      <point x="433" y="-47" type="line" smooth="yes"/>
      <point x="456" y="-20" type="line" smooth="yes"/>
      <point x="492" y="0" type="line" smooth="yes"/>
      <point x="484" y="150" type="line" smooth="yes"/>
      <point x="484" y="342" type="line" smooth="yes"/>
      <point x="465" y="449" type="line" smooth="yes"/>
      <point x="398" y="518" type="line" smooth="yes"/>
      <point x="269" y="543" type="line" smooth="yes"/>
      <point x="138" y="516" type="line" smooth="yes"/>
      <point x="72" y="450" type="line" smooth="yes"/>
      <point x="54" y="364" type="line" smooth="yes"/>
      <point x="54" y="355" type="line" smooth="yes"/>
      <point x="178" y="355" type="line" smooth="yes"/>
      <point x="185" y="398" type="line" smooth="yes"/>
      <point x="211" y="430" type="line" smooth="yes"/>
      <point x="266" y="442" type="line" smooth="yes"/>
      <point x="319" y="431" type="line" smooth="yes"/>
      <point x="346" y="398" type="line" smooth="yes"/>
      <point x="354" y="342" type="line" smooth="yes"/>
      <point x="354" y="340" type="line" smooth="yes"/>
      <point x="219" y="319" type="line" smooth="yes"/>
      <point x="125" y="295" type="line" smooth="yes"/>
      <point x="59" y="244" type="line" smooth="yes"/>
      <point x="34" y="153" type="line" smooth="yes"/>
      <point x="34" y="143" type="line" smooth="yes"/>
      <point x="51" y="65" type="line" smooth="yes"/>
      <point x="103" y="9" type="line" smooth="yes"/>
      <point x="194" y="-13" type="line" smooth="yes"/>
      <point x="266" y="-3" type="line" smooth="yes"/>
      <point x="323" y="23" type="line" smooth="yes"/>
      <point x="367" y="61" type="line" smooth="yes"/>
      <point x="376" y="5" type="line" smooth="yes"/>
      <point x="349" y="-27" type="line" smooth="yes"/>
      <point x="331" y="-65" type="line" smooth="yes"/>
      <point x="324" y="-109" type="line" smooth="yes"/>
      <point x="340" y="-168" type="line" smooth="yes"/>
      <point x="384" y="-203" type="line" smooth="yes"/>
      <point x="451" y="-214" type="line" smooth="yes"/>
      <point x="489" y="-211" type="line" smooth="yes"/>
      <point x="524" y="-202" type="line" smooth="yes"/>
      <point x="550" y="-190" type="line" smooth="yes"/>
      <point x="519" y="-108" type="line" smooth="yes"/>
      <point x="507" y="-114" type="line" smooth="yes"/>
      <point x="491" y="-118" type="line" smooth="yes"/>
      <point x="471" y="-120" type="line" smooth="yes"/>
      <point x="445" y="-115" type="line" smooth="yes"/>
      <point x="430" y="-100" type="line" smooth="yes"/>
    </contour>
    <contour>
      <point x="239" y="94" type="line" smooth="yes"/>
      <point x="196" y="104" type="line" smooth="yes"/>
      <point x="172" y="127" type="line" smooth="yes"/>
      <point x="164" y="159" type="line" smooth="yes"/>
      <point x="164" y="167" type="line" smooth="yes"/>
      <point x="172" y="203" type="line" smooth="yes"/>
      <point x="198" y="228" type="line" smooth="yes"/>
      <point x="243" y="243" type="line" smooth="yes"/>
      <point x="354" y="261" type="line" smooth="yes"/>
      <point x="354" y="149" type="line" smooth="yes"/>
      <point x="330" y="125" type="line" smooth="yes"/>
      <point x="292" y="103" type="line" smooth="yes"/>
    </contour>
  </outline>
</glyph>
<glyph name="Ccircumflex" format="1">
  <advance width="640"/>
  <unicode hex="0108"/>
  <outline>
    <contour>
      <point x="265" y="840" type="line" smooth="yes"/>
      <point x="329" y="890" type="line" smooth="yes"/>
      <point x="393" y="840" type="line" smooth="yes"/>
      <point x="513" y="840" type="line" smooth="yes"/>
      <point x="394" y="950" type="line" smooth="yes"/>
      <point x="264" y="950" type="line" smooth="yes"/>
      <point x="145" y="840" type="line" smooth="yes"/>
    </contour>
    <contour>
      <point x="181" y="370" type="line" smooth="yes"/>
      <point x="181" y="410" type="line" smooth="yes"/>
      <point x="194" y="557" type="line" smooth="yes"/>
      <point x="241" y="646" type="line" smooth="yes"/>
      <point x="328" y="676" type="line" smooth="yes"/>
      <point x="337" y="676" type="line" smooth="yes"/>
      <point x="412" y="655" type="line" smooth="yes"/>
      <point x="451" y="591" type="line" smooth="yes"/>
      <point x="463" y="487" type="line" smooth="yes"/>
      <point x="598" y="487" type="line" smooth="yes"/>
      <point x="598" y="521" type="line" smooth="yes"/>
      <point x="568" y="676" type="line" smooth="yes"/>
      <point x="478" y="765" type="line" smooth="yes"/>
      <point x="329" y="793" type="line" smooth="yes"/>
      <point x="168" y="754" type="line" smooth="yes"/>
      <point x="75" y="629" type="line" smooth="yes"/>
      <point x="44" y="410" type="line" smooth="yes"/>
      <point x="44" y="370" type="line" smooth="yes"/>
      <point x="75" y="151" type="line" smooth="yes"/>
      <point x="168" y="26" type="line" smooth="yes"/>
      <point x="329" y="-13" type="line" smooth="yes"/>
      <point x="478" y="15" type="line" smooth="yes"/>
      <point x="568" y="102" type="line" smooth="yes"/>
      <point x="598" y="253" type="line" smooth="yes"/>
      <point x="598" y="263" type="line" smooth="yes"/>
      <point x="463" y="263" type="line" smooth="yes"/>
      <point x="451" y="178" type="line" smooth="yes"/>
      <point x="410" y="123" type="line" smooth="yes"/>
      <point x="337" y="104" type="line" smooth="yes"/>
      <point x="328" y="104" type="line" smooth="yes"/>
      <point x="240" y="134" type="line" smooth="yes"/>
      <point x="194" y="223" type="line" smooth="yes"/>
    </contour>
  </outline>
</glyph>
<glyph name="cdotaccent" format="1">
  <advance width="525"/>
  <unicode hex="010B"/>
  <outline>
    <contour>
      <point x="341" y="763" type="line" smooth="yes"/>
      <point x="199" y="763" type="line" smooth="yes"/>
      <point x="199" y="622" type="line" smooth="yes"/>
      <point x="341" y="622" type="line" smooth="yes"/>
    </contour>
    <contour>
      <point x="166" y="249" type="line" smooth="yes"/>
      <point x="166" y="281" type="line" smooth="yes"/>
      <point x="177" y="361" type="line" smooth="yes"/>
      <point x="211" y="412" type="line" smooth="yes"/>
      <point x="273" y="430" type="line" smooth="yes"/>
      <point x="326" y="417" type="line" smooth="yes"/>
      <point x="357" y="382" type="line" smooth="yes"/>
      <point x="367" y="328" type="line" smooth="yes"/>
      <point x="490" y="328" type="line" smooth="yes"/>
      <point x="490" y="350" type="line" smooth="yes"/>
      <point x="466" y="448" type="line" smooth="yes"/>
      <point x="394" y="517" type="line" smooth="yes"/>
      <point x="270" y="543" type="line" smooth="yes"/>
      <point x="137" y="509" type="line" smooth="yes"/>
      <point x="60" y="416" type="line" smooth="yes"/>
      <point x="36" y="281" type="line" smooth="yes"/>
      <point x="36" y="249" type="line" smooth="yes"/>
      <point x="60" y="114" type="line" smooth="yes"/>
      <point x="137" y="21" type="line" smooth="yes"/>
      <point x="270" y="-13" type="line" smooth="yes"/>
      <point x="394" y="13" type="line" smooth="yes"/>
      <point x="466" y="79" type="line" smooth="yes"/>
      <point x="490" y="172" type="line" smooth="yes"/>
      <point x="490" y="193" type="line" smooth="yes"/>
      <point x="367" y="193" type="line" smooth="yes"/>
      <point x="357" y="146" type="line" smooth="yes"/>
      <point x="327" y="113" type="line" smooth="yes"/>
      <point x="273" y="101" type="line" smooth="yes"/>
      <point x="211" y="119" type="line" smooth="yes"/>
      <point x="177" y="170" type="line" smooth="yes"/>
    </contour>
  </outline>
</glyph>
<glyph name="Dcroat" format="1">
  <advance width="715"/>
  <unicode hex="0110"/>
  <outline>
    <contour>
      <point x="255" y="663" type="line" smooth="yes"/>
      <point x="343" y="663" type="line" smooth="yes"/>
      <point x="454" y="637" type="line" smooth="yes"/>
      <point x="515" y="554" type="line" smooth="yes"/>
      <point x="534" y="410" type="line" smooth="yes"/>
      <point x="534" y="370" type="line" smooth="yes"/>
      <point x="515" y="226" type="line" smooth="yes"/>
      <point x="454" y="143" type="line" smooth="yes"/>
      <point x="343" y="117" type="line" smooth="yes"/>
      <point x="255" y="117" type="line" smooth="yes"/>
      <point x="255" y="348" type="line" smooth="yes"/>
      <point x="435" y="348" type="line" smooth="yes"/>
      <point x="435" y="450" type="line" smooth="yes"/>
      <point x="255" y="450" type="line" smooth="yes"/>
    </contour>
    <contour>
      <point x="14" y="348" type="line" smooth="yes"/>
      <point x="121" y="348" type="line" smooth="yes"/>
      <point x="121" y="0" type="line" smooth="yes"/>
      <point x="351" y="0" type="line" smooth="yes"/>
      <point x="531" y="36" type="line" smooth="yes"/>
      <point x="637" y="154" type="line" smooth="yes"/>
      <point x="671" y="370" type="line" smooth="yes"/>
      <point x="671" y="410" type="line" smooth="yes"/>
      <point x="637" y="626" type="line" smooth="yes"/>
      <point x="531" y="744" type="line" smooth="yes"/>
      <point x="351" y="780" type="line" smooth="yes"/>
      <point x="121" y="780" type="line" smooth="yes"/>
      <point x="121" y="450" type="line" smooth="yes"/>
      <point x="14" y="450" type="line" smooth="yes"/>
    </contour>
  </outline>
</glyph>
<glyph name="Ebreve" format="1">
  <advance width="565"/>
  <unicode hex="0114"/>
  <outline>
    <contour>
      <point x="61" y="780" type="line" smooth="yes"/>
      <point x="61" y="0" type="line" smooth="yes"/>
      <point x="525" y="0" type="line" smooth="yes"/>
      <point x="525" y="117" type="line" smooth="yes"/>
      <point x="195" y="117" type="line" smooth="yes"/>
      <point x="195" y="340" type="line" smooth="yes"/>
      <point x="475" y="340" type="line" smooth="yes"/>
      <point x="475" y="456" type="line" smooth="yes"/>
      <point x="195" y="456" type="line" smooth="yes"/>
      <point x="195" y="663" type="line" smooth="yes"/>
      <point x="525" y="663" type="line" smooth="yes"/>
      <point x="525" y="780" type="line" smooth="yes"/>
    </contour>
    <contour>
      <point x="297" y="826" type="line" smooth="yes"/>
      <point x="401" y="843" type="line" smooth="yes"/>
      <point x="453" y="888" type="line" smooth="yes"/>
      <point x="468" y="950" type="line" smooth="yes"/>
      <point x="376" y="950" type="line" smooth="yes"/>
      <point x="368" y="924" type="line" smooth="yes"/>
      <point x="342" y="907" type="line" smooth="yes"/>
      <point x="297" y="901" type="line" smooth="yes"/>
      <point x="252" y="907" type="line" smooth="yes"/>
      <point x="226" y="924" type="line" smooth="yes"/>
      <point x="218" y="950" type="line" smooth="yes"/>
      <point x="126" y="950" type="line" smooth="yes"/>
      <point x="141" y="888" type="line" smooth="yes"/>
      <point x="193" y="843" type="line" smooth="yes"/>
    </contour>
  </outline>
</glyph>
<glyph name="ebreve" format="1">
  <advance width="553"/>
  <unicode hex="0115"/>
  <outline>
    <contour>
      <point x="276" y="442" type="line" smooth="yes"/>
      <point x="335" y="427" type="line" smooth="yes"/>
      <point x="371" y="384" type="line" smooth="yes"/>
      <point x="385" y="313" type="line" smooth="yes"/>
      <point x="166" y="313" type="line" smooth="yes"/>
      <point x="181" y="384" type="line" smooth="yes"/>
      <point x="217" y="427" type="line" smooth="yes"/>
    </contour>
    <contour>
      <point x="279" y="589" type="line" smooth="yes"/>
      <point x="385" y="614" type="line" smooth="yes"/>
      <point x="442" y="681" type="line" smooth="yes"/>
      <point x="458" y="780" type="line" smooth="yes"/>
      <point x="362" y="780" type="line" smooth="yes"/>
      <point x="352" y="729" type="line" smooth="yes"/>
      <point x="324" y="699" type="line" smooth="yes"/>
      <point x="279" y="689" type="line" smooth="yes"/>
      <point x="234" y="699" type="line" smooth="yes"/>
      <point x="206" y="729" type="line" smooth="yes"/>
      <point x="196" y="780" type="line" smooth="yes"/>
      <point x="100" y="780" type="line" smooth="yes"/>
      <point x="116" y="681" type="line" smooth="yes"/>
      <point x="173" y="614" type="line" smooth="yes"/>
    </contour>
    <contour>
      <point x="516" y="217" type="line" smooth="yes"/>
      <point x="516" y="278" type="line" smooth="yes"/>
      <point x="491" y="414" type="line" smooth="yes"/>
      <point x="413" y="508" type="line" smooth="yes"/>
      <point x="279" y="543" type="line" smooth="yes"/>
      <point x="143" y="508" type="line" smooth="yes"/>
      <point x="63" y="414" type="line" smooth="yes"/>
      <point x="36" y="278" type="line" smooth="yes"/>
      <point x="36" y="252" type="line" smooth="yes"/>
      <point x="62" y="116" type="line" smooth="yes"/>
      <point x="144" y="22" type="line" smooth="yes"/>
      <point x="284" y="-13" type="line" smooth="yes"/>
      <point x="412" y="12" type="line" smooth="yes"/>
      <point x="490" y="77" type="line" smooth="yes"/>
      <point x="516" y="166" type="line" smooth="yes"/>
      <point x="516" y="170" type="line" smooth="yes"/>
      <point x="393" y="170" type="line" smooth="yes"/>
      <point x="381" y="131" type="line" smooth="yes"/>
      <point x="345" y="100" type="line" smooth="yes"/>
      <point x="285" y="88" type="line" smooth="yes"/>
      <point x="222" y="102" type="line" smooth="yes"/>
      <point x="183" y="145" type="line" smooth="yes"/>
      <point x="166" y="217" type="line" smooth="yes"/>
    </contour>
  </outline>
</glyph>
<glyph name="Edotaccent" format="1">
  <advance width="565"/>
  <unicode hex="0116"/>
  <outline>
    <contour>
      <point x="355" y="941" type="line" smooth="yes"/>
      <point x="239" y="941" type="line" smooth="yes"/>
      <point x="239" y="849" type="line" smooth="yes"/>
      <point x="355" y="849" type="line" smooth="yes"/>
    </contour>
    <contour>
      <point x="61" y="780" type="line" smooth="yes"/>
      <point x="61" y="0" type="line" smooth="yes"/>
      <point x="525" y="0" type="line" smooth="yes"/>
      <point x="525" y="117" type="line" smooth="yes"/>
      <point x="195" y="117" type="line" smooth="yes"/>
      <point x="195" y="340" type="line" smooth="yes"/>
      <point x="475" y="340" type="line" smooth="yes"/>
      <point x="475" y="456" type="line" smooth="yes"/>
      <point x="195" y="456" type="line" smooth="yes"/>
      <point x="195" y="663" type="line" smooth="yes"/>
      <point x="525" y="663" type="line" smooth="yes"/>
      <point x="525" y="780" type="line" smooth="yes"/>
    </contour>
  </outline>
</glyph>
<glyph name="Eogonek" format="1">
  <advance width="565"/>
  <unicode hex="0118"/>
  <outline>
    <contour>
      <point x="61" y="780" type="line" smooth="yes"/>
      <point x="61" y="0" type="line" smooth="yes"/>
      <point x="403" y="0" type="line" smooth="yes"/>
      <point x="379" y="-31" type="line" smooth="yes"/>
      <point x="363" y="-67" type="line" smooth="yes"/>
      <point x="357" y="-109" type="line" smooth="yes"/>
      <point x="373" y="-168" type="line" smooth="yes"/>
      <point x="417" y="-203" type="line" smooth="yes"/>
      <point x="484" y="-214" type="line" smooth="yes"/>
      <point x="522" y="-211" type="line" smooth="yes"/>
      <point x="557" y="-202" type="line" smooth="yes"/>
      <point x="583" y="-190" type="line" smooth="yes"/>
      <point x="552" y="-108" type="line" smooth="yes"/>
      <point x="540" y="-114" type="line" smooth="yes"/>
      <point x="524" y="-118" type="line" smooth="yes"/>
      <point x="504" y="-120" type="line" smooth="yes"/>
      <point x="478" y="-115" type="line" smooth="yes"/>
      <point x="463" y="-100" type="line" smooth="yes"/>
      <point x="457" y="-79" type="line" smooth="yes"/>
      <point x="466" y="-47" type="line" smooth="yes"/>
      <point x="489" y="-20" type="line" smooth="yes"/>
      <point x="525" y="0" type="line" smooth="yes"/>
      <point x="525" y="117" type="line" smooth="yes"/>
      <point x="195" y="117" type="line" smooth="yes"/>
      <point x="195" y="340" type="line" smooth="yes"/>
      <point x="475" y="340" type="line" smooth="yes"/>
      <point x="475" y="456" type="line" smooth="yes"/>
      <point x="195" y="456" type="line" smooth="yes"/>
      <point x="195" y="663" type="line" smooth="yes"/>
      <point x="525" y="663" type="line" smooth="yes"/>
      <point x="525" y="780" type="line" smooth="yes"/>
    </contour>
  </outline>
</glyph>
<glyph name="eogonek" format="1">
  <advance width="553"/>
  <unicode hex="0119"/>
  <outline>
    <contour>
      <point x="276" y="442" type="line" smooth="yes"/>
      <point x="335" y="427" type="line" smooth="yes"/>
      <point x="371" y="384" type="line" smooth="yes"/>
      <point x="385" y="313" type="line" smooth="yes"/>
      <point x="166" y="313" type="line" smooth="yes"/>
      <point x="181" y="384" type="line" smooth="yes"/>
      <point x="217" y="427" type="line" smooth="yes"/>
    </contour>
    <contour>
      <point x="516" y="217" type="line" smooth="yes"/>
      <point x="516" y="278" type="line" smooth="yes"/>
      <point x="491" y="414" type="line" smooth="yes"/>
      <point x="413" y="508" type="line" smooth="yes"/>
      <point x="279" y="543" type="line" smooth="yes"/>
      <point x="143" y="508" type="line" smooth="yes"/>
      <point x="63" y="414" type="line" smooth="yes"/>
      <point x="36" y="278" type="line" smooth="yes"/>
      <point x="36" y="252" type="line" smooth="yes"/>
      <point x="58" y="125" type="line" smooth="yes"/>
      <point x="127" y="33" type="line" smooth="yes"/>
      <point x="246" y="-11" type="line" smooth="yes"/>
      <point x="227" y="-39" type="line" smooth="yes"/>
      <point x="214" y="-72" type="line" smooth="yes"/>
      <point x="210" y="-109" type="line" smooth="yes"/>
      <point x="226" y="-168" type="line" smooth="yes"/>
      <point x="270" y="-203" type="line" smooth="yes"/>
      <point x="337" y="-214" type="line" smooth="yes"/>
      <point x="375" y="-211" type="line" smooth="yes"/>
      <point x="410" y="-202" type="line" smooth="yes"/>
      <point x="436" y="-190" type="line" smooth="yes"/>
      <point x="405" y="-108" type="line" smooth="yes"/>
      <point x="393" y="-114" type="line" smooth="yes"/>
      <point x="377" y="-118" type="line" smooth="yes"/>
      <point x="357" y="-120" type="line" smooth="yes"/>
      <point x="331" y="-115" type="line" smooth="yes"/>
      <point x="316" y="-100" type="line" smooth="yes"/>
      <point x="310" y="-79" type="line" smooth="yes"/>
      <point x="319" y="-45" type="line" smooth="yes"/>
      <point x="342" y="-18" type="line" smooth="yes"/>
      <point x="379" y="0" type="line" smooth="yes"/>
      <point x="454" y="39" type="line" smooth="yes"/>
      <point x="500" y="96" type="line" smooth="yes"/>
      <point x="516" y="166" type="line" smooth="yes"/>
      <point x="516" y="170" type="line" smooth="yes"/>
      <point x="393" y="170" type="line" smooth="yes"/>
      <point x="381" y="131" type="line" smooth="yes"/>
      <point x="345" y="100" type="line" smooth="yes"/>
      <point x="285" y="88" type="line" smooth="yes"/>
      <point x="222" y="102" type="line" smooth="yes"/>
      <point x="183" y="145" type="line" smooth="yes"/>
      <point x="166" y="217" type="line" smooth="yes"/>
    </contour>
  </outline>
</glyph>
<glyph name="Gcircumflex" format="1">
  <advance width="664"/>
  <unicode hex="011C"/>
  <outline>
    <contour>
      <point x="272" y="840" type="line" smooth="yes"/>
      <point x="336" y="890" type="line" smooth="yes"/>
      <point x="400" y="840" type="line" smooth="yes"/>
      <point x="520" y="840" type="line" smooth="yes"/>
      <point x="401" y="950" type="line" smooth="yes"/>
      <point x="271" y="950" type="line" smooth="yes"/>
      <point x="152" y="840" type="line" smooth="yes"/>
    </contour>
    <contour>
      <point x="346" y="-13" type="line" smooth="yes"/>
      <point x="461" y="0" type="line" smooth="yes"/>
      <point x="546" y="34" type="line" smooth="yes"/>
      <point x="608" y="78" type="line" smooth="yes"/>
      <point x="608" y="410" type="line" smooth="yes"/>
      <point x="361" y="410" type="line" smooth="yes"/>
      <point x="361" y="294" type="line" smooth="yes"/>
      <point x="474" y="294" type="line" smooth="yes"/>
      <point x="474" y="143" type="line" smooth="yes"/>
      <point x="443" y="124" type="line" smooth="yes"/>
      <point x="402" y="109" type="line" smooth="yes"/>
      <point x="351" y="104" type="line" smooth="yes"/>
      <point x="342" y="104" type="line" smooth="yes"/>
      <point x="246" y="134" type="line" smooth="yes"/>
      <point x="195" y="223" type="line" smooth="yes"/>
      <point x="181" y="370" type="line" smooth="yes"/>
      <point x="181" y="410" type="line" smooth="yes"/>
      <point x="195" y="557" type="line" smooth="yes"/>
      <point x="244" y="646" type="line" smooth="yes"/>
      <point x="335" y="676" type="line" smooth="yes"/>
      <point x="344" y="676" type="line" smooth="yes"/>
      <point x="421" y="655" type="line" smooth="yes"/>
      <point x="462" y="591" type="line" smooth="yes"/>
      <point x="474" y="487" type="line" smooth="yes"/>
      <point x="608" y="487" type="line" smooth="yes"/>
      <point x="608" y="521" type="line" smooth="yes"/>
      <point x="577" y="676" type="line" smooth="yes"/>
      <point x="486" y="765" type="line" smooth="yes"/>
      <point x="336" y="793" type="line" smooth="yes"/>
      <point x="174" y="754" type="line" smooth="yes"/>
      <point x="76" y="629" type="line" smooth="yes"/>
      <point x="44" y="410" type="line" smooth="yes"/>
      <point x="44" y="370" type="line" smooth="yes"/>
      <point x="77" y="151" type="line" smooth="yes"/>
      <point x="177" y="26" type="line" smooth="yes"/>
    </contour>
  </outline>
</glyph>
<glyph name="gcircumflex" format="1">
  <advance width="563"/>
  <unicode hex="011D"/>
  <outline>
    <contour>
      <point x="198" y="601" type="line" smooth="yes"/>
      <point x="276" y="693" type="line" smooth="yes"/>
      <point x="354" y="601" type="line" smooth="yes"/>
      <point x="471" y="601" type="line" smooth="yes"/>
      <point x="338" y="780" type="line" smooth="yes"/>
      <point x="214" y="780" type="line" smooth="yes"/>
      <point x="81" y="601" type="line" smooth="yes"/>
    </contour>
    <contour>
      <point x="376" y="194" type="line" smooth="yes"/>
      <point x="354" y="168" type="line" smooth="yes"/>
      <point x="320" y="144" type="line" smooth="yes"/>
      <point x="271" y="134" type="line" smooth="yes"/>
      <point x="213" y="150" type="line" smooth="yes"/>
      <point x="178" y="195" type="line" smooth="yes"/>
      <point x="166" y="269" type="line" smooth="yes"/>
      <point x="166" y="295" type="line" smooth="yes"/>
      <point x="178" y="366" type="line" smooth="yes"/>
      <point x="213" y="413" type="line" smooth="yes"/>
      <point x="271" y="430" type="line" smooth="yes"/>
      <point x="320" y="420" type="line" smooth="yes"/>
      <point x="354" y="396" type="line" smooth="yes"/>
      <point x="376" y="369" type="line" smooth="yes"/>
    </contour>
    <contour>
      <point x="376" y="8" type="line" smooth="yes"/>
      <point x="365" y="-58" type="line" smooth="yes"/>
      <point x="330" y="-94" type="line" smooth="yes"/>
      <point x="270" y="-106" type="line" smooth="yes"/>
      <point x="210" y="-93" type="line" smooth="yes"/>
      <point x="178" y="-57" type="line" smooth="yes"/>
      <point x="169" y="0" type="line" smooth="yes"/>
      <point x="46" y="0" type="line" smooth="yes"/>
      <point x="46" y="-19" type="line" smooth="yes"/>
      <point x="67" y="-117" type="line" smooth="yes"/>
      <point x="139" y="-186" type="line" smooth="yes"/>
      <point x="273" y="-213" type="line" smooth="yes"/>
      <point x="405" y="-187" type="line" smooth="yes"/>
      <point x="481" y="-113" type="line" smooth="yes"/>
      <point x="506" y="6" type="line" smooth="yes"/>
      <point x="506" y="380" type="line" smooth="yes"/>
      <point x="514" y="530" type="line" smooth="yes"/>
      <point x="399" y="530" type="line" smooth="yes"/>
      <point x="388" y="465" type="line" smooth="yes"/>
      <point x="352" y="505" type="line" smooth="yes"/>
      <point x="302" y="533" type="line" smooth="yes"/>
      <point x="235" y="543" type="line" smooth="yes"/>
      <point x="120" y="510" type="line" smooth="yes"/>
      <point x="56" y="421" type="line" smooth="yes"/>
      <point x="36" y="295" type="line" smooth="yes"/>
      <point x="36" y="269" type="line" smooth="yes"/>
      <point x="56" y="140" type="line" smooth="yes"/>
      <point x="120" y="53" type="line" smooth="yes"/>
      <point x="235" y="21" type="line" smooth="yes"/>
      <point x="294" y="29" type="line" smooth="yes"/>
      <point x="341" y="50" type="line" smooth="yes"/>
      <point x="376" y="82" type="line" smooth="yes"/>
    </contour>
  </outline>
</glyph>
<glyph name="Gbreve" format="1">
  <advance width="664"/>
  <unicode hex="011E"/>
  <outline>
    <contour>
      <point x="336" y="826" type="line" smooth="yes"/>
      <point x="440" y="843" type="line" smooth="yes"/>
      <point x="492" y="888" type="line" smooth="yes"/>
      <point x="507" y="950" type="line" smooth="yes"/>
      <point x="415" y="950" type="line" smooth="yes"/>
      <point x="407" y="924" type="line" smooth="yes"/>
      <point x="381" y="907" type="line" smooth="yes"/>
      <point x="336" y="901" type="line" smooth="yes"/>
      <point x="291" y="907" type="line" smooth="yes"/>
      <point x="265" y="924" type="line" smooth="yes"/>
      <point x="257" y="950" type="line" smooth="yes"/>
      <point x="165" y="950" type="line" smooth="yes"/>
      <point x="180" y="888" type="line" smooth="yes"/>
      <point x="232" y="843" type="line" smooth="yes"/>
    </contour>
    <contour>
      <point x="346" y="-13" type="line" smooth="yes"/>
      <point x="461" y="0" type="line" smooth="yes"/>
      <point x="546" y="34" type="line" smooth="yes"/>
      <point x="608" y="78" type="line" smooth="yes"/>
      <point x="608" y="410" type="line" smooth="yes"/>
      <point x="361" y="410" type="line" smooth="yes"/>
      <point x="361" y="294" type="line" smooth="yes"/>
      <point x="474" y="294" type="line" smooth="yes"/>
      <point x="474" y="143" type="line" smooth="yes"/>
      <point x="443" y="124" type="line" smooth="yes"/>
      <point x="402" y="109" type="line" smooth="yes"/>
      <point x="351" y="104" type="line" smooth="yes"/>
      <point x="342" y="104" type="line" smooth="yes"/>
      <point x="246" y="134" type="line" smooth="yes"/>
      <point x="195" y="223" type="line" smooth="yes"/>
      <point x="181" y="370" type="line" smooth="yes"/>
      <point x="181" y="410" type="line" smooth="yes"/>
      <point x="195" y="557" type="line" smooth="yes"/>
      <point x="244" y="646" type="line" smooth="yes"/>
      <point x="335" y="676" type="line" smooth="yes"/>
      <point x="344" y="676" type="line" smooth="yes"/>
      <point x="421" y="655" type="line" smooth="yes"/>
      <point x="462" y="591" type="line" smooth="yes"/>
      <point x="474" y="487" type="line" smooth="yes"/>
      <point x="608" y="487" type="line" smooth="yes"/>
      <point x="608" y="521" type="line" smooth="yes"/>
      <point x="577" y="676" type="line" smooth="yes"/>
      <point x="486" y="765" type="line" smooth="yes"/>
      <point x="336" y="793" type="line" smooth="yes"/>
      <point x="174" y="754" type="line" smooth="yes"/>
      <point x="76" y="629" type="line" smooth="yes"/>
      <point x="44" y="410" type="line" smooth="yes"/>
      <point x="44" y="370" type="line" smooth="yes"/>
      <point x="77" y="151" type="line" smooth="yes"/>
      <point x="177" y="26" type="line" smooth="yes"/>
    </contour>
  </outline>
</glyph>
<glyph name="gbreve" format="1">
  <advance width="563"/>
  <unicode hex="011F"/>
  <outline>
    <contour>
      <point x="276" y="589" type="line" smooth="yes"/>
      <point x="382" y="614" type="line" smooth="yes"/>
      <point x="439" y="681" type="line" smooth="yes"/>
      <point x="455" y="780" type="line" smooth="yes"/>
      <point x="359" y="780" type="line" smooth="yes"/>
      <point x="349" y="729" type="line" smooth="yes"/>
      <point x="321" y="699" type="line" smooth="yes"/>
      <point x="276" y="689" type="line" smooth="yes"/>
      <point x="231" y="699" type="line" smooth="yes"/>
      <point x="203" y="729" type="line" smooth="yes"/>
      <point x="193" y="780" type="line" smooth="yes"/>
      <point x="97" y="780" type="line" smooth="yes"/>
      <point x="113" y="681" type="line" smooth="yes"/>
      <point x="170" y="614" type="line" smooth="yes"/>
    </contour>
    <contour>
      <point x="376" y="369" type="line" smooth="yes"/>
      <point x="376" y="194" type="line" smooth="yes"/>
      <point x="354" y="168" type="line" smooth="yes"/>
      <point x="320" y="144" type="line" smooth="yes"/>
      <point x="271" y="134" type="line" smooth="yes"/>
      <point x="213" y="150" type="line" smooth="yes"/>
      <point x="178" y="195" type="line" smooth="yes"/>
      <point x="166" y="269" type="line" smooth="yes"/>
      <point x="166" y="295" type="line" smooth="yes"/>
      <point x="178" y="366" type="line" smooth="yes"/>
      <point x="213" y="413" type="line" smooth="yes"/>
      <point x="271" y="430" type="line" smooth="yes"/>
      <point x="320" y="420" type="line" smooth="yes"/>
      <point x="354" y="396" type="line" smooth="yes"/>
    </contour>
    <contour>
      <point x="376" y="8" type="line" smooth="yes"/>
      <point x="365" y="-58" type="line" smooth="yes"/>
      <point x="330" y="-94" type="line" smooth="yes"/>
      <point x="270" y="-106" type="line" smooth="yes"/>
      <point x="210" y="-93" type="line" smooth="yes"/>
      <point x="178" y="-57" type="line" smooth="yes"/>
      <point x="169" y="0" type="line" smooth="yes"/>
      <point x="46" y="0" type="line" smooth="yes"/>
      <point x="46" y="-19" type="line" smooth="yes"/>
      <point x="67" y="-117" type="line" smooth="yes"/>
      <point x="139" y="-186" type="line" smooth="yes"/>
      <point x="273" y="-213" type="line" smooth="yes"/>
      <point x="405" y="-187" type="line" smooth="yes"/>
      <point x="481" y="-113" type="line" smooth="yes"/>
      <point x="506" y="6" type="line" smooth="yes"/>
      <point x="506" y="380" type="line" smooth="yes"/>
      <point x="514" y="530" type="line" smooth="yes"/>
      <point x="399" y="530" type="line" smooth="yes"/>
      <point x="388" y="465" type="line" smooth="yes"/>
      <point x="352" y="505" type="line" smooth="yes"/>
      <point x="302" y="533" type="line" smooth="yes"/>
      <point x="235" y="543" type="line" smooth="yes"/>
      <point x="120" y="510" type="line" smooth="yes"/>
      <point x="56" y="421" type="line" smooth="yes"/>
      <point x="36" y="295" type="line" smooth="yes"/>
      <point x="36" y="269" type="line" smooth="yes"/>
      <point x="56" y="140" type="line" smooth="yes"/>
      <point x="120" y="53" type="line" smooth="yes"/>
      <point x="235" y="21" type="line" smooth="yes"/>
      <point x="294" y="29" type="line" smooth="yes"/>
      <point x="341" y="50" type="line" smooth="yes"/>
      <point x="376" y="82" type="line" smooth="yes"/>
    </contour>
  </outline>
</glyph>
